ISO-10303-21;
HEADER;
FILE_DESCRIPTION(('FreeCAD Model'),'2;1');
FILE_NAME('Open CASCADE Shape Model','2026-10-04T02:15:53',('FreeCAD'),(
    'FreeCAD'),'Open CASCADE STEP processor 7.8','FreeCAD','Unknown');
FILE_SCHEMA(('AUTOMOTIVE_DESIGN { 1 0 10303 214 1 1 1 1 }'));
ENDSEC;
DATA;
#1 = APPLICATION_PROTOCOL_DEFINITION('international standard',
  'automotive_design',2000,#2);
#2 = APPLICATION_CONTEXT(
  'core data for automotive mechanical design processes');
#3 = SHAPE_DEFINITION_REPRESENTATION(#4,#10);
#4 = PRODUCT_DEFINITION_SHAPE('','',#5);
#5 = PRODUCT_DEFINITION('design','',#6,#9);
#6 = PRODUCT_DEFINITION_FORMATION('','',#7);
#7 = PRODUCT('Open CASCADE STEP translator 7.8 3',
  'Open CASCADE STEP translator 7.8 3','',(#8));
#8 = PRODUCT_CONTEXT('',#2,'mechanical');
#9 = PRODUCT_DEFINITION_CONTEXT('part definition',#2,'design');
#10 = ADVANCED_BREP_SHAPE_REPRESENTATION('',(#11,#15),#853);
#11 = AXIS2_PLACEMENT_3D('',#12,#13,#14);
#12 = CARTESIAN_POINT('',(0.,0.,0.));
#13 = DIRECTION('',(0.,0.,1.));
#14 = DIRECTION('',(1.,0.,-0.));
#15 = MANIFOLD_SOLID_BREP('',#16);
#16 = CLOSED_SHELL('',(#17,#57,#90,#123,#244,#365,#382,#399,#416,#433,
    #445,#477,#509,#533,#558,#590,#607,#639,#663,#688,#720,#744,#769,
    #795,#821,#837));
#17 = ADVANCED_FACE('',(#18),#52,.F.);
#18 = FACE_BOUND('',#19,.F.);
#19 = EDGE_LOOP('',(#20,#30,#38,#46));
#20 = ORIENTED_EDGE('',*,*,#21,.T.);
#21 = EDGE_CURVE('',#22,#24,#26,.T.);
#22 = VERTEX_POINT('',#23);
#23 = CARTESIAN_POINT('',(-9.875,-24.85,-12.5));
#24 = VERTEX_POINT('',#25);
#25 = CARTESIAN_POINT('',(-9.875,-24.85,-3.6));
#26 = LINE('',#27,#28);
#27 = CARTESIAN_POINT('',(-9.875,-24.85,-12.5));
#28 = VECTOR('',#29,1.);
#29 = DIRECTION('',(0.,0.,1.));
#30 = ORIENTED_EDGE('',*,*,#31,.T.);
#31 = EDGE_CURVE('',#24,#32,#34,.T.);
#32 = VERTEX_POINT('',#33);
#33 = CARTESIAN_POINT('',(9.875,-24.85,-3.6));
#34 = LINE('',#35,#36);
#35 = CARTESIAN_POINT('',(-9.875,-24.85,-3.6));
#36 = VECTOR('',#37,1.);
#37 = DIRECTION('',(1.,0.,0.));
#38 = ORIENTED_EDGE('',*,*,#39,.F.);
#39 = EDGE_CURVE('',#40,#32,#42,.T.);
#40 = VERTEX_POINT('',#41);
#41 = CARTESIAN_POINT('',(9.875,-24.85,-12.5));
#42 = LINE('',#43,#44);
#43 = CARTESIAN_POINT('',(9.875,-24.85,-12.5));
#44 = VECTOR('',#45,1.);
#45 = DIRECTION('',(0.,0.,1.));
#46 = ORIENTED_EDGE('',*,*,#47,.F.);
#47 = EDGE_CURVE('',#22,#40,#48,.T.);
#48 = LINE('',#49,#50);
#49 = CARTESIAN_POINT('',(-9.875,-24.85,-12.5));
#50 = VECTOR('',#51,1.);
#51 = DIRECTION('',(1.,0.,0.));
#52 = PLANE('',#53);
#53 = AXIS2_PLACEMENT_3D('',#54,#55,#56);
#54 = CARTESIAN_POINT('',(-9.875,-24.85,-12.5));
#55 = DIRECTION('',(0.,1.,0.));
#56 = DIRECTION('',(1.,0.,0.));
#57 = ADVANCED_FACE('',(#58),#85,.T.);
#58 = FACE_BOUND('',#59,.F.);
#59 = EDGE_LOOP('',(#60,#70,#77,#78));
#60 = ORIENTED_EDGE('',*,*,#61,.T.);
#61 = EDGE_CURVE('',#62,#64,#66,.T.);
#62 = VERTEX_POINT('',#63);
#63 = CARTESIAN_POINT('',(-14.875,-19.85,-12.5));
#64 = VERTEX_POINT('',#65);
#65 = CARTESIAN_POINT('',(-14.875,-19.85,-3.6));
#66 = LINE('',#67,#68);
#67 = CARTESIAN_POINT('',(-14.875,-19.85,-12.5));
#68 = VECTOR('',#69,1.);
#69 = DIRECTION('',(0.,0.,1.));
#70 = ORIENTED_EDGE('',*,*,#71,.T.);
#71 = EDGE_CURVE('',#64,#24,#72,.T.);
#72 = CIRCLE('',#73,5.);
#73 = AXIS2_PLACEMENT_3D('',#74,#75,#76);
#74 = CARTESIAN_POINT('',(-9.875,-19.85,-3.6));
#75 = DIRECTION('',(0.,0.,1.));
#76 = DIRECTION('',(-1.,0.,0.));
#77 = ORIENTED_EDGE('',*,*,#21,.F.);
#78 = ORIENTED_EDGE('',*,*,#79,.F.);
#79 = EDGE_CURVE('',#62,#22,#80,.T.);
#80 = CIRCLE('',#81,5.);
#81 = AXIS2_PLACEMENT_3D('',#82,#83,#84);
#82 = CARTESIAN_POINT('',(-9.875,-19.85,-12.5));
#83 = DIRECTION('',(0.,0.,1.));
#84 = DIRECTION('',(-1.,0.,0.));
#85 = CYLINDRICAL_SURFACE('',#86,5.);
#86 = AXIS2_PLACEMENT_3D('',#87,#88,#89);
#87 = CARTESIAN_POINT('',(-9.875,-19.85,-12.5));
#88 = DIRECTION('',(-0.,-0.,-1.));
#89 = DIRECTION('',(-1.,0.,0.));
#90 = ADVANCED_FACE('',(#91),#118,.T.);
#91 = FACE_BOUND('',#92,.F.);
#92 = EDGE_LOOP('',(#93,#94,#103,#111));
#93 = ORIENTED_EDGE('',*,*,#39,.T.);
#94 = ORIENTED_EDGE('',*,*,#95,.T.);
#95 = EDGE_CURVE('',#32,#96,#98,.T.);
#96 = VERTEX_POINT('',#97);
#97 = CARTESIAN_POINT('',(14.875,-19.85,-3.6));
#98 = CIRCLE('',#99,5.);
#99 = AXIS2_PLACEMENT_3D('',#100,#101,#102);
#100 = CARTESIAN_POINT('',(9.875,-19.85,-3.6));
#101 = DIRECTION('',(0.,0.,1.));
#102 = DIRECTION('',(0.,-1.,0.));
#103 = ORIENTED_EDGE('',*,*,#104,.F.);
#104 = EDGE_CURVE('',#105,#96,#107,.T.);
#105 = VERTEX_POINT('',#106);
#106 = CARTESIAN_POINT('',(14.875,-19.85,-12.5));
#107 = LINE('',#108,#109);
#108 = CARTESIAN_POINT('',(14.875,-19.85,-12.5));
#109 = VECTOR('',#110,1.);
#110 = DIRECTION('',(0.,0.,1.));
#111 = ORIENTED_EDGE('',*,*,#112,.F.);
#112 = EDGE_CURVE('',#40,#105,#113,.T.);
#113 = CIRCLE('',#114,5.);
#114 = AXIS2_PLACEMENT_3D('',#115,#116,#117);
#115 = CARTESIAN_POINT('',(9.875,-19.85,-12.5));
#116 = DIRECTION('',(0.,0.,1.));
#117 = DIRECTION('',(0.,-1.,0.));
#118 = CYLINDRICAL_SURFACE('',#119,5.);
#119 = AXIS2_PLACEMENT_3D('',#120,#121,#122);
#120 = CARTESIAN_POINT('',(9.875,-19.85,-12.5));
#121 = DIRECTION('',(-0.,-0.,-1.));
#122 = DIRECTION('',(0.,-1.,0.));
#123 = ADVANCED_FACE('',(#124,#169),#239,.F.);
#124 = FACE_BOUND('',#125,.F.);
#125 = EDGE_LOOP('',(#126,#127,#128,#136,#145,#153,#162,#168));
#126 = ORIENTED_EDGE('',*,*,#47,.T.);
#127 = ORIENTED_EDGE('',*,*,#112,.T.);
#128 = ORIENTED_EDGE('',*,*,#129,.T.);
#129 = EDGE_CURVE('',#105,#130,#132,.T.);
#130 = VERTEX_POINT('',#131);
#131 = CARTESIAN_POINT('',(14.875,19.85,-12.5));
#132 = LINE('',#133,#134);
#133 = CARTESIAN_POINT('',(14.875,-19.85,-12.5));
#134 = VECTOR('',#135,1.);
#135 = DIRECTION('',(0.,1.,0.));
#136 = ORIENTED_EDGE('',*,*,#137,.T.);
#137 = EDGE_CURVE('',#130,#138,#140,.T.);
#138 = VERTEX_POINT('',#139);
#139 = CARTESIAN_POINT('',(9.875,24.85,-12.5));
#140 = CIRCLE('',#141,5.);
#141 = AXIS2_PLACEMENT_3D('',#142,#143,#144);
#142 = CARTESIAN_POINT('',(9.875,19.85,-12.5));
#143 = DIRECTION('',(0.,0.,1.));
#144 = DIRECTION('',(1.,0.,-0.));
#145 = ORIENTED_EDGE('',*,*,#146,.T.);
#146 = EDGE_CURVE('',#138,#147,#149,.T.);
#147 = VERTEX_POINT('',#148);
#148 = CARTESIAN_POINT('',(-9.875,24.85,-12.5));
#149 = LINE('',#150,#151);
#150 = CARTESIAN_POINT('',(9.875,24.85,-12.5));
#151 = VECTOR('',#152,1.);
#152 = DIRECTION('',(-1.,0.,0.));
#153 = ORIENTED_EDGE('',*,*,#154,.T.);
#154 = EDGE_CURVE('',#147,#155,#157,.T.);
#155 = VERTEX_POINT('',#156);
#156 = CARTESIAN_POINT('',(-14.875,19.85,-12.5));
#157 = CIRCLE('',#158,5.);
#158 = AXIS2_PLACEMENT_3D('',#159,#160,#161);
#159 = CARTESIAN_POINT('',(-9.875,19.85,-12.5));
#160 = DIRECTION('',(0.,-0.,1.));
#161 = DIRECTION('',(0.,1.,0.));
#162 = ORIENTED_EDGE('',*,*,#163,.T.);
#163 = EDGE_CURVE('',#155,#62,#164,.T.);
#164 = LINE('',#165,#166);
#165 = CARTESIAN_POINT('',(-14.875,19.85,-12.5));
#166 = VECTOR('',#167,1.);
#167 = DIRECTION('',(0.,-1.,0.));
#168 = ORIENTED_EDGE('',*,*,#79,.T.);
#169 = FACE_BOUND('',#170,.F.);
#170 = EDGE_LOOP('',(#171,#182,#190,#199,#207,#216,#224,#233));
#171 = ORIENTED_EDGE('',*,*,#172,.T.);
#172 = EDGE_CURVE('',#173,#175,#177,.T.);
#173 = VERTEX_POINT('',#174);
#174 = CARTESIAN_POINT('',(13.675,-16.5,-12.5));
#175 = VERTEX_POINT('',#176);
#176 = CARTESIAN_POINT('',(6.525,-23.65,-12.5));
#177 = CIRCLE('',#178,7.15);
#178 = AXIS2_PLACEMENT_3D('',#179,#180,#181);
#179 = CARTESIAN_POINT('',(6.525,-16.5,-12.5));
#180 = DIRECTION('',(-0.,0.,-1.));
#181 = DIRECTION('',(-7.453245480001E-16,-1.,0.));
#182 = ORIENTED_EDGE('',*,*,#183,.T.);
#183 = EDGE_CURVE('',#175,#184,#186,.T.);
#184 = VERTEX_POINT('',#185);
#185 = CARTESIAN_POINT('',(-6.525,-23.65,-12.5));
#186 = LINE('',#187,#188);
#187 = CARTESIAN_POINT('',(-3.2625,-23.65,-12.5));
#188 = VECTOR('',#189,1.);
#189 = DIRECTION('',(-1.,0.,0.));
#190 = ORIENTED_EDGE('',*,*,#191,.T.);
#191 = EDGE_CURVE('',#184,#192,#194,.T.);
#192 = VERTEX_POINT('',#193);
#193 = CARTESIAN_POINT('',(-13.675,-16.5,-12.5));
#194 = CIRCLE('',#195,7.15);
#195 = AXIS2_PLACEMENT_3D('',#196,#197,#198);
#196 = CARTESIAN_POINT('',(-6.525,-16.5,-12.5));
#197 = DIRECTION('',(-0.,0.,-1.));
#198 = DIRECTION('',(-1.,9.937660640001E-16,0.));
#199 = ORIENTED_EDGE('',*,*,#200,.T.);
#200 = EDGE_CURVE('',#192,#201,#203,.T.);
#201 = VERTEX_POINT('',#202);
#202 = CARTESIAN_POINT('',(-13.675,16.5,-12.5));
#203 = LINE('',#204,#205);
#204 = CARTESIAN_POINT('',(-13.675,8.25,-12.5));
#205 = VECTOR('',#206,1.);
#206 = DIRECTION('',(-0.,1.,0.));
#207 = ORIENTED_EDGE('',*,*,#208,.T.);
#208 = EDGE_CURVE('',#201,#209,#211,.T.);
#209 = VERTEX_POINT('',#210);
#210 = CARTESIAN_POINT('',(-6.525,23.65,-12.5));
#211 = CIRCLE('',#212,7.15);
#212 = AXIS2_PLACEMENT_3D('',#213,#214,#215);
#213 = CARTESIAN_POINT('',(-6.525,16.5,-12.5));
#214 = DIRECTION('',(0.,-0.,-1.));
#215 = DIRECTION('',(7.453245480001E-16,1.,-0.));
#216 = ORIENTED_EDGE('',*,*,#217,.T.);
#217 = EDGE_CURVE('',#209,#218,#220,.T.);
#218 = VERTEX_POINT('',#219);
#219 = CARTESIAN_POINT('',(6.525,23.65,-12.5));
#220 = LINE('',#221,#222);
#221 = CARTESIAN_POINT('',(3.2625,23.65,-12.5));
#222 = VECTOR('',#223,1.);
#223 = DIRECTION('',(1.,0.,-0.));
#224 = ORIENTED_EDGE('',*,*,#225,.T.);
#225 = EDGE_CURVE('',#218,#226,#228,.T.);
#226 = VERTEX_POINT('',#227);
#227 = CARTESIAN_POINT('',(13.675,16.5,-12.5));
#228 = CIRCLE('',#229,7.15);
#229 = AXIS2_PLACEMENT_3D('',#230,#231,#232);
#230 = CARTESIAN_POINT('',(6.525,16.5,-12.5));
#231 = DIRECTION('',(0.,-0.,-1.));
#232 = DIRECTION('',(1.,-9.937660640001E-16,0.));
#233 = ORIENTED_EDGE('',*,*,#234,.T.);
#234 = EDGE_CURVE('',#226,#173,#235,.T.);
#235 = LINE('',#236,#237);
#236 = CARTESIAN_POINT('',(13.675,-8.25,-12.5));
#237 = VECTOR('',#238,1.);
#238 = DIRECTION('',(0.,-1.,0.));
#239 = PLANE('',#240);
#240 = AXIS2_PLACEMENT_3D('',#241,#242,#243);
#241 = CARTESIAN_POINT('',(1.137184625135E-15,1.421480781418E-15,-12.5)
  );
#242 = DIRECTION('',(0.,0.,1.));
#243 = DIRECTION('',(1.,0.,-0.));
#244 = ADVANCED_FACE('',(#245,#290),#360,.T.);
#245 = FACE_BOUND('',#246,.T.);
#246 = EDGE_LOOP('',(#247,#248,#249,#257,#266,#274,#283,#289));
#247 = ORIENTED_EDGE('',*,*,#31,.T.);
#248 = ORIENTED_EDGE('',*,*,#95,.T.);
#249 = ORIENTED_EDGE('',*,*,#250,.T.);
#250 = EDGE_CURVE('',#96,#251,#253,.T.);
#251 = VERTEX_POINT('',#252);
#252 = CARTESIAN_POINT('',(14.875,19.85,-3.6));
#253 = LINE('',#254,#255);
#254 = CARTESIAN_POINT('',(14.875,-19.85,-3.6));
#255 = VECTOR('',#256,1.);
#256 = DIRECTION('',(0.,1.,0.));
#257 = ORIENTED_EDGE('',*,*,#258,.T.);
#258 = EDGE_CURVE('',#251,#259,#261,.T.);
#259 = VERTEX_POINT('',#260);
#260 = CARTESIAN_POINT('',(9.875,24.85,-3.6));
#261 = CIRCLE('',#262,5.);
#262 = AXIS2_PLACEMENT_3D('',#263,#264,#265);
#263 = CARTESIAN_POINT('',(9.875,19.85,-3.6));
#264 = DIRECTION('',(0.,0.,1.));
#265 = DIRECTION('',(1.,0.,-0.));
#266 = ORIENTED_EDGE('',*,*,#267,.T.);
#267 = EDGE_CURVE('',#259,#268,#270,.T.);
#268 = VERTEX_POINT('',#269);
#269 = CARTESIAN_POINT('',(-9.875,24.85,-3.6));
#270 = LINE('',#271,#272);
#271 = CARTESIAN_POINT('',(9.875,24.85,-3.6));
#272 = VECTOR('',#273,1.);
#273 = DIRECTION('',(-1.,0.,0.));
#274 = ORIENTED_EDGE('',*,*,#275,.T.);
#275 = EDGE_CURVE('',#268,#276,#278,.T.);
#276 = VERTEX_POINT('',#277);
#277 = CARTESIAN_POINT('',(-14.875,19.85,-3.6));
#278 = CIRCLE('',#279,5.);
#279 = AXIS2_PLACEMENT_3D('',#280,#281,#282);
#280 = CARTESIAN_POINT('',(-9.875,19.85,-3.6));
#281 = DIRECTION('',(0.,-0.,1.));
#282 = DIRECTION('',(0.,1.,0.));
#283 = ORIENTED_EDGE('',*,*,#284,.T.);
#284 = EDGE_CURVE('',#276,#64,#285,.T.);
#285 = LINE('',#286,#287);
#286 = CARTESIAN_POINT('',(-14.875,19.85,-3.6));
#287 = VECTOR('',#288,1.);
#288 = DIRECTION('',(0.,-1.,0.));
#289 = ORIENTED_EDGE('',*,*,#71,.T.);
#290 = FACE_BOUND('',#291,.T.);
#291 = EDGE_LOOP('',(#292,#302,#311,#319,#328,#336,#345,#353));
#292 = ORIENTED_EDGE('',*,*,#293,.T.);
#293 = EDGE_CURVE('',#294,#296,#298,.T.);
#294 = VERTEX_POINT('',#295);
#295 = CARTESIAN_POINT('',(13.675,16.9,-3.6));
#296 = VERTEX_POINT('',#297);
#297 = CARTESIAN_POINT('',(13.675,-16.9,-3.6));
#298 = LINE('',#299,#300);
#299 = CARTESIAN_POINT('',(13.675,-8.45,-3.6));
#300 = VECTOR('',#301,1.);
#301 = DIRECTION('',(0.,-1.,0.));
#302 = ORIENTED_EDGE('',*,*,#303,.T.);
#303 = EDGE_CURVE('',#296,#304,#306,.T.);
#304 = VERTEX_POINT('',#305);
#305 = CARTESIAN_POINT('',(6.525,-24.05,-3.6));
#306 = CIRCLE('',#307,7.15);
#307 = AXIS2_PLACEMENT_3D('',#308,#309,#310);
#308 = CARTESIAN_POINT('',(6.525,-16.9,-3.6));
#309 = DIRECTION('',(-0.,0.,-1.));
#310 = DIRECTION('',(-7.453245480001E-16,-1.,0.));
#311 = ORIENTED_EDGE('',*,*,#312,.T.);
#312 = EDGE_CURVE('',#304,#313,#315,.T.);
#313 = VERTEX_POINT('',#314);
#314 = CARTESIAN_POINT('',(-6.525,-24.05,-3.6));
#315 = LINE('',#316,#317);
#316 = CARTESIAN_POINT('',(-3.2625,-24.05,-3.6));
#317 = VECTOR('',#318,1.);
#318 = DIRECTION('',(-1.,0.,0.));
#319 = ORIENTED_EDGE('',*,*,#320,.T.);
#320 = EDGE_CURVE('',#313,#321,#323,.T.);
#321 = VERTEX_POINT('',#322);
#322 = CARTESIAN_POINT('',(-13.675,-16.9,-3.6));
#323 = CIRCLE('',#324,7.15);
#324 = AXIS2_PLACEMENT_3D('',#325,#326,#327);
#325 = CARTESIAN_POINT('',(-6.525,-16.9,-3.6));
#326 = DIRECTION('',(-0.,0.,-1.));
#327 = DIRECTION('',(-1.,9.937660640001E-16,0.));
#328 = ORIENTED_EDGE('',*,*,#329,.T.);
#329 = EDGE_CURVE('',#321,#330,#332,.T.);
#330 = VERTEX_POINT('',#331);
#331 = CARTESIAN_POINT('',(-13.675,16.9,-3.6));
#332 = LINE('',#333,#334);
#333 = CARTESIAN_POINT('',(-13.675,8.45,-3.6));
#334 = VECTOR('',#335,1.);
#335 = DIRECTION('',(-0.,1.,0.));
#336 = ORIENTED_EDGE('',*,*,#337,.T.);
#337 = EDGE_CURVE('',#330,#338,#340,.T.);
#338 = VERTEX_POINT('',#339);
#339 = CARTESIAN_POINT('',(-6.525,24.05,-3.6));
#340 = CIRCLE('',#341,7.15);
#341 = AXIS2_PLACEMENT_3D('',#342,#343,#344);
#342 = CARTESIAN_POINT('',(-6.525,16.9,-3.6));
#343 = DIRECTION('',(0.,-0.,-1.));
#344 = DIRECTION('',(7.453245480001E-16,1.,-0.));
#345 = ORIENTED_EDGE('',*,*,#346,.T.);
#346 = EDGE_CURVE('',#338,#347,#349,.T.);
#347 = VERTEX_POINT('',#348);
#348 = CARTESIAN_POINT('',(6.525,24.05,-3.6));
#349 = LINE('',#350,#351);
#350 = CARTESIAN_POINT('',(3.2625,24.05,-3.6));
#351 = VECTOR('',#352,1.);
#352 = DIRECTION('',(1.,0.,-0.));
#353 = ORIENTED_EDGE('',*,*,#354,.T.);
#354 = EDGE_CURVE('',#347,#294,#355,.T.);
#355 = CIRCLE('',#356,7.15);
#356 = AXIS2_PLACEMENT_3D('',#357,#358,#359);
#357 = CARTESIAN_POINT('',(6.525,16.9,-3.6));
#358 = DIRECTION('',(0.,-0.,-1.));
#359 = DIRECTION('',(1.,-9.937660640001E-16,0.));
#360 = PLANE('',#361);
#361 = AXIS2_PLACEMENT_3D('',#362,#363,#364);
#362 = CARTESIAN_POINT('',(1.137184625135E-15,1.421480781418E-15,-3.6));
#363 = DIRECTION('',(0.,0.,1.));
#364 = DIRECTION('',(1.,0.,-0.));
#365 = ADVANCED_FACE('',(#366),#377,.F.);
#366 = FACE_BOUND('',#367,.F.);
#367 = EDGE_LOOP('',(#368,#374,#375,#376));
#368 = ORIENTED_EDGE('',*,*,#369,.T.);
#369 = EDGE_CURVE('',#155,#276,#370,.T.);
#370 = LINE('',#371,#372);
#371 = CARTESIAN_POINT('',(-14.875,19.85,-12.5));
#372 = VECTOR('',#373,1.);
#373 = DIRECTION('',(0.,0.,1.));
#374 = ORIENTED_EDGE('',*,*,#284,.T.);
#375 = ORIENTED_EDGE('',*,*,#61,.F.);
#376 = ORIENTED_EDGE('',*,*,#163,.F.);
#377 = PLANE('',#378);
#378 = AXIS2_PLACEMENT_3D('',#379,#380,#381);
#379 = CARTESIAN_POINT('',(-14.875,19.85,-12.5));
#380 = DIRECTION('',(1.,0.,-0.));
#381 = DIRECTION('',(0.,-1.,0.));
#382 = ADVANCED_FACE('',(#383),#394,.F.);
#383 = FACE_BOUND('',#384,.F.);
#384 = EDGE_LOOP('',(#385,#386,#387,#393));
#385 = ORIENTED_EDGE('',*,*,#104,.T.);
#386 = ORIENTED_EDGE('',*,*,#250,.T.);
#387 = ORIENTED_EDGE('',*,*,#388,.F.);
#388 = EDGE_CURVE('',#130,#251,#389,.T.);
#389 = LINE('',#390,#391);
#390 = CARTESIAN_POINT('',(14.875,19.85,-12.5));
#391 = VECTOR('',#392,1.);
#392 = DIRECTION('',(0.,0.,1.));
#393 = ORIENTED_EDGE('',*,*,#129,.F.);
#394 = PLANE('',#395);
#395 = AXIS2_PLACEMENT_3D('',#396,#397,#398);
#396 = CARTESIAN_POINT('',(14.875,-19.85,-12.5));
#397 = DIRECTION('',(-1.,0.,0.));
#398 = DIRECTION('',(0.,1.,0.));
#399 = ADVANCED_FACE('',(#400),#411,.T.);
#400 = FACE_BOUND('',#401,.F.);
#401 = EDGE_LOOP('',(#402,#408,#409,#410));
#402 = ORIENTED_EDGE('',*,*,#403,.T.);
#403 = EDGE_CURVE('',#147,#268,#404,.T.);
#404 = LINE('',#405,#406);
#405 = CARTESIAN_POINT('',(-9.875,24.85,-12.5));
#406 = VECTOR('',#407,1.);
#407 = DIRECTION('',(0.,0.,1.));
#408 = ORIENTED_EDGE('',*,*,#275,.T.);
#409 = ORIENTED_EDGE('',*,*,#369,.F.);
#410 = ORIENTED_EDGE('',*,*,#154,.F.);
#411 = CYLINDRICAL_SURFACE('',#412,5.);
#412 = AXIS2_PLACEMENT_3D('',#413,#414,#415);
#413 = CARTESIAN_POINT('',(-9.875,19.85,-12.5));
#414 = DIRECTION('',(-0.,0.,-1.));
#415 = DIRECTION('',(0.,1.,0.));
#416 = ADVANCED_FACE('',(#417),#428,.T.);
#417 = FACE_BOUND('',#418,.F.);
#418 = EDGE_LOOP('',(#419,#420,#421,#427));
#419 = ORIENTED_EDGE('',*,*,#388,.T.);
#420 = ORIENTED_EDGE('',*,*,#258,.T.);
#421 = ORIENTED_EDGE('',*,*,#422,.F.);
#422 = EDGE_CURVE('',#138,#259,#423,.T.);
#423 = LINE('',#424,#425);
#424 = CARTESIAN_POINT('',(9.875,24.85,-12.5));
#425 = VECTOR('',#426,1.);
#426 = DIRECTION('',(0.,0.,1.));
#427 = ORIENTED_EDGE('',*,*,#137,.F.);
#428 = CYLINDRICAL_SURFACE('',#429,5.);
#429 = AXIS2_PLACEMENT_3D('',#430,#431,#432);
#430 = CARTESIAN_POINT('',(9.875,19.85,-12.5));
#431 = DIRECTION('',(-0.,-0.,-1.));
#432 = DIRECTION('',(1.,0.,-0.));
#433 = ADVANCED_FACE('',(#434),#440,.F.);
#434 = FACE_BOUND('',#435,.F.);
#435 = EDGE_LOOP('',(#436,#437,#438,#439));
#436 = ORIENTED_EDGE('',*,*,#422,.T.);
#437 = ORIENTED_EDGE('',*,*,#267,.T.);
#438 = ORIENTED_EDGE('',*,*,#403,.F.);
#439 = ORIENTED_EDGE('',*,*,#146,.F.);
#440 = PLANE('',#441);
#441 = AXIS2_PLACEMENT_3D('',#442,#443,#444);
#442 = CARTESIAN_POINT('',(9.875,24.85,-12.5));
#443 = DIRECTION('',(0.,-1.,0.));
#444 = DIRECTION('',(-1.,0.,0.));
#445 = ADVANCED_FACE('',(#446),#472,.F.);
#446 = FACE_BOUND('',#447,.T.);
#447 = EDGE_LOOP('',(#448,#456,#457,#465));
#448 = ORIENTED_EDGE('',*,*,#449,.F.);
#449 = EDGE_CURVE('',#173,#450,#452,.T.);
#450 = VERTEX_POINT('',#451);
#451 = CARTESIAN_POINT('',(13.675,-16.5,-6.));
#452 = LINE('',#453,#454);
#453 = CARTESIAN_POINT('',(13.675,-16.5,-13.5));
#454 = VECTOR('',#455,1.);
#455 = DIRECTION('',(0.,0.,1.));
#456 = ORIENTED_EDGE('',*,*,#172,.T.);
#457 = ORIENTED_EDGE('',*,*,#458,.T.);
#458 = EDGE_CURVE('',#175,#459,#461,.T.);
#459 = VERTEX_POINT('',#460);
#460 = CARTESIAN_POINT('',(6.525,-23.65,-6.));
#461 = LINE('',#462,#463);
#462 = CARTESIAN_POINT('',(6.525,-23.65,-13.5));
#463 = VECTOR('',#464,1.);
#464 = DIRECTION('',(0.,0.,1.));
#465 = ORIENTED_EDGE('',*,*,#466,.F.);
#466 = EDGE_CURVE('',#450,#459,#467,.T.);
#467 = CIRCLE('',#468,7.15);
#468 = AXIS2_PLACEMENT_3D('',#469,#470,#471);
#469 = CARTESIAN_POINT('',(6.525,-16.5,-6.));
#470 = DIRECTION('',(-0.,0.,-1.));
#471 = DIRECTION('',(-7.453245480001E-16,-1.,0.));
#472 = CYLINDRICAL_SURFACE('',#473,7.15);
#473 = AXIS2_PLACEMENT_3D('',#474,#475,#476);
#474 = CARTESIAN_POINT('',(6.525,-16.5,-13.5));
#475 = DIRECTION('',(-0.,-0.,-1.));
#476 = DIRECTION('',(-7.453245480001E-16,-1.,0.));
#477 = ADVANCED_FACE('',(#478),#504,.F.);
#478 = FACE_BOUND('',#479,.T.);
#479 = EDGE_LOOP('',(#480,#488,#489,#497));
#480 = ORIENTED_EDGE('',*,*,#481,.F.);
#481 = EDGE_CURVE('',#218,#482,#484,.T.);
#482 = VERTEX_POINT('',#483);
#483 = CARTESIAN_POINT('',(6.525,23.65,-6.));
#484 = LINE('',#485,#486);
#485 = CARTESIAN_POINT('',(6.525,23.65,-13.5));
#486 = VECTOR('',#487,1.);
#487 = DIRECTION('',(0.,0.,1.));
#488 = ORIENTED_EDGE('',*,*,#225,.T.);
#489 = ORIENTED_EDGE('',*,*,#490,.T.);
#490 = EDGE_CURVE('',#226,#491,#493,.T.);
#491 = VERTEX_POINT('',#492);
#492 = CARTESIAN_POINT('',(13.675,16.5,-6.));
#493 = LINE('',#494,#495);
#494 = CARTESIAN_POINT('',(13.675,16.5,-13.5));
#495 = VECTOR('',#496,1.);
#496 = DIRECTION('',(0.,0.,1.));
#497 = ORIENTED_EDGE('',*,*,#498,.F.);
#498 = EDGE_CURVE('',#482,#491,#499,.T.);
#499 = CIRCLE('',#500,7.15);
#500 = AXIS2_PLACEMENT_3D('',#501,#502,#503);
#501 = CARTESIAN_POINT('',(6.525,16.5,-6.));
#502 = DIRECTION('',(0.,-0.,-1.));
#503 = DIRECTION('',(1.,-9.937660640001E-16,0.));
#504 = CYLINDRICAL_SURFACE('',#505,7.15);
#505 = AXIS2_PLACEMENT_3D('',#506,#507,#508);
#506 = CARTESIAN_POINT('',(6.525,16.5,-13.5));
#507 = DIRECTION('',(-0.,-0.,-1.));
#508 = DIRECTION('',(1.,-9.937660640001E-16,0.));
#509 = ADVANCED_FACE('',(#510),#528,.T.);
#510 = FACE_BOUND('',#511,.T.);
#511 = EDGE_LOOP('',(#512,#520,#521,#522));
#512 = ORIENTED_EDGE('',*,*,#513,.F.);
#513 = EDGE_CURVE('',#209,#514,#516,.T.);
#514 = VERTEX_POINT('',#515);
#515 = CARTESIAN_POINT('',(-6.525,23.65,-6.));
#516 = LINE('',#517,#518);
#517 = CARTESIAN_POINT('',(-6.525,23.65,-13.5));
#518 = VECTOR('',#519,1.);
#519 = DIRECTION('',(0.,0.,1.));
#520 = ORIENTED_EDGE('',*,*,#217,.T.);
#521 = ORIENTED_EDGE('',*,*,#481,.T.);
#522 = ORIENTED_EDGE('',*,*,#523,.T.);
#523 = EDGE_CURVE('',#482,#514,#524,.T.);
#524 = LINE('',#525,#526);
#525 = CARTESIAN_POINT('',(3.2625,23.65,-6.));
#526 = VECTOR('',#527,1.);
#527 = DIRECTION('',(-1.,0.,0.));
#528 = PLANE('',#529);
#529 = AXIS2_PLACEMENT_3D('',#530,#531,#532);
#530 = CARTESIAN_POINT('',(6.525,23.65,-13.5));
#531 = DIRECTION('',(0.,-1.,0.));
#532 = DIRECTION('',(-1.,0.,0.));
#533 = ADVANCED_FACE('',(#534),#553,.F.);
#534 = FACE_BOUND('',#535,.T.);
#535 = EDGE_LOOP('',(#536,#544,#545,#546));
#536 = ORIENTED_EDGE('',*,*,#537,.F.);
#537 = EDGE_CURVE('',#201,#538,#540,.T.);
#538 = VERTEX_POINT('',#539);
#539 = CARTESIAN_POINT('',(-13.675,16.5,-6.));
#540 = LINE('',#541,#542);
#541 = CARTESIAN_POINT('',(-13.675,16.5,-13.5));
#542 = VECTOR('',#543,1.);
#543 = DIRECTION('',(0.,0.,1.));
#544 = ORIENTED_EDGE('',*,*,#208,.T.);
#545 = ORIENTED_EDGE('',*,*,#513,.T.);
#546 = ORIENTED_EDGE('',*,*,#547,.F.);
#547 = EDGE_CURVE('',#538,#514,#548,.T.);
#548 = CIRCLE('',#549,7.15);
#549 = AXIS2_PLACEMENT_3D('',#550,#551,#552);
#550 = CARTESIAN_POINT('',(-6.525,16.5,-6.));
#551 = DIRECTION('',(0.,-0.,-1.));
#552 = DIRECTION('',(7.453245480001E-16,1.,-0.));
#553 = CYLINDRICAL_SURFACE('',#554,7.15);
#554 = AXIS2_PLACEMENT_3D('',#555,#556,#557);
#555 = CARTESIAN_POINT('',(-6.525,16.5,-13.5));
#556 = DIRECTION('',(-0.,-0.,-1.));
#557 = DIRECTION('',(7.453245480001E-16,1.,-0.));
#558 = ADVANCED_FACE('',(#559),#585,.F.);
#559 = FACE_BOUND('',#560,.T.);
#560 = EDGE_LOOP('',(#561,#569,#570,#578));
#561 = ORIENTED_EDGE('',*,*,#562,.F.);
#562 = EDGE_CURVE('',#184,#563,#565,.T.);
#563 = VERTEX_POINT('',#564);
#564 = CARTESIAN_POINT('',(-6.525,-23.65,-6.));
#565 = LINE('',#566,#567);
#566 = CARTESIAN_POINT('',(-6.525,-23.65,-13.5));
#567 = VECTOR('',#568,1.);
#568 = DIRECTION('',(0.,0.,1.));
#569 = ORIENTED_EDGE('',*,*,#191,.T.);
#570 = ORIENTED_EDGE('',*,*,#571,.T.);
#571 = EDGE_CURVE('',#192,#572,#574,.T.);
#572 = VERTEX_POINT('',#573);
#573 = CARTESIAN_POINT('',(-13.675,-16.5,-6.));
#574 = LINE('',#575,#576);
#575 = CARTESIAN_POINT('',(-13.675,-16.5,-13.5));
#576 = VECTOR('',#577,1.);
#577 = DIRECTION('',(0.,0.,1.));
#578 = ORIENTED_EDGE('',*,*,#579,.F.);
#579 = EDGE_CURVE('',#563,#572,#580,.T.);
#580 = CIRCLE('',#581,7.15);
#581 = AXIS2_PLACEMENT_3D('',#582,#583,#584);
#582 = CARTESIAN_POINT('',(-6.525,-16.5,-6.));
#583 = DIRECTION('',(-0.,0.,-1.));
#584 = DIRECTION('',(-1.,9.937660640001E-16,0.));
#585 = CYLINDRICAL_SURFACE('',#586,7.15);
#586 = AXIS2_PLACEMENT_3D('',#587,#588,#589);
#587 = CARTESIAN_POINT('',(-6.525,-16.5,-13.5));
#588 = DIRECTION('',(-0.,-0.,-1.));
#589 = DIRECTION('',(-1.,9.937660640001E-16,0.));
#590 = ADVANCED_FACE('',(#591),#602,.T.);
#591 = FACE_BOUND('',#592,.T.);
#592 = EDGE_LOOP('',(#593,#594,#595,#596));
#593 = ORIENTED_EDGE('',*,*,#458,.F.);
#594 = ORIENTED_EDGE('',*,*,#183,.T.);
#595 = ORIENTED_EDGE('',*,*,#562,.T.);
#596 = ORIENTED_EDGE('',*,*,#597,.T.);
#597 = EDGE_CURVE('',#563,#459,#598,.T.);
#598 = LINE('',#599,#600);
#599 = CARTESIAN_POINT('',(-3.2625,-23.65,-6.));
#600 = VECTOR('',#601,1.);
#601 = DIRECTION('',(1.,0.,0.));
#602 = PLANE('',#603);
#603 = AXIS2_PLACEMENT_3D('',#604,#605,#606);
#604 = CARTESIAN_POINT('',(-6.525,-23.65,-13.5));
#605 = DIRECTION('',(0.,1.,0.));
#606 = DIRECTION('',(1.,0.,0.));
#607 = ADVANCED_FACE('',(#608),#634,.F.);
#608 = FACE_BOUND('',#609,.T.);
#609 = EDGE_LOOP('',(#610,#621,#627,#628));
#610 = ORIENTED_EDGE('',*,*,#611,.F.);
#611 = EDGE_CURVE('',#612,#614,#616,.T.);
#612 = VERTEX_POINT('',#613);
#613 = CARTESIAN_POINT('',(13.675,16.9,-6.));
#614 = VERTEX_POINT('',#615);
#615 = CARTESIAN_POINT('',(6.525,24.05,-6.));
#616 = CIRCLE('',#617,7.15);
#617 = AXIS2_PLACEMENT_3D('',#618,#619,#620);
#618 = CARTESIAN_POINT('',(6.525,16.9,-6.));
#619 = DIRECTION('',(0.,0.,1.));
#620 = DIRECTION('',(1.,-9.937660640001E-16,0.));
#621 = ORIENTED_EDGE('',*,*,#622,.T.);
#622 = EDGE_CURVE('',#612,#294,#623,.T.);
#623 = LINE('',#624,#625);
#624 = CARTESIAN_POINT('',(13.675,16.9,-6.));
#625 = VECTOR('',#626,1.);
#626 = DIRECTION('',(0.,0.,1.));
#627 = ORIENTED_EDGE('',*,*,#354,.F.);
#628 = ORIENTED_EDGE('',*,*,#629,.F.);
#629 = EDGE_CURVE('',#614,#347,#630,.T.);
#630 = LINE('',#631,#632);
#631 = CARTESIAN_POINT('',(6.525,24.05,-6.));
#632 = VECTOR('',#633,1.);
#633 = DIRECTION('',(0.,0.,1.));
#634 = CYLINDRICAL_SURFACE('',#635,7.15);
#635 = AXIS2_PLACEMENT_3D('',#636,#637,#638);
#636 = CARTESIAN_POINT('',(6.525,16.9,-6.));
#637 = DIRECTION('',(-0.,-0.,-1.));
#638 = DIRECTION('',(1.,-9.937660640001E-16,0.));
#639 = ADVANCED_FACE('',(#640),#658,.T.);
#640 = FACE_BOUND('',#641,.T.);
#641 = EDGE_LOOP('',(#642,#650,#651,#652));
#642 = ORIENTED_EDGE('',*,*,#643,.F.);
#643 = EDGE_CURVE('',#614,#644,#646,.T.);
#644 = VERTEX_POINT('',#645);
#645 = CARTESIAN_POINT('',(-6.525,24.05,-6.));
#646 = LINE('',#647,#648);
#647 = CARTESIAN_POINT('',(6.525,24.05,-6.));
#648 = VECTOR('',#649,1.);
#649 = DIRECTION('',(-1.,0.,0.));
#650 = ORIENTED_EDGE('',*,*,#629,.T.);
#651 = ORIENTED_EDGE('',*,*,#346,.F.);
#652 = ORIENTED_EDGE('',*,*,#653,.F.);
#653 = EDGE_CURVE('',#644,#338,#654,.T.);
#654 = LINE('',#655,#656);
#655 = CARTESIAN_POINT('',(-6.525,24.05,-6.));
#656 = VECTOR('',#657,1.);
#657 = DIRECTION('',(0.,0.,1.));
#658 = PLANE('',#659);
#659 = AXIS2_PLACEMENT_3D('',#660,#661,#662);
#660 = CARTESIAN_POINT('',(6.525,24.05,-6.));
#661 = DIRECTION('',(0.,-1.,0.));
#662 = DIRECTION('',(-1.,0.,0.));
#663 = ADVANCED_FACE('',(#664),#683,.F.);
#664 = FACE_BOUND('',#665,.T.);
#665 = EDGE_LOOP('',(#666,#675,#676,#677));
#666 = ORIENTED_EDGE('',*,*,#667,.F.);
#667 = EDGE_CURVE('',#644,#668,#670,.T.);
#668 = VERTEX_POINT('',#669);
#669 = CARTESIAN_POINT('',(-13.675,16.9,-6.));
#670 = CIRCLE('',#671,7.15);
#671 = AXIS2_PLACEMENT_3D('',#672,#673,#674);
#672 = CARTESIAN_POINT('',(-6.525,16.9,-6.));
#673 = DIRECTION('',(0.,0.,1.));
#674 = DIRECTION('',(7.453245480001E-16,1.,-0.));
#675 = ORIENTED_EDGE('',*,*,#653,.T.);
#676 = ORIENTED_EDGE('',*,*,#337,.F.);
#677 = ORIENTED_EDGE('',*,*,#678,.F.);
#678 = EDGE_CURVE('',#668,#330,#679,.T.);
#679 = LINE('',#680,#681);
#680 = CARTESIAN_POINT('',(-13.675,16.9,-6.));
#681 = VECTOR('',#682,1.);
#682 = DIRECTION('',(0.,0.,1.));
#683 = CYLINDRICAL_SURFACE('',#684,7.15);
#684 = AXIS2_PLACEMENT_3D('',#685,#686,#687);
#685 = CARTESIAN_POINT('',(-6.525,16.9,-6.));
#686 = DIRECTION('',(-0.,-0.,-1.));
#687 = DIRECTION('',(7.453245480001E-16,1.,-0.));
#688 = ADVANCED_FACE('',(#689),#715,.F.);
#689 = FACE_BOUND('',#690,.T.);
#690 = EDGE_LOOP('',(#691,#702,#708,#709));
#691 = ORIENTED_EDGE('',*,*,#692,.F.);
#692 = EDGE_CURVE('',#693,#695,#697,.T.);
#693 = VERTEX_POINT('',#694);
#694 = CARTESIAN_POINT('',(-13.675,-16.9,-6.));
#695 = VERTEX_POINT('',#696);
#696 = CARTESIAN_POINT('',(-6.525,-24.05,-6.));
#697 = CIRCLE('',#698,7.15);
#698 = AXIS2_PLACEMENT_3D('',#699,#700,#701);
#699 = CARTESIAN_POINT('',(-6.525,-16.9,-6.));
#700 = DIRECTION('',(0.,0.,1.));
#701 = DIRECTION('',(-1.,9.937660640001E-16,0.));
#702 = ORIENTED_EDGE('',*,*,#703,.T.);
#703 = EDGE_CURVE('',#693,#321,#704,.T.);
#704 = LINE('',#705,#706);
#705 = CARTESIAN_POINT('',(-13.675,-16.9,-6.));
#706 = VECTOR('',#707,1.);
#707 = DIRECTION('',(0.,0.,1.));
#708 = ORIENTED_EDGE('',*,*,#320,.F.);
#709 = ORIENTED_EDGE('',*,*,#710,.F.);
#710 = EDGE_CURVE('',#695,#313,#711,.T.);
#711 = LINE('',#712,#713);
#712 = CARTESIAN_POINT('',(-6.525,-24.05,-6.));
#713 = VECTOR('',#714,1.);
#714 = DIRECTION('',(0.,0.,1.));
#715 = CYLINDRICAL_SURFACE('',#716,7.15);
#716 = AXIS2_PLACEMENT_3D('',#717,#718,#719);
#717 = CARTESIAN_POINT('',(-6.525,-16.9,-6.));
#718 = DIRECTION('',(-0.,-0.,-1.));
#719 = DIRECTION('',(-1.,9.937660640001E-16,0.));
#720 = ADVANCED_FACE('',(#721),#739,.T.);
#721 = FACE_BOUND('',#722,.T.);
#722 = EDGE_LOOP('',(#723,#731,#732,#733));
#723 = ORIENTED_EDGE('',*,*,#724,.F.);
#724 = EDGE_CURVE('',#695,#725,#727,.T.);
#725 = VERTEX_POINT('',#726);
#726 = CARTESIAN_POINT('',(6.525,-24.05,-6.));
#727 = LINE('',#728,#729);
#728 = CARTESIAN_POINT('',(-6.525,-24.05,-6.));
#729 = VECTOR('',#730,1.);
#730 = DIRECTION('',(1.,0.,0.));
#731 = ORIENTED_EDGE('',*,*,#710,.T.);
#732 = ORIENTED_EDGE('',*,*,#312,.F.);
#733 = ORIENTED_EDGE('',*,*,#734,.F.);
#734 = EDGE_CURVE('',#725,#304,#735,.T.);
#735 = LINE('',#736,#737);
#736 = CARTESIAN_POINT('',(6.525,-24.05,-6.));
#737 = VECTOR('',#738,1.);
#738 = DIRECTION('',(0.,0.,1.));
#739 = PLANE('',#740);
#740 = AXIS2_PLACEMENT_3D('',#741,#742,#743);
#741 = CARTESIAN_POINT('',(-6.525,-24.05,-6.));
#742 = DIRECTION('',(0.,1.,0.));
#743 = DIRECTION('',(1.,0.,0.));
#744 = ADVANCED_FACE('',(#745),#764,.F.);
#745 = FACE_BOUND('',#746,.T.);
#746 = EDGE_LOOP('',(#747,#756,#757,#758));
#747 = ORIENTED_EDGE('',*,*,#748,.F.);
#748 = EDGE_CURVE('',#725,#749,#751,.T.);
#749 = VERTEX_POINT('',#750);
#750 = CARTESIAN_POINT('',(13.675,-16.9,-6.));
#751 = CIRCLE('',#752,7.15);
#752 = AXIS2_PLACEMENT_3D('',#753,#754,#755);
#753 = CARTESIAN_POINT('',(6.525,-16.9,-6.));
#754 = DIRECTION('',(0.,0.,1.));
#755 = DIRECTION('',(-7.453245480001E-16,-1.,0.));
#756 = ORIENTED_EDGE('',*,*,#734,.T.);
#757 = ORIENTED_EDGE('',*,*,#303,.F.);
#758 = ORIENTED_EDGE('',*,*,#759,.F.);
#759 = EDGE_CURVE('',#749,#296,#760,.T.);
#760 = LINE('',#761,#762);
#761 = CARTESIAN_POINT('',(13.675,-16.9,-6.));
#762 = VECTOR('',#763,1.);
#763 = DIRECTION('',(0.,0.,1.));
#764 = CYLINDRICAL_SURFACE('',#765,7.15);
#765 = AXIS2_PLACEMENT_3D('',#766,#767,#768);
#766 = CARTESIAN_POINT('',(6.525,-16.9,-6.));
#767 = DIRECTION('',(-0.,-0.,-1.));
#768 = DIRECTION('',(-7.453245480001E-16,-1.,0.));
#769 = ADVANCED_FACE('',(#770),#790,.T.);
#770 = FACE_BOUND('',#771,.T.);
#771 = EDGE_LOOP('',(#772,#773,#774,#775,#781,#782,#783,#784));
#772 = ORIENTED_EDGE('',*,*,#692,.T.);
#773 = ORIENTED_EDGE('',*,*,#724,.T.);
#774 = ORIENTED_EDGE('',*,*,#748,.T.);
#775 = ORIENTED_EDGE('',*,*,#776,.T.);
#776 = EDGE_CURVE('',#749,#450,#777,.T.);
#777 = LINE('',#778,#779);
#778 = CARTESIAN_POINT('',(13.675,-16.9,-6.));
#779 = VECTOR('',#780,1.);
#780 = DIRECTION('',(0.,1.,0.));
#781 = ORIENTED_EDGE('',*,*,#466,.T.);
#782 = ORIENTED_EDGE('',*,*,#597,.F.);
#783 = ORIENTED_EDGE('',*,*,#579,.T.);
#784 = ORIENTED_EDGE('',*,*,#785,.T.);
#785 = EDGE_CURVE('',#572,#693,#786,.T.);
#786 = LINE('',#787,#788);
#787 = CARTESIAN_POINT('',(-13.675,16.9,-6.));
#788 = VECTOR('',#789,1.);
#789 = DIRECTION('',(0.,-1.,0.));
#790 = PLANE('',#791);
#791 = AXIS2_PLACEMENT_3D('',#792,#793,#794);
#792 = CARTESIAN_POINT('',(3.601244352786E-16,7.202488705572E-16,-6.));
#793 = DIRECTION('',(0.,0.,1.));
#794 = DIRECTION('',(1.,0.,-0.));
#795 = ADVANCED_FACE('',(#796),#816,.T.);
#796 = FACE_BOUND('',#797,.T.);
#797 = EDGE_LOOP('',(#798,#804,#805,#806,#807,#813,#814,#815));
#798 = ORIENTED_EDGE('',*,*,#799,.T.);
#799 = EDGE_CURVE('',#668,#538,#800,.T.);
#800 = LINE('',#801,#802);
#801 = CARTESIAN_POINT('',(-13.675,16.9,-6.));
#802 = VECTOR('',#803,1.);
#803 = DIRECTION('',(0.,-1.,0.));
#804 = ORIENTED_EDGE('',*,*,#547,.T.);
#805 = ORIENTED_EDGE('',*,*,#523,.F.);
#806 = ORIENTED_EDGE('',*,*,#498,.T.);
#807 = ORIENTED_EDGE('',*,*,#808,.T.);
#808 = EDGE_CURVE('',#491,#612,#809,.T.);
#809 = LINE('',#810,#811);
#810 = CARTESIAN_POINT('',(13.675,-16.9,-6.));
#811 = VECTOR('',#812,1.);
#812 = DIRECTION('',(0.,1.,0.));
#813 = ORIENTED_EDGE('',*,*,#611,.T.);
#814 = ORIENTED_EDGE('',*,*,#643,.T.);
#815 = ORIENTED_EDGE('',*,*,#667,.T.);
#816 = PLANE('',#817);
#817 = AXIS2_PLACEMENT_3D('',#818,#819,#820);
#818 = CARTESIAN_POINT('',(3.601244352786E-16,7.202488705572E-16,-6.));
#819 = DIRECTION('',(0.,0.,1.));
#820 = DIRECTION('',(1.,0.,-0.));
#821 = ADVANCED_FACE('',(#822),#832,.T.);
#822 = FACE_BOUND('',#823,.T.);
#823 = EDGE_LOOP('',(#824,#825,#826,#827,#828,#829,#830,#831));
#824 = ORIENTED_EDGE('',*,*,#490,.F.);
#825 = ORIENTED_EDGE('',*,*,#234,.T.);
#826 = ORIENTED_EDGE('',*,*,#449,.T.);
#827 = ORIENTED_EDGE('',*,*,#776,.F.);
#828 = ORIENTED_EDGE('',*,*,#759,.T.);
#829 = ORIENTED_EDGE('',*,*,#293,.F.);
#830 = ORIENTED_EDGE('',*,*,#622,.F.);
#831 = ORIENTED_EDGE('',*,*,#808,.F.);
#832 = PLANE('',#833);
#833 = AXIS2_PLACEMENT_3D('',#834,#835,#836);
#834 = CARTESIAN_POINT('',(13.675,-2.600053921839E-17,-7.989110070258));
#835 = DIRECTION('',(-1.,-0.,-0.));
#836 = DIRECTION('',(0.,0.,-1.));
#837 = ADVANCED_FACE('',(#838),#848,.T.);
#838 = FACE_BOUND('',#839,.T.);
#839 = EDGE_LOOP('',(#840,#841,#842,#843,#844,#845,#846,#847));
#840 = ORIENTED_EDGE('',*,*,#571,.F.);
#841 = ORIENTED_EDGE('',*,*,#200,.T.);
#842 = ORIENTED_EDGE('',*,*,#537,.T.);
#843 = ORIENTED_EDGE('',*,*,#799,.F.);
#844 = ORIENTED_EDGE('',*,*,#678,.T.);
#845 = ORIENTED_EDGE('',*,*,#329,.F.);
#846 = ORIENTED_EDGE('',*,*,#703,.F.);
#847 = ORIENTED_EDGE('',*,*,#785,.F.);
#848 = PLANE('',#849);
#849 = AXIS2_PLACEMENT_3D('',#850,#851,#852);
#850 = CARTESIAN_POINT('',(-13.675,2.600053921839E-17,-7.989110070258));
#851 = DIRECTION('',(1.,0.,0.));
#852 = DIRECTION('',(-0.,0.,1.));
#853 = ( GEOMETRIC_REPRESENTATION_CONTEXT(3) 
GLOBAL_UNCERTAINTY_ASSIGNED_CONTEXT((#857)) GLOBAL_UNIT_ASSIGNED_CONTEXT
((#854,#855,#856)) REPRESENTATION_CONTEXT('Context #1',
  '3D Context with UNIT and UNCERTAINTY') );
#854 = ( LENGTH_UNIT() NAMED_UNIT(*) SI_UNIT(.MILLI.,.METRE.) );
#855 = ( NAMED_UNIT(*) PLANE_ANGLE_UNIT() SI_UNIT($,.RADIAN.) );
#856 = ( NAMED_UNIT(*) SI_UNIT($,.STERADIAN.) SOLID_ANGLE_UNIT() );
#857 = UNCERTAINTY_MEASURE_WITH_UNIT(LENGTH_MEASURE(1.E-07),#854,
  'distance_accuracy_value','confusion accuracy');
#858 = PRODUCT_RELATED_PRODUCT_CATEGORY('part',$,(#7));
ENDSEC;
END-ISO-10303-21;
