ISO-10303-21;
HEADER;
FILE_DESCRIPTION(('FreeCAD Model'),'2;1');
FILE_NAME('Open CASCADE Shape Model','2026-10-07T17:57:25',('FreeCAD'),(
    'FreeCAD'),'Open CASCADE STEP processor 7.8','FreeCAD','Unknown');
FILE_SCHEMA(('AUTOMOTIVE_DESIGN { 1 0 10303 214 1 1 1 1 }'));
ENDSEC;
DATA;
#1 = APPLICATION_PROTOCOL_DEFINITION('international standard',
  'automotive_design',2000,#2);
#2 = APPLICATION_CONTEXT(
  'core data for automotive mechanical design processes');
#3 = SHAPE_DEFINITION_REPRESENTATION(#4,#10);
#4 = PRODUCT_DEFINITION_SHAPE('','',#5);
#5 = PRODUCT_DEFINITION('design','',#6,#9);
#6 = PRODUCT_DEFINITION_FORMATION('','',#7);
#7 = PRODUCT('Open CASCADE STEP translator 7.8 2',
  'Open CASCADE STEP translator 7.8 2','',(#8));
#8 = PRODUCT_CONTEXT('',#2,'mechanical');
#9 = PRODUCT_DEFINITION_CONTEXT('part definition',#2,'design');
#10 = ADVANCED_BREP_SHAPE_REPRESENTATION('',(#11,#15),#1721);
#11 = AXIS2_PLACEMENT_3D('',#12,#13,#14);
#12 = CARTESIAN_POINT('',(0.,0.,0.));
#13 = DIRECTION('',(0.,0.,1.));
#14 = DIRECTION('',(1.,0.,-0.));
#15 = MANIFOLD_SOLID_BREP('',#16);
#16 = CLOSED_SHELL('',(#17,#163,#196,#229,#262,#334,#406,#440,#474,#491,
    #523,#547,#572,#596,#621,#645,#670,#687,#704,#755,#786,#833,#857,
    #881,#898,#915,#939,#986,#1010,#1034,#1051,#1075,#1092,#1179,#1211,
    #1235,#1260,#1284,#1309,#1333,#1358,#1375,#1397,#1414,#1431,#1448,
    #1460,#1477,#1489,#1535,#1559,#1576,#1593,#1634,#1658,#1675,#1687,
    #1699,#1710));
#17 = ADVANCED_FACE('',(#18,#88),#158,.T.);
#18 = FACE_BOUND('',#19,.T.);
#19 = EDGE_LOOP('',(#20,#30,#39,#47,#56,#64,#73,#81));
#20 = ORIENTED_EDGE('',*,*,#21,.T.);
#21 = EDGE_CURVE('',#22,#24,#26,.T.);
#22 = VERTEX_POINT('',#23);
#23 = CARTESIAN_POINT('',(-6.525,-23.4,8.));
#24 = VERTEX_POINT('',#25);
#25 = CARTESIAN_POINT('',(6.525,-23.4,8.));
#26 = LINE('',#27,#28);
#27 = CARTESIAN_POINT('',(-6.525,-23.4,8.));
#28 = VECTOR('',#29,1.);
#29 = DIRECTION('',(1.,0.,0.));
#30 = ORIENTED_EDGE('',*,*,#31,.T.);
#31 = EDGE_CURVE('',#24,#32,#34,.T.);
#32 = VERTEX_POINT('',#33);
#33 = CARTESIAN_POINT('',(13.425,-16.5,8.));
#34 = CIRCLE('',#35,6.9);
#35 = AXIS2_PLACEMENT_3D('',#36,#37,#38);
#36 = CARTESIAN_POINT('',(6.525,-16.5,8.));
#37 = DIRECTION('',(0.,0.,1.));
#38 = DIRECTION('',(0.,-1.,0.));
#39 = ORIENTED_EDGE('',*,*,#40,.T.);
#40 = EDGE_CURVE('',#32,#41,#43,.T.);
#41 = VERTEX_POINT('',#42);
#42 = CARTESIAN_POINT('',(13.425,16.5,8.));
#43 = LINE('',#44,#45);
#44 = CARTESIAN_POINT('',(13.425,-16.5,8.));
#45 = VECTOR('',#46,1.);
#46 = DIRECTION('',(0.,1.,0.));
#47 = ORIENTED_EDGE('',*,*,#48,.T.);
#48 = EDGE_CURVE('',#41,#49,#51,.T.);
#49 = VERTEX_POINT('',#50);
#50 = CARTESIAN_POINT('',(6.525,23.4,8.));
#51 = CIRCLE('',#52,6.9);
#52 = AXIS2_PLACEMENT_3D('',#53,#54,#55);
#53 = CARTESIAN_POINT('',(6.525,16.5,8.));
#54 = DIRECTION('',(0.,0.,1.));
#55 = DIRECTION('',(1.,0.,-0.));
#56 = ORIENTED_EDGE('',*,*,#57,.T.);
#57 = EDGE_CURVE('',#49,#58,#60,.T.);
#58 = VERTEX_POINT('',#59);
#59 = CARTESIAN_POINT('',(-6.525,23.4,8.));
#60 = LINE('',#61,#62);
#61 = CARTESIAN_POINT('',(6.525,23.4,8.));
#62 = VECTOR('',#63,1.);
#63 = DIRECTION('',(-1.,0.,0.));
#64 = ORIENTED_EDGE('',*,*,#65,.T.);
#65 = EDGE_CURVE('',#58,#66,#68,.T.);
#66 = VERTEX_POINT('',#67);
#67 = CARTESIAN_POINT('',(-13.425,16.5,8.));
#68 = CIRCLE('',#69,6.9);
#69 = AXIS2_PLACEMENT_3D('',#70,#71,#72);
#70 = CARTESIAN_POINT('',(-6.525,16.5,8.));
#71 = DIRECTION('',(0.,-0.,1.));
#72 = DIRECTION('',(0.,1.,0.));
#73 = ORIENTED_EDGE('',*,*,#74,.T.);
#74 = EDGE_CURVE('',#66,#75,#77,.T.);
#75 = VERTEX_POINT('',#76);
#76 = CARTESIAN_POINT('',(-13.425,-16.5,8.));
#77 = LINE('',#78,#79);
#78 = CARTESIAN_POINT('',(-13.425,16.5,8.));
#79 = VECTOR('',#80,1.);
#80 = DIRECTION('',(0.,-1.,0.));
#81 = ORIENTED_EDGE('',*,*,#82,.T.);
#82 = EDGE_CURVE('',#75,#22,#83,.T.);
#83 = CIRCLE('',#84,6.9);
#84 = AXIS2_PLACEMENT_3D('',#85,#86,#87);
#85 = CARTESIAN_POINT('',(-6.525,-16.5,8.));
#86 = DIRECTION('',(0.,0.,1.));
#87 = DIRECTION('',(-1.,0.,0.));
#88 = FACE_BOUND('',#89,.T.);
#89 = EDGE_LOOP('',(#90,#101,#109,#118,#126,#135,#143,#152));
#90 = ORIENTED_EDGE('',*,*,#91,.T.);
#91 = EDGE_CURVE('',#92,#94,#96,.T.);
#92 = VERTEX_POINT('',#93);
#93 = CARTESIAN_POINT('',(12.425,-16.5,8.));
#94 = VERTEX_POINT('',#95);
#95 = CARTESIAN_POINT('',(6.525,-22.4,8.));
#96 = CIRCLE('',#97,5.9);
#97 = AXIS2_PLACEMENT_3D('',#98,#99,#100);
#98 = CARTESIAN_POINT('',(6.525,-16.5,8.));
#99 = DIRECTION('',(-0.,0.,-1.));
#100 = DIRECTION('',(-9.032322912205E-16,-1.,0.));
#101 = ORIENTED_EDGE('',*,*,#102,.T.);
#102 = EDGE_CURVE('',#94,#103,#105,.T.);
#103 = VERTEX_POINT('',#104);
#104 = CARTESIAN_POINT('',(-6.525,-22.4,8.));
#105 = LINE('',#106,#107);
#106 = CARTESIAN_POINT('',(-3.2625,-22.4,8.));
#107 = VECTOR('',#108,1.);
#108 = DIRECTION('',(-1.,0.,0.));
#109 = ORIENTED_EDGE('',*,*,#110,.T.);
#110 = EDGE_CURVE('',#103,#111,#113,.T.);
#111 = VERTEX_POINT('',#112);
#112 = CARTESIAN_POINT('',(-12.425,-16.5,8.));
#113 = CIRCLE('',#114,5.9);
#114 = AXIS2_PLACEMENT_3D('',#115,#116,#117);
#115 = CARTESIAN_POINT('',(-6.525,-16.5,8.));
#116 = DIRECTION('',(-0.,0.,-1.));
#117 = DIRECTION('',(-1.,1.204309721627E-15,0.));
#118 = ORIENTED_EDGE('',*,*,#119,.T.);
#119 = EDGE_CURVE('',#111,#120,#122,.T.);
#120 = VERTEX_POINT('',#121);
#121 = CARTESIAN_POINT('',(-12.425,16.5,8.));
#122 = LINE('',#123,#124);
#123 = CARTESIAN_POINT('',(-12.425,8.25,8.));
#124 = VECTOR('',#125,1.);
#125 = DIRECTION('',(-0.,1.,0.));
#126 = ORIENTED_EDGE('',*,*,#127,.T.);
#127 = EDGE_CURVE('',#120,#128,#130,.T.);
#128 = VERTEX_POINT('',#129);
#129 = CARTESIAN_POINT('',(-6.525,22.4,8.));
#130 = CIRCLE('',#131,5.9);
#131 = AXIS2_PLACEMENT_3D('',#132,#133,#134);
#132 = CARTESIAN_POINT('',(-6.525,16.5,8.));
#133 = DIRECTION('',(0.,-0.,-1.));
#134 = DIRECTION('',(9.032322912205E-16,1.,-0.));
#135 = ORIENTED_EDGE('',*,*,#136,.T.);
#136 = EDGE_CURVE('',#128,#137,#139,.T.);
#137 = VERTEX_POINT('',#138);
#138 = CARTESIAN_POINT('',(6.525,22.4,8.));
#139 = LINE('',#140,#141);
#140 = CARTESIAN_POINT('',(3.2625,22.4,8.));
#141 = VECTOR('',#142,1.);
#142 = DIRECTION('',(1.,0.,-0.));
#143 = ORIENTED_EDGE('',*,*,#144,.T.);
#144 = EDGE_CURVE('',#137,#145,#147,.T.);
#145 = VERTEX_POINT('',#146);
#146 = CARTESIAN_POINT('',(12.425,16.5,8.));
#147 = CIRCLE('',#148,5.9);
#148 = AXIS2_PLACEMENT_3D('',#149,#150,#151);
#149 = CARTESIAN_POINT('',(6.525,16.5,8.));
#150 = DIRECTION('',(0.,-0.,-1.));
#151 = DIRECTION('',(1.,-1.204309721627E-15,0.));
#152 = ORIENTED_EDGE('',*,*,#153,.T.);
#153 = EDGE_CURVE('',#145,#92,#154,.T.);
#154 = LINE('',#155,#156);
#155 = CARTESIAN_POINT('',(12.425,-8.25,8.));
#156 = VECTOR('',#157,1.);
#157 = DIRECTION('',(0.,-1.,0.));
#158 = PLANE('',#159);
#159 = AXIS2_PLACEMENT_3D('',#160,#161,#162);
#160 = CARTESIAN_POINT('',(-1.184585074032E-16,3.685375785876E-16,8.));
#161 = DIRECTION('',(0.,0.,1.));
#162 = DIRECTION('',(1.,0.,-0.));
#163 = ADVANCED_FACE('',(#164),#191,.F.);
#164 = FACE_BOUND('',#165,.F.);
#165 = EDGE_LOOP('',(#166,#175,#176,#185));
#166 = ORIENTED_EDGE('',*,*,#167,.T.);
#167 = EDGE_CURVE('',#168,#22,#170,.T.);
#168 = VERTEX_POINT('',#169);
#169 = CARTESIAN_POINT('',(-8.174242250247,-23.2,2.4));
#170 = ELLIPSE('',#171,193.32317502048,6.9);
#171 = AXIS2_PLACEMENT_3D('',#172,#173,#174);
#172 = CARTESIAN_POINT('',(-6.525,-16.5,-185.2));
#173 = DIRECTION('',(0.,0.999362854348,3.569153051241E-02));
#174 = DIRECTION('',(0.,3.569153051241E-02,-0.999362854348));
#175 = ORIENTED_EDGE('',*,*,#21,.T.);
#176 = ORIENTED_EDGE('',*,*,#177,.T.);
#177 = EDGE_CURVE('',#24,#178,#180,.T.);
#178 = VERTEX_POINT('',#179);
#179 = CARTESIAN_POINT('',(8.174242250247,-23.2,2.4));
#180 = ELLIPSE('',#181,193.32317502048,6.9);
#181 = AXIS2_PLACEMENT_3D('',#182,#183,#184);
#182 = CARTESIAN_POINT('',(6.525,-16.5,-185.2));
#183 = DIRECTION('',(0.,0.999362854348,3.569153051241E-02));
#184 = DIRECTION('',(0.,3.569153051241E-02,-0.999362854348));
#185 = ORIENTED_EDGE('',*,*,#186,.F.);
#186 = EDGE_CURVE('',#168,#178,#187,.T.);
#187 = LINE('',#188,#189);
#188 = CARTESIAN_POINT('',(-14.425,-23.2,2.4));
#189 = VECTOR('',#190,1.);
#190 = DIRECTION('',(1.,0.,0.));
#191 = PLANE('',#192);
#192 = AXIS2_PLACEMENT_3D('',#193,#194,#195);
#193 = CARTESIAN_POINT('',(-14.425,-23.4,8.));
#194 = DIRECTION('',(-0.,0.999362854348,3.569153051241E-02));
#195 = DIRECTION('',(0.,3.569153051241E-02,-0.999362854348));
#196 = ADVANCED_FACE('',(#197),#224,.T.);
#197 = FACE_BOUND('',#198,.F.);
#198 = EDGE_LOOP('',(#199,#210,#216,#217,#218));
#199 = ORIENTED_EDGE('',*,*,#200,.F.);
#200 = EDGE_CURVE('',#201,#203,#205,.T.);
#201 = VERTEX_POINT('',#202);
#202 = CARTESIAN_POINT('',(-13.425,-16.5,-4.2));
#203 = VERTEX_POINT('',#204);
#204 = CARTESIAN_POINT('',(-8.174242250247,-23.2,-4.2));
#205 = CIRCLE('',#206,6.9);
#206 = AXIS2_PLACEMENT_3D('',#207,#208,#209);
#207 = CARTESIAN_POINT('',(-6.525,-16.5,-4.2));
#208 = DIRECTION('',(0.,0.,1.));
#209 = DIRECTION('',(-1.,0.,0.));
#210 = ORIENTED_EDGE('',*,*,#211,.T.);
#211 = EDGE_CURVE('',#201,#75,#212,.T.);
#212 = LINE('',#213,#214);
#213 = CARTESIAN_POINT('',(-13.425,-16.5,-4.2));
#214 = VECTOR('',#215,1.);
#215 = DIRECTION('',(0.,0.,1.));
#216 = ORIENTED_EDGE('',*,*,#82,.T.);
#217 = ORIENTED_EDGE('',*,*,#167,.F.);
#218 = ORIENTED_EDGE('',*,*,#219,.T.);
#219 = EDGE_CURVE('',#168,#203,#220,.T.);
#220 = LINE('',#221,#222);
#221 = CARTESIAN_POINT('',(-8.174242250247,-23.2,-4.2));
#222 = VECTOR('',#223,1.);
#223 = DIRECTION('',(-0.,-0.,-1.));
#224 = CYLINDRICAL_SURFACE('',#225,6.9);
#225 = AXIS2_PLACEMENT_3D('',#226,#227,#228);
#226 = CARTESIAN_POINT('',(-6.525,-16.5,-4.2));
#227 = DIRECTION('',(-0.,-0.,-1.));
#228 = DIRECTION('',(-1.,0.,0.));
#229 = ADVANCED_FACE('',(#230),#257,.T.);
#230 = FACE_BOUND('',#231,.F.);
#231 = EDGE_LOOP('',(#232,#233,#234,#242,#251));
#232 = ORIENTED_EDGE('',*,*,#177,.F.);
#233 = ORIENTED_EDGE('',*,*,#31,.T.);
#234 = ORIENTED_EDGE('',*,*,#235,.F.);
#235 = EDGE_CURVE('',#236,#32,#238,.T.);
#236 = VERTEX_POINT('',#237);
#237 = CARTESIAN_POINT('',(13.425,-16.5,-4.2));
#238 = LINE('',#239,#240);
#239 = CARTESIAN_POINT('',(13.425,-16.5,-4.2));
#240 = VECTOR('',#241,1.);
#241 = DIRECTION('',(0.,0.,1.));
#242 = ORIENTED_EDGE('',*,*,#243,.F.);
#243 = EDGE_CURVE('',#244,#236,#246,.T.);
#244 = VERTEX_POINT('',#245);
#245 = CARTESIAN_POINT('',(8.174242250247,-23.2,-4.2));
#246 = CIRCLE('',#247,6.9);
#247 = AXIS2_PLACEMENT_3D('',#248,#249,#250);
#248 = CARTESIAN_POINT('',(6.525,-16.5,-4.2));
#249 = DIRECTION('',(0.,0.,1.));
#250 = DIRECTION('',(0.,-1.,0.));
#251 = ORIENTED_EDGE('',*,*,#252,.F.);
#252 = EDGE_CURVE('',#178,#244,#253,.T.);
#253 = LINE('',#254,#255);
#254 = CARTESIAN_POINT('',(8.174242250247,-23.2,-4.2));
#255 = VECTOR('',#256,1.);
#256 = DIRECTION('',(-0.,-0.,-1.));
#257 = CYLINDRICAL_SURFACE('',#258,6.9);
#258 = AXIS2_PLACEMENT_3D('',#259,#260,#261);
#259 = CARTESIAN_POINT('',(6.525,-16.5,-4.2));
#260 = DIRECTION('',(-0.,-0.,-1.));
#261 = DIRECTION('',(0.,-1.,0.));
#262 = ADVANCED_FACE('',(#263),#329,.T.);
#263 = FACE_BOUND('',#264,.T.);
#264 = EDGE_LOOP('',(#265,#266,#267,#275,#283,#291,#299,#307,#315,#323)
  );
#265 = ORIENTED_EDGE('',*,*,#211,.T.);
#266 = ORIENTED_EDGE('',*,*,#74,.F.);
#267 = ORIENTED_EDGE('',*,*,#268,.F.);
#268 = EDGE_CURVE('',#269,#66,#271,.T.);
#269 = VERTEX_POINT('',#270);
#270 = CARTESIAN_POINT('',(-13.425,16.5,-4.2));
#271 = LINE('',#272,#273);
#272 = CARTESIAN_POINT('',(-13.425,16.5,-4.2));
#273 = VECTOR('',#274,1.);
#274 = DIRECTION('',(0.,0.,1.));
#275 = ORIENTED_EDGE('',*,*,#276,.F.);
#276 = EDGE_CURVE('',#277,#269,#279,.T.);
#277 = VERTEX_POINT('',#278);
#278 = CARTESIAN_POINT('',(-13.425,16.5,-8.));
#279 = LINE('',#280,#281);
#280 = CARTESIAN_POINT('',(-13.425,16.5,-8.));
#281 = VECTOR('',#282,1.);
#282 = DIRECTION('',(0.,0.,1.));
#283 = ORIENTED_EDGE('',*,*,#284,.F.);
#284 = EDGE_CURVE('',#285,#277,#287,.T.);
#285 = VERTEX_POINT('',#286);
#286 = CARTESIAN_POINT('',(-13.425,3.,-8.));
#287 = LINE('',#288,#289);
#288 = CARTESIAN_POINT('',(-13.425,-16.5,-8.));
#289 = VECTOR('',#290,1.);
#290 = DIRECTION('',(-0.,1.,0.));
#291 = ORIENTED_EDGE('',*,*,#292,.T.);
#292 = EDGE_CURVE('',#285,#293,#295,.T.);
#293 = VERTEX_POINT('',#294);
#294 = CARTESIAN_POINT('',(-13.425,3.,-7.));
#295 = LINE('',#296,#297);
#296 = CARTESIAN_POINT('',(-13.425,3.,-8.));
#297 = VECTOR('',#298,1.);
#298 = DIRECTION('',(0.,0.,1.));
#299 = ORIENTED_EDGE('',*,*,#300,.T.);
#300 = EDGE_CURVE('',#293,#301,#303,.T.);
#301 = VERTEX_POINT('',#302);
#302 = CARTESIAN_POINT('',(-13.425,-3.,-7.));
#303 = LINE('',#304,#305);
#304 = CARTESIAN_POINT('',(-13.425,-9.75,-7.));
#305 = VECTOR('',#306,1.);
#306 = DIRECTION('',(0.,-1.,0.));
#307 = ORIENTED_EDGE('',*,*,#308,.F.);
#308 = EDGE_CURVE('',#309,#301,#311,.T.);
#309 = VERTEX_POINT('',#310);
#310 = CARTESIAN_POINT('',(-13.425,-3.,-8.));
#311 = LINE('',#312,#313);
#312 = CARTESIAN_POINT('',(-13.425,-3.,-8.));
#313 = VECTOR('',#314,1.);
#314 = DIRECTION('',(0.,0.,1.));
#315 = ORIENTED_EDGE('',*,*,#316,.F.);
#316 = EDGE_CURVE('',#317,#309,#319,.T.);
#317 = VERTEX_POINT('',#318);
#318 = CARTESIAN_POINT('',(-13.425,-16.5,-8.));
#319 = LINE('',#320,#321);
#320 = CARTESIAN_POINT('',(-13.425,-16.5,-8.));
#321 = VECTOR('',#322,1.);
#322 = DIRECTION('',(-0.,1.,0.));
#323 = ORIENTED_EDGE('',*,*,#324,.T.);
#324 = EDGE_CURVE('',#317,#201,#325,.T.);
#325 = LINE('',#326,#327);
#326 = CARTESIAN_POINT('',(-13.425,-16.5,-8.));
#327 = VECTOR('',#328,1.);
#328 = DIRECTION('',(0.,0.,1.));
#329 = PLANE('',#330);
#330 = AXIS2_PLACEMENT_3D('',#331,#332,#333);
#331 = CARTESIAN_POINT('',(-13.425,2.6645352591E-17,-9.E-02));
#332 = DIRECTION('',(-1.,-0.,-0.));
#333 = DIRECTION('',(0.,0.,-1.));
#334 = ADVANCED_FACE('',(#335),#401,.T.);
#335 = FACE_BOUND('',#336,.T.);
#336 = EDGE_LOOP('',(#337,#345,#346,#347,#355,#363,#371,#379,#387,#395)
  );
#337 = ORIENTED_EDGE('',*,*,#338,.T.);
#338 = EDGE_CURVE('',#339,#41,#341,.T.);
#339 = VERTEX_POINT('',#340);
#340 = CARTESIAN_POINT('',(13.425,16.5,-4.2));
#341 = LINE('',#342,#343);
#342 = CARTESIAN_POINT('',(13.425,16.5,-4.2));
#343 = VECTOR('',#344,1.);
#344 = DIRECTION('',(0.,0.,1.));
#345 = ORIENTED_EDGE('',*,*,#40,.F.);
#346 = ORIENTED_EDGE('',*,*,#235,.F.);
#347 = ORIENTED_EDGE('',*,*,#348,.F.);
#348 = EDGE_CURVE('',#349,#236,#351,.T.);
#349 = VERTEX_POINT('',#350);
#350 = CARTESIAN_POINT('',(13.425,-16.5,-8.));
#351 = LINE('',#352,#353);
#352 = CARTESIAN_POINT('',(13.425,-16.5,-8.));
#353 = VECTOR('',#354,1.);
#354 = DIRECTION('',(0.,0.,1.));
#355 = ORIENTED_EDGE('',*,*,#356,.T.);
#356 = EDGE_CURVE('',#349,#357,#359,.T.);
#357 = VERTEX_POINT('',#358);
#358 = CARTESIAN_POINT('',(13.425,-3.,-8.));
#359 = LINE('',#360,#361);
#360 = CARTESIAN_POINT('',(13.425,-16.5,-8.));
#361 = VECTOR('',#362,1.);
#362 = DIRECTION('',(-0.,1.,0.));
#363 = ORIENTED_EDGE('',*,*,#364,.T.);
#364 = EDGE_CURVE('',#357,#365,#367,.T.);
#365 = VERTEX_POINT('',#366);
#366 = CARTESIAN_POINT('',(13.425,-3.,-7.));
#367 = LINE('',#368,#369);
#368 = CARTESIAN_POINT('',(13.425,-3.,-8.));
#369 = VECTOR('',#370,1.);
#370 = DIRECTION('',(0.,0.,1.));
#371 = ORIENTED_EDGE('',*,*,#372,.F.);
#372 = EDGE_CURVE('',#373,#365,#375,.T.);
#373 = VERTEX_POINT('',#374);
#374 = CARTESIAN_POINT('',(13.425,3.,-7.));
#375 = LINE('',#376,#377);
#376 = CARTESIAN_POINT('',(13.425,-9.75,-7.));
#377 = VECTOR('',#378,1.);
#378 = DIRECTION('',(0.,-1.,0.));
#379 = ORIENTED_EDGE('',*,*,#380,.F.);
#380 = EDGE_CURVE('',#381,#373,#383,.T.);
#381 = VERTEX_POINT('',#382);
#382 = CARTESIAN_POINT('',(13.425,3.,-8.));
#383 = LINE('',#384,#385);
#384 = CARTESIAN_POINT('',(13.425,3.,-8.));
#385 = VECTOR('',#386,1.);
#386 = DIRECTION('',(0.,0.,1.));
#387 = ORIENTED_EDGE('',*,*,#388,.T.);
#388 = EDGE_CURVE('',#381,#389,#391,.T.);
#389 = VERTEX_POINT('',#390);
#390 = CARTESIAN_POINT('',(13.425,16.5,-8.));
#391 = LINE('',#392,#393);
#392 = CARTESIAN_POINT('',(13.425,-16.5,-8.));
#393 = VECTOR('',#394,1.);
#394 = DIRECTION('',(-0.,1.,0.));
#395 = ORIENTED_EDGE('',*,*,#396,.T.);
#396 = EDGE_CURVE('',#389,#339,#397,.T.);
#397 = LINE('',#398,#399);
#398 = CARTESIAN_POINT('',(13.425,16.5,-8.));
#399 = VECTOR('',#400,1.);
#400 = DIRECTION('',(0.,0.,1.));
#401 = PLANE('',#402);
#402 = AXIS2_PLACEMENT_3D('',#403,#404,#405);
#403 = CARTESIAN_POINT('',(13.425,-2.6645352591E-17,-9.E-02));
#404 = DIRECTION('',(1.,0.,0.));
#405 = DIRECTION('',(-0.,0.,1.));
#406 = ADVANCED_FACE('',(#407),#435,.T.);
#407 = FACE_BOUND('',#408,.F.);
#408 = EDGE_LOOP('',(#409,#418,#419,#420,#429));
#409 = ORIENTED_EDGE('',*,*,#410,.T.);
#410 = EDGE_CURVE('',#411,#58,#413,.T.);
#411 = VERTEX_POINT('',#412);
#412 = CARTESIAN_POINT('',(-8.174242250247,23.2,2.4));
#413 = ELLIPSE('',#414,193.32317502048,6.9);
#414 = AXIS2_PLACEMENT_3D('',#415,#416,#417);
#415 = CARTESIAN_POINT('',(-6.525,16.5,-185.2));
#416 = DIRECTION('',(0.,0.999362854348,-3.569153051241E-02));
#417 = DIRECTION('',(0.,-3.569153051241E-02,-0.999362854348));
#418 = ORIENTED_EDGE('',*,*,#65,.T.);
#419 = ORIENTED_EDGE('',*,*,#268,.F.);
#420 = ORIENTED_EDGE('',*,*,#421,.F.);
#421 = EDGE_CURVE('',#422,#269,#424,.T.);
#422 = VERTEX_POINT('',#423);
#423 = CARTESIAN_POINT('',(-8.174242250247,23.2,-4.2));
#424 = CIRCLE('',#425,6.9);
#425 = AXIS2_PLACEMENT_3D('',#426,#427,#428);
#426 = CARTESIAN_POINT('',(-6.525,16.5,-4.2));
#427 = DIRECTION('',(0.,-0.,1.));
#428 = DIRECTION('',(0.,1.,0.));
#429 = ORIENTED_EDGE('',*,*,#430,.F.);
#430 = EDGE_CURVE('',#411,#422,#431,.T.);
#431 = LINE('',#432,#433);
#432 = CARTESIAN_POINT('',(-8.174242250247,23.2,-4.2));
#433 = VECTOR('',#434,1.);
#434 = DIRECTION('',(-0.,0.,-1.));
#435 = CYLINDRICAL_SURFACE('',#436,6.9);
#436 = AXIS2_PLACEMENT_3D('',#437,#438,#439);
#437 = CARTESIAN_POINT('',(-6.525,16.5,-4.2));
#438 = DIRECTION('',(-0.,0.,-1.));
#439 = DIRECTION('',(0.,1.,0.));
#440 = ADVANCED_FACE('',(#441),#469,.T.);
#441 = FACE_BOUND('',#442,.F.);
#442 = EDGE_LOOP('',(#443,#452,#453,#454,#463));
#443 = ORIENTED_EDGE('',*,*,#444,.F.);
#444 = EDGE_CURVE('',#339,#445,#447,.T.);
#445 = VERTEX_POINT('',#446);
#446 = CARTESIAN_POINT('',(8.174242250247,23.2,-4.2));
#447 = CIRCLE('',#448,6.9);
#448 = AXIS2_PLACEMENT_3D('',#449,#450,#451);
#449 = CARTESIAN_POINT('',(6.525,16.5,-4.2));
#450 = DIRECTION('',(0.,0.,1.));
#451 = DIRECTION('',(1.,0.,-0.));
#452 = ORIENTED_EDGE('',*,*,#338,.T.);
#453 = ORIENTED_EDGE('',*,*,#48,.T.);
#454 = ORIENTED_EDGE('',*,*,#455,.T.);
#455 = EDGE_CURVE('',#49,#456,#458,.T.);
#456 = VERTEX_POINT('',#457);
#457 = CARTESIAN_POINT('',(8.174242250247,23.2,2.4));
#458 = ELLIPSE('',#459,193.32317502048,6.9);
#459 = AXIS2_PLACEMENT_3D('',#460,#461,#462);
#460 = CARTESIAN_POINT('',(6.525,16.5,-185.2));
#461 = DIRECTION('',(0.,0.999362854348,-3.569153051241E-02));
#462 = DIRECTION('',(0.,-3.569153051241E-02,-0.999362854348));
#463 = ORIENTED_EDGE('',*,*,#464,.T.);
#464 = EDGE_CURVE('',#456,#445,#465,.T.);
#465 = LINE('',#466,#467);
#466 = CARTESIAN_POINT('',(8.174242250247,23.2,-4.2));
#467 = VECTOR('',#468,1.);
#468 = DIRECTION('',(-0.,-0.,-1.));
#469 = CYLINDRICAL_SURFACE('',#470,6.9);
#470 = AXIS2_PLACEMENT_3D('',#471,#472,#473);
#471 = CARTESIAN_POINT('',(6.525,16.5,-4.2));
#472 = DIRECTION('',(-0.,-0.,-1.));
#473 = DIRECTION('',(1.,0.,-0.));
#474 = ADVANCED_FACE('',(#475),#486,.T.);
#475 = FACE_BOUND('',#476,.T.);
#476 = EDGE_LOOP('',(#477,#478,#479,#480));
#477 = ORIENTED_EDGE('',*,*,#410,.T.);
#478 = ORIENTED_EDGE('',*,*,#57,.F.);
#479 = ORIENTED_EDGE('',*,*,#455,.T.);
#480 = ORIENTED_EDGE('',*,*,#481,.F.);
#481 = EDGE_CURVE('',#411,#456,#482,.T.);
#482 = LINE('',#483,#484);
#483 = CARTESIAN_POINT('',(-14.425,23.2,2.4));
#484 = VECTOR('',#485,1.);
#485 = DIRECTION('',(1.,0.,0.));
#486 = PLANE('',#487);
#487 = AXIS2_PLACEMENT_3D('',#488,#489,#490);
#488 = CARTESIAN_POINT('',(-14.425,23.4,8.));
#489 = DIRECTION('',(0.,0.999362854348,-3.569153051241E-02));
#490 = DIRECTION('',(0.,-3.569153051241E-02,-0.999362854348));
#491 = ADVANCED_FACE('',(#492),#518,.F.);
#492 = FACE_BOUND('',#493,.T.);
#493 = EDGE_LOOP('',(#494,#505,#511,#512));
#494 = ORIENTED_EDGE('',*,*,#495,.F.);
#495 = EDGE_CURVE('',#496,#498,#500,.T.);
#496 = VERTEX_POINT('',#497);
#497 = CARTESIAN_POINT('',(6.525,-22.4,-1.6));
#498 = VERTEX_POINT('',#499);
#499 = CARTESIAN_POINT('',(12.425,-16.5,-1.6));
#500 = CIRCLE('',#501,5.9);
#501 = AXIS2_PLACEMENT_3D('',#502,#503,#504);
#502 = CARTESIAN_POINT('',(6.525,-16.5,-1.6));
#503 = DIRECTION('',(0.,0.,1.));
#504 = DIRECTION('',(-9.032322912205E-16,-1.,0.));
#505 = ORIENTED_EDGE('',*,*,#506,.T.);
#506 = EDGE_CURVE('',#496,#94,#507,.T.);
#507 = LINE('',#508,#509);
#508 = CARTESIAN_POINT('',(6.525,-22.4,-2.6));
#509 = VECTOR('',#510,1.);
#510 = DIRECTION('',(0.,0.,1.));
#511 = ORIENTED_EDGE('',*,*,#91,.F.);
#512 = ORIENTED_EDGE('',*,*,#513,.F.);
#513 = EDGE_CURVE('',#498,#92,#514,.T.);
#514 = LINE('',#515,#516);
#515 = CARTESIAN_POINT('',(12.425,-16.5,-2.6));
#516 = VECTOR('',#517,1.);
#517 = DIRECTION('',(0.,0.,1.));
#518 = CYLINDRICAL_SURFACE('',#519,5.9);
#519 = AXIS2_PLACEMENT_3D('',#520,#521,#522);
#520 = CARTESIAN_POINT('',(6.525,-16.5,-2.6));
#521 = DIRECTION('',(-0.,-0.,-1.));
#522 = DIRECTION('',(-9.032322912205E-16,-1.,0.));
#523 = ADVANCED_FACE('',(#524),#542,.T.);
#524 = FACE_BOUND('',#525,.T.);
#525 = EDGE_LOOP('',(#526,#534,#535,#536));
#526 = ORIENTED_EDGE('',*,*,#527,.F.);
#527 = EDGE_CURVE('',#498,#528,#530,.T.);
#528 = VERTEX_POINT('',#529);
#529 = CARTESIAN_POINT('',(12.425,16.5,-1.6));
#530 = LINE('',#531,#532);
#531 = CARTESIAN_POINT('',(12.425,-16.5,-1.6));
#532 = VECTOR('',#533,1.);
#533 = DIRECTION('',(0.,1.,0.));
#534 = ORIENTED_EDGE('',*,*,#513,.T.);
#535 = ORIENTED_EDGE('',*,*,#153,.F.);
#536 = ORIENTED_EDGE('',*,*,#537,.F.);
#537 = EDGE_CURVE('',#528,#145,#538,.T.);
#538 = LINE('',#539,#540);
#539 = CARTESIAN_POINT('',(12.425,16.5,-2.6));
#540 = VECTOR('',#541,1.);
#541 = DIRECTION('',(0.,0.,1.));
#542 = PLANE('',#543);
#543 = AXIS2_PLACEMENT_3D('',#544,#545,#546);
#544 = CARTESIAN_POINT('',(12.425,-16.5,-2.6));
#545 = DIRECTION('',(-1.,0.,0.));
#546 = DIRECTION('',(0.,1.,0.));
#547 = ADVANCED_FACE('',(#548),#567,.F.);
#548 = FACE_BOUND('',#549,.T.);
#549 = EDGE_LOOP('',(#550,#559,#560,#561));
#550 = ORIENTED_EDGE('',*,*,#551,.F.);
#551 = EDGE_CURVE('',#528,#552,#554,.T.);
#552 = VERTEX_POINT('',#553);
#553 = CARTESIAN_POINT('',(6.525,22.4,-1.6));
#554 = CIRCLE('',#555,5.9);
#555 = AXIS2_PLACEMENT_3D('',#556,#557,#558);
#556 = CARTESIAN_POINT('',(6.525,16.5,-1.6));
#557 = DIRECTION('',(0.,0.,1.));
#558 = DIRECTION('',(1.,-1.204309721627E-15,0.));
#559 = ORIENTED_EDGE('',*,*,#537,.T.);
#560 = ORIENTED_EDGE('',*,*,#144,.F.);
#561 = ORIENTED_EDGE('',*,*,#562,.F.);
#562 = EDGE_CURVE('',#552,#137,#563,.T.);
#563 = LINE('',#564,#565);
#564 = CARTESIAN_POINT('',(6.525,22.4,-2.6));
#565 = VECTOR('',#566,1.);
#566 = DIRECTION('',(0.,0.,1.));
#567 = CYLINDRICAL_SURFACE('',#568,5.9);
#568 = AXIS2_PLACEMENT_3D('',#569,#570,#571);
#569 = CARTESIAN_POINT('',(6.525,16.5,-2.6));
#570 = DIRECTION('',(-0.,-0.,-1.));
#571 = DIRECTION('',(1.,-1.204309721627E-15,0.));
#572 = ADVANCED_FACE('',(#573),#591,.T.);
#573 = FACE_BOUND('',#574,.T.);
#574 = EDGE_LOOP('',(#575,#583,#584,#585));
#575 = ORIENTED_EDGE('',*,*,#576,.F.);
#576 = EDGE_CURVE('',#552,#577,#579,.T.);
#577 = VERTEX_POINT('',#578);
#578 = CARTESIAN_POINT('',(-6.525,22.4,-1.6));
#579 = LINE('',#580,#581);
#580 = CARTESIAN_POINT('',(6.525,22.4,-1.6));
#581 = VECTOR('',#582,1.);
#582 = DIRECTION('',(-1.,0.,0.));
#583 = ORIENTED_EDGE('',*,*,#562,.T.);
#584 = ORIENTED_EDGE('',*,*,#136,.F.);
#585 = ORIENTED_EDGE('',*,*,#586,.F.);
#586 = EDGE_CURVE('',#577,#128,#587,.T.);
#587 = LINE('',#588,#589);
#588 = CARTESIAN_POINT('',(-6.525,22.4,-2.6));
#589 = VECTOR('',#590,1.);
#590 = DIRECTION('',(0.,0.,1.));
#591 = PLANE('',#592);
#592 = AXIS2_PLACEMENT_3D('',#593,#594,#595);
#593 = CARTESIAN_POINT('',(6.525,22.4,-2.6));
#594 = DIRECTION('',(0.,-1.,0.));
#595 = DIRECTION('',(-1.,0.,0.));
#596 = ADVANCED_FACE('',(#597),#616,.F.);
#597 = FACE_BOUND('',#598,.T.);
#598 = EDGE_LOOP('',(#599,#608,#609,#610));
#599 = ORIENTED_EDGE('',*,*,#600,.F.);
#600 = EDGE_CURVE('',#577,#601,#603,.T.);
#601 = VERTEX_POINT('',#602);
#602 = CARTESIAN_POINT('',(-12.425,16.5,-1.6));
#603 = CIRCLE('',#604,5.9);
#604 = AXIS2_PLACEMENT_3D('',#605,#606,#607);
#605 = CARTESIAN_POINT('',(-6.525,16.5,-1.6));
#606 = DIRECTION('',(0.,0.,1.));
#607 = DIRECTION('',(9.032322912205E-16,1.,-0.));
#608 = ORIENTED_EDGE('',*,*,#586,.T.);
#609 = ORIENTED_EDGE('',*,*,#127,.F.);
#610 = ORIENTED_EDGE('',*,*,#611,.F.);
#611 = EDGE_CURVE('',#601,#120,#612,.T.);
#612 = LINE('',#613,#614);
#613 = CARTESIAN_POINT('',(-12.425,16.5,-2.6));
#614 = VECTOR('',#615,1.);
#615 = DIRECTION('',(0.,0.,1.));
#616 = CYLINDRICAL_SURFACE('',#617,5.9);
#617 = AXIS2_PLACEMENT_3D('',#618,#619,#620);
#618 = CARTESIAN_POINT('',(-6.525,16.5,-2.6));
#619 = DIRECTION('',(-0.,-0.,-1.));
#620 = DIRECTION('',(9.032322912205E-16,1.,-0.));
#621 = ADVANCED_FACE('',(#622),#640,.T.);
#622 = FACE_BOUND('',#623,.T.);
#623 = EDGE_LOOP('',(#624,#632,#633,#634));
#624 = ORIENTED_EDGE('',*,*,#625,.F.);
#625 = EDGE_CURVE('',#601,#626,#628,.T.);
#626 = VERTEX_POINT('',#627);
#627 = CARTESIAN_POINT('',(-12.425,-16.5,-1.6));
#628 = LINE('',#629,#630);
#629 = CARTESIAN_POINT('',(-12.425,16.5,-1.6));
#630 = VECTOR('',#631,1.);
#631 = DIRECTION('',(0.,-1.,0.));
#632 = ORIENTED_EDGE('',*,*,#611,.T.);
#633 = ORIENTED_EDGE('',*,*,#119,.F.);
#634 = ORIENTED_EDGE('',*,*,#635,.F.);
#635 = EDGE_CURVE('',#626,#111,#636,.T.);
#636 = LINE('',#637,#638);
#637 = CARTESIAN_POINT('',(-12.425,-16.5,-2.6));
#638 = VECTOR('',#639,1.);
#639 = DIRECTION('',(0.,0.,1.));
#640 = PLANE('',#641);
#641 = AXIS2_PLACEMENT_3D('',#642,#643,#644);
#642 = CARTESIAN_POINT('',(-12.425,16.5,-2.6));
#643 = DIRECTION('',(1.,0.,-0.));
#644 = DIRECTION('',(0.,-1.,0.));
#645 = ADVANCED_FACE('',(#646),#665,.F.);
#646 = FACE_BOUND('',#647,.T.);
#647 = EDGE_LOOP('',(#648,#657,#658,#659));
#648 = ORIENTED_EDGE('',*,*,#649,.F.);
#649 = EDGE_CURVE('',#626,#650,#652,.T.);
#650 = VERTEX_POINT('',#651);
#651 = CARTESIAN_POINT('',(-6.525,-22.4,-1.6));
#652 = CIRCLE('',#653,5.9);
#653 = AXIS2_PLACEMENT_3D('',#654,#655,#656);
#654 = CARTESIAN_POINT('',(-6.525,-16.5,-1.6));
#655 = DIRECTION('',(0.,0.,1.));
#656 = DIRECTION('',(-1.,1.204309721627E-15,0.));
#657 = ORIENTED_EDGE('',*,*,#635,.T.);
#658 = ORIENTED_EDGE('',*,*,#110,.F.);
#659 = ORIENTED_EDGE('',*,*,#660,.F.);
#660 = EDGE_CURVE('',#650,#103,#661,.T.);
#661 = LINE('',#662,#663);
#662 = CARTESIAN_POINT('',(-6.525,-22.4,-2.6));
#663 = VECTOR('',#664,1.);
#664 = DIRECTION('',(0.,0.,1.));
#665 = CYLINDRICAL_SURFACE('',#666,5.9);
#666 = AXIS2_PLACEMENT_3D('',#667,#668,#669);
#667 = CARTESIAN_POINT('',(-6.525,-16.5,-2.6));
#668 = DIRECTION('',(-0.,-0.,-1.));
#669 = DIRECTION('',(-1.,1.204309721627E-15,0.));
#670 = ADVANCED_FACE('',(#671),#682,.T.);
#671 = FACE_BOUND('',#672,.T.);
#672 = EDGE_LOOP('',(#673,#679,#680,#681));
#673 = ORIENTED_EDGE('',*,*,#674,.F.);
#674 = EDGE_CURVE('',#650,#496,#675,.T.);
#675 = LINE('',#676,#677);
#676 = CARTESIAN_POINT('',(-6.525,-22.4,-1.6));
#677 = VECTOR('',#678,1.);
#678 = DIRECTION('',(1.,0.,0.));
#679 = ORIENTED_EDGE('',*,*,#660,.T.);
#680 = ORIENTED_EDGE('',*,*,#102,.F.);
#681 = ORIENTED_EDGE('',*,*,#506,.F.);
#682 = PLANE('',#683);
#683 = AXIS2_PLACEMENT_3D('',#684,#685,#686);
#684 = CARTESIAN_POINT('',(-6.525,-22.4,-2.6));
#685 = DIRECTION('',(0.,1.,0.));
#686 = DIRECTION('',(1.,0.,0.));
#687 = ADVANCED_FACE('',(#688),#699,.F.);
#688 = FACE_BOUND('',#689,.F.);
#689 = EDGE_LOOP('',(#690,#691,#692,#693));
#690 = ORIENTED_EDGE('',*,*,#219,.F.);
#691 = ORIENTED_EDGE('',*,*,#186,.T.);
#692 = ORIENTED_EDGE('',*,*,#252,.T.);
#693 = ORIENTED_EDGE('',*,*,#694,.T.);
#694 = EDGE_CURVE('',#244,#203,#695,.T.);
#695 = LINE('',#696,#697);
#696 = CARTESIAN_POINT('',(-7.2125,-23.2,-4.2));
#697 = VECTOR('',#698,1.);
#698 = DIRECTION('',(-1.,-0.,0.));
#699 = PLANE('',#700);
#700 = AXIS2_PLACEMENT_3D('',#701,#702,#703);
#701 = CARTESIAN_POINT('',(-14.425,-23.2,2.4));
#702 = DIRECTION('',(-0.,1.,0.));
#703 = DIRECTION('',(0.,0.,-1.));
#704 = ADVANCED_FACE('',(#705),#750,.F.);
#705 = FACE_BOUND('',#706,.F.);
#706 = EDGE_LOOP('',(#707,#718,#724,#725,#726,#727,#735,#744));
#707 = ORIENTED_EDGE('',*,*,#708,.T.);
#708 = EDGE_CURVE('',#709,#711,#713,.T.);
#709 = VERTEX_POINT('',#710);
#710 = CARTESIAN_POINT('',(-6.525,-22.4,-4.2));
#711 = VERTEX_POINT('',#712);
#712 = CARTESIAN_POINT('',(-12.425,-16.5,-4.2));
#713 = CIRCLE('',#714,5.9);
#714 = AXIS2_PLACEMENT_3D('',#715,#716,#717);
#715 = CARTESIAN_POINT('',(-6.525,-16.5,-4.2));
#716 = DIRECTION('',(-0.,0.,-1.));
#717 = DIRECTION('',(-1.,1.204309721627E-15,0.));
#718 = ORIENTED_EDGE('',*,*,#719,.T.);
#719 = EDGE_CURVE('',#711,#201,#720,.T.);
#720 = LINE('',#721,#722);
#721 = CARTESIAN_POINT('',(-6.7125,-16.5,-4.2));
#722 = VECTOR('',#723,1.);
#723 = DIRECTION('',(-1.,-0.,0.));
#724 = ORIENTED_EDGE('',*,*,#200,.T.);
#725 = ORIENTED_EDGE('',*,*,#694,.F.);
#726 = ORIENTED_EDGE('',*,*,#243,.T.);
#727 = ORIENTED_EDGE('',*,*,#728,.T.);
#728 = EDGE_CURVE('',#236,#729,#731,.T.);
#729 = VERTEX_POINT('',#730);
#730 = CARTESIAN_POINT('',(12.425,-16.5,-4.2));
#731 = LINE('',#732,#733);
#732 = CARTESIAN_POINT('',(6.2125,-16.5,-4.2));
#733 = VECTOR('',#734,1.);
#734 = DIRECTION('',(-1.,-0.,0.));
#735 = ORIENTED_EDGE('',*,*,#736,.T.);
#736 = EDGE_CURVE('',#729,#737,#739,.T.);
#737 = VERTEX_POINT('',#738);
#738 = CARTESIAN_POINT('',(6.525,-22.4,-4.2));
#739 = CIRCLE('',#740,5.9);
#740 = AXIS2_PLACEMENT_3D('',#741,#742,#743);
#741 = CARTESIAN_POINT('',(6.525,-16.5,-4.2));
#742 = DIRECTION('',(-0.,0.,-1.));
#743 = DIRECTION('',(-9.032322912205E-16,-1.,0.));
#744 = ORIENTED_EDGE('',*,*,#745,.T.);
#745 = EDGE_CURVE('',#737,#709,#746,.T.);
#746 = LINE('',#747,#748);
#747 = CARTESIAN_POINT('',(-3.2625,-22.4,-4.2));
#748 = VECTOR('',#749,1.);
#749 = DIRECTION('',(-1.,0.,0.));
#750 = PLANE('',#751);
#751 = AXIS2_PLACEMENT_3D('',#752,#753,#754);
#752 = CARTESIAN_POINT('',(-1.184585074032E-16,3.685375785876E-16,-4.2)
  );
#753 = DIRECTION('',(0.,0.,1.));
#754 = DIRECTION('',(1.,0.,-0.));
#755 = ADVANCED_FACE('',(#756),#781,.T.);
#756 = FACE_BOUND('',#757,.T.);
#757 = EDGE_LOOP('',(#758,#768,#774,#775));
#758 = ORIENTED_EDGE('',*,*,#759,.F.);
#759 = EDGE_CURVE('',#760,#762,#764,.T.);
#760 = VERTEX_POINT('',#761);
#761 = CARTESIAN_POINT('',(-12.425,16.5,-8.));
#762 = VERTEX_POINT('',#763);
#763 = CARTESIAN_POINT('',(-12.425,16.5,-4.2));
#764 = LINE('',#765,#766);
#765 = CARTESIAN_POINT('',(-12.425,16.5,-8.));
#766 = VECTOR('',#767,1.);
#767 = DIRECTION('',(0.,0.,1.));
#768 = ORIENTED_EDGE('',*,*,#769,.F.);
#769 = EDGE_CURVE('',#277,#760,#770,.T.);
#770 = LINE('',#771,#772);
#771 = CARTESIAN_POINT('',(-13.425,16.5,-8.));
#772 = VECTOR('',#773,1.);
#773 = DIRECTION('',(1.,0.,-0.));
#774 = ORIENTED_EDGE('',*,*,#276,.T.);
#775 = ORIENTED_EDGE('',*,*,#776,.F.);
#776 = EDGE_CURVE('',#762,#269,#777,.T.);
#777 = LINE('',#778,#779);
#778 = CARTESIAN_POINT('',(-6.7125,16.5,-4.2));
#779 = VECTOR('',#780,1.);
#780 = DIRECTION('',(-1.,-0.,0.));
#781 = PLANE('',#782);
#782 = AXIS2_PLACEMENT_3D('',#783,#784,#785);
#783 = CARTESIAN_POINT('',(-13.425,16.5,-8.));
#784 = DIRECTION('',(-0.,1.,0.));
#785 = DIRECTION('',(0.,0.,1.));
#786 = ADVANCED_FACE('',(#787),#828,.T.);
#787 = FACE_BOUND('',#788,.T.);
#788 = EDGE_LOOP('',(#789,#790,#798,#806,#812,#813,#814,#822));
#789 = ORIENTED_EDGE('',*,*,#316,.T.);
#790 = ORIENTED_EDGE('',*,*,#791,.F.);
#791 = EDGE_CURVE('',#792,#309,#794,.T.);
#792 = VERTEX_POINT('',#793);
#793 = CARTESIAN_POINT('',(-13.975,-3.,-8.));
#794 = LINE('',#795,#796);
#795 = CARTESIAN_POINT('',(-13.975,-3.,-8.));
#796 = VECTOR('',#797,1.);
#797 = DIRECTION('',(1.,0.,-0.));
#798 = ORIENTED_EDGE('',*,*,#799,.T.);
#799 = EDGE_CURVE('',#792,#800,#802,.T.);
#800 = VERTEX_POINT('',#801);
#801 = CARTESIAN_POINT('',(-13.975,3.,-8.));
#802 = LINE('',#803,#804);
#803 = CARTESIAN_POINT('',(-13.975,-3.,-8.));
#804 = VECTOR('',#805,1.);
#805 = DIRECTION('',(-0.,1.,0.));
#806 = ORIENTED_EDGE('',*,*,#807,.T.);
#807 = EDGE_CURVE('',#800,#285,#808,.T.);
#808 = LINE('',#809,#810);
#809 = CARTESIAN_POINT('',(-13.975,3.,-8.));
#810 = VECTOR('',#811,1.);
#811 = DIRECTION('',(1.,0.,-0.));
#812 = ORIENTED_EDGE('',*,*,#284,.T.);
#813 = ORIENTED_EDGE('',*,*,#769,.T.);
#814 = ORIENTED_EDGE('',*,*,#815,.F.);
#815 = EDGE_CURVE('',#816,#760,#818,.T.);
#816 = VERTEX_POINT('',#817);
#817 = CARTESIAN_POINT('',(-12.425,-16.5,-8.));
#818 = LINE('',#819,#820);
#819 = CARTESIAN_POINT('',(-12.425,-16.5,-8.));
#820 = VECTOR('',#821,1.);
#821 = DIRECTION('',(-0.,1.,0.));
#822 = ORIENTED_EDGE('',*,*,#823,.F.);
#823 = EDGE_CURVE('',#317,#816,#824,.T.);
#824 = LINE('',#825,#826);
#825 = CARTESIAN_POINT('',(-13.425,-16.5,-8.));
#826 = VECTOR('',#827,1.);
#827 = DIRECTION('',(1.,0.,-0.));
#828 = PLANE('',#829);
#829 = AXIS2_PLACEMENT_3D('',#830,#831,#832);
#830 = CARTESIAN_POINT('',(-12.98509406657,0.,-8.));
#831 = DIRECTION('',(-0.,-0.,-1.));
#832 = DIRECTION('',(-1.,0.,0.));
#833 = ADVANCED_FACE('',(#834),#852,.T.);
#834 = FACE_BOUND('',#835,.T.);
#835 = EDGE_LOOP('',(#836,#837,#845,#851));
#836 = ORIENTED_EDGE('',*,*,#807,.F.);
#837 = ORIENTED_EDGE('',*,*,#838,.T.);
#838 = EDGE_CURVE('',#800,#839,#841,.T.);
#839 = VERTEX_POINT('',#840);
#840 = CARTESIAN_POINT('',(-13.975,3.,-7.));
#841 = LINE('',#842,#843);
#842 = CARTESIAN_POINT('',(-13.975,3.,-8.));
#843 = VECTOR('',#844,1.);
#844 = DIRECTION('',(0.,0.,1.));
#845 = ORIENTED_EDGE('',*,*,#846,.T.);
#846 = EDGE_CURVE('',#839,#293,#847,.T.);
#847 = LINE('',#848,#849);
#848 = CARTESIAN_POINT('',(-13.975,3.,-7.));
#849 = VECTOR('',#850,1.);
#850 = DIRECTION('',(1.,0.,-0.));
#851 = ORIENTED_EDGE('',*,*,#292,.F.);
#852 = PLANE('',#853);
#853 = AXIS2_PLACEMENT_3D('',#854,#855,#856);
#854 = CARTESIAN_POINT('',(-13.975,3.,-8.));
#855 = DIRECTION('',(-0.,1.,0.));
#856 = DIRECTION('',(0.,0.,1.));
#857 = ADVANCED_FACE('',(#858),#876,.T.);
#858 = FACE_BOUND('',#859,.T.);
#859 = EDGE_LOOP('',(#860,#861,#869,#875));
#860 = ORIENTED_EDGE('',*,*,#846,.F.);
#861 = ORIENTED_EDGE('',*,*,#862,.F.);
#862 = EDGE_CURVE('',#863,#839,#865,.T.);
#863 = VERTEX_POINT('',#864);
#864 = CARTESIAN_POINT('',(-13.975,-3.,-7.));
#865 = LINE('',#866,#867);
#866 = CARTESIAN_POINT('',(-13.975,-3.,-7.));
#867 = VECTOR('',#868,1.);
#868 = DIRECTION('',(-0.,1.,0.));
#869 = ORIENTED_EDGE('',*,*,#870,.T.);
#870 = EDGE_CURVE('',#863,#301,#871,.T.);
#871 = LINE('',#872,#873);
#872 = CARTESIAN_POINT('',(-13.975,-3.,-7.));
#873 = VECTOR('',#874,1.);
#874 = DIRECTION('',(1.,0.,-0.));
#875 = ORIENTED_EDGE('',*,*,#300,.F.);
#876 = PLANE('',#877);
#877 = AXIS2_PLACEMENT_3D('',#878,#879,#880);
#878 = CARTESIAN_POINT('',(-13.975,-3.,-7.));
#879 = DIRECTION('',(0.,0.,1.));
#880 = DIRECTION('',(1.,0.,-0.));
#881 = ADVANCED_FACE('',(#882),#893,.F.);
#882 = FACE_BOUND('',#883,.F.);
#883 = EDGE_LOOP('',(#884,#885,#891,#892));
#884 = ORIENTED_EDGE('',*,*,#791,.F.);
#885 = ORIENTED_EDGE('',*,*,#886,.T.);
#886 = EDGE_CURVE('',#792,#863,#887,.T.);
#887 = LINE('',#888,#889);
#888 = CARTESIAN_POINT('',(-13.975,-3.,-8.));
#889 = VECTOR('',#890,1.);
#890 = DIRECTION('',(0.,0.,1.));
#891 = ORIENTED_EDGE('',*,*,#870,.T.);
#892 = ORIENTED_EDGE('',*,*,#308,.F.);
#893 = PLANE('',#894);
#894 = AXIS2_PLACEMENT_3D('',#895,#896,#897);
#895 = CARTESIAN_POINT('',(-13.975,-3.,-8.));
#896 = DIRECTION('',(-0.,1.,0.));
#897 = DIRECTION('',(0.,0.,1.));
#898 = ADVANCED_FACE('',(#899),#910,.F.);
#899 = FACE_BOUND('',#900,.F.);
#900 = EDGE_LOOP('',(#901,#907,#908,#909));
#901 = ORIENTED_EDGE('',*,*,#902,.F.);
#902 = EDGE_CURVE('',#816,#711,#903,.T.);
#903 = LINE('',#904,#905);
#904 = CARTESIAN_POINT('',(-12.425,-16.5,-8.));
#905 = VECTOR('',#906,1.);
#906 = DIRECTION('',(0.,0.,1.));
#907 = ORIENTED_EDGE('',*,*,#823,.F.);
#908 = ORIENTED_EDGE('',*,*,#324,.T.);
#909 = ORIENTED_EDGE('',*,*,#719,.F.);
#910 = PLANE('',#911);
#911 = AXIS2_PLACEMENT_3D('',#912,#913,#914);
#912 = CARTESIAN_POINT('',(-13.425,-16.5,-8.));
#913 = DIRECTION('',(-0.,1.,0.));
#914 = DIRECTION('',(0.,0.,1.));
#915 = ADVANCED_FACE('',(#916),#934,.F.);
#916 = FACE_BOUND('',#917,.F.);
#917 = EDGE_LOOP('',(#918,#919,#927,#933));
#918 = ORIENTED_EDGE('',*,*,#348,.F.);
#919 = ORIENTED_EDGE('',*,*,#920,.F.);
#920 = EDGE_CURVE('',#921,#349,#923,.T.);
#921 = VERTEX_POINT('',#922);
#922 = CARTESIAN_POINT('',(12.425,-16.5,-8.));
#923 = LINE('',#924,#925);
#924 = CARTESIAN_POINT('',(12.425,-16.5,-8.));
#925 = VECTOR('',#926,1.);
#926 = DIRECTION('',(1.,0.,-0.));
#927 = ORIENTED_EDGE('',*,*,#928,.T.);
#928 = EDGE_CURVE('',#921,#729,#929,.T.);
#929 = LINE('',#930,#931);
#930 = CARTESIAN_POINT('',(12.425,-16.5,-8.));
#931 = VECTOR('',#932,1.);
#932 = DIRECTION('',(0.,0.,1.));
#933 = ORIENTED_EDGE('',*,*,#728,.F.);
#934 = PLANE('',#935);
#935 = AXIS2_PLACEMENT_3D('',#936,#937,#938);
#936 = CARTESIAN_POINT('',(12.425,-16.5,-8.));
#937 = DIRECTION('',(-0.,1.,0.));
#938 = DIRECTION('',(0.,0.,1.));
#939 = ADVANCED_FACE('',(#940),#981,.T.);
#940 = FACE_BOUND('',#941,.T.);
#941 = EDGE_LOOP('',(#942,#950,#951,#959,#967,#973,#974,#975));
#942 = ORIENTED_EDGE('',*,*,#943,.T.);
#943 = EDGE_CURVE('',#944,#389,#946,.T.);
#944 = VERTEX_POINT('',#945);
#945 = CARTESIAN_POINT('',(12.425,16.5,-8.));
#946 = LINE('',#947,#948);
#947 = CARTESIAN_POINT('',(12.425,16.5,-8.));
#948 = VECTOR('',#949,1.);
#949 = DIRECTION('',(1.,0.,-0.));
#950 = ORIENTED_EDGE('',*,*,#388,.F.);
#951 = ORIENTED_EDGE('',*,*,#952,.T.);
#952 = EDGE_CURVE('',#381,#953,#955,.T.);
#953 = VERTEX_POINT('',#954);
#954 = CARTESIAN_POINT('',(13.975,3.,-8.));
#955 = LINE('',#956,#957);
#956 = CARTESIAN_POINT('',(13.415,3.,-8.));
#957 = VECTOR('',#958,1.);
#958 = DIRECTION('',(1.,0.,-0.));
#959 = ORIENTED_EDGE('',*,*,#960,.F.);
#960 = EDGE_CURVE('',#961,#953,#963,.T.);
#961 = VERTEX_POINT('',#962);
#962 = CARTESIAN_POINT('',(13.975,-3.,-8.));
#963 = LINE('',#964,#965);
#964 = CARTESIAN_POINT('',(13.975,-3.,-8.));
#965 = VECTOR('',#966,1.);
#966 = DIRECTION('',(-0.,1.,0.));
#967 = ORIENTED_EDGE('',*,*,#968,.F.);
#968 = EDGE_CURVE('',#357,#961,#969,.T.);
#969 = LINE('',#970,#971);
#970 = CARTESIAN_POINT('',(13.415,-3.,-8.));
#971 = VECTOR('',#972,1.);
#972 = DIRECTION('',(1.,0.,-0.));
#973 = ORIENTED_EDGE('',*,*,#356,.F.);
#974 = ORIENTED_EDGE('',*,*,#920,.F.);
#975 = ORIENTED_EDGE('',*,*,#976,.T.);
#976 = EDGE_CURVE('',#921,#944,#977,.T.);
#977 = LINE('',#978,#979);
#978 = CARTESIAN_POINT('',(12.425,-16.5,-8.));
#979 = VECTOR('',#980,1.);
#980 = DIRECTION('',(-0.,1.,0.));
#981 = PLANE('',#982);
#982 = AXIS2_PLACEMENT_3D('',#983,#984,#985);
#983 = CARTESIAN_POINT('',(12.98509406657,0.,-8.));
#984 = DIRECTION('',(-0.,-0.,-1.));
#985 = DIRECTION('',(-1.,0.,0.));
#986 = ADVANCED_FACE('',(#987),#1005,.F.);
#987 = FACE_BOUND('',#988,.F.);
#988 = EDGE_LOOP('',(#989,#990,#991,#999));
#989 = ORIENTED_EDGE('',*,*,#968,.F.);
#990 = ORIENTED_EDGE('',*,*,#364,.T.);
#991 = ORIENTED_EDGE('',*,*,#992,.T.);
#992 = EDGE_CURVE('',#365,#993,#995,.T.);
#993 = VERTEX_POINT('',#994);
#994 = CARTESIAN_POINT('',(13.975,-3.,-7.));
#995 = LINE('',#996,#997);
#996 = CARTESIAN_POINT('',(13.415,-3.,-7.));
#997 = VECTOR('',#998,1.);
#998 = DIRECTION('',(1.,0.,-0.));
#999 = ORIENTED_EDGE('',*,*,#1000,.F.);
#1000 = EDGE_CURVE('',#961,#993,#1001,.T.);
#1001 = LINE('',#1002,#1003);
#1002 = CARTESIAN_POINT('',(13.975,-3.,-8.));
#1003 = VECTOR('',#1004,1.);
#1004 = DIRECTION('',(0.,0.,1.));
#1005 = PLANE('',#1006);
#1006 = AXIS2_PLACEMENT_3D('',#1007,#1008,#1009);
#1007 = CARTESIAN_POINT('',(13.415,-3.,-8.));
#1008 = DIRECTION('',(-0.,1.,0.));
#1009 = DIRECTION('',(0.,0.,1.));
#1010 = ADVANCED_FACE('',(#1011),#1029,.T.);
#1011 = FACE_BOUND('',#1012,.T.);
#1012 = EDGE_LOOP('',(#1013,#1021,#1022,#1023));
#1013 = ORIENTED_EDGE('',*,*,#1014,.F.);
#1014 = EDGE_CURVE('',#373,#1015,#1017,.T.);
#1015 = VERTEX_POINT('',#1016);
#1016 = CARTESIAN_POINT('',(13.975,3.,-7.));
#1017 = LINE('',#1018,#1019);
#1018 = CARTESIAN_POINT('',(13.415,3.,-7.));
#1019 = VECTOR('',#1020,1.);
#1020 = DIRECTION('',(1.,0.,-0.));
#1021 = ORIENTED_EDGE('',*,*,#372,.T.);
#1022 = ORIENTED_EDGE('',*,*,#992,.T.);
#1023 = ORIENTED_EDGE('',*,*,#1024,.T.);
#1024 = EDGE_CURVE('',#993,#1015,#1025,.T.);
#1025 = LINE('',#1026,#1027);
#1026 = CARTESIAN_POINT('',(13.975,-3.,-7.));
#1027 = VECTOR('',#1028,1.);
#1028 = DIRECTION('',(-0.,1.,0.));
#1029 = PLANE('',#1030);
#1030 = AXIS2_PLACEMENT_3D('',#1031,#1032,#1033);
#1031 = CARTESIAN_POINT('',(13.415,-3.,-7.));
#1032 = DIRECTION('',(0.,0.,1.));
#1033 = DIRECTION('',(1.,0.,-0.));
#1034 = ADVANCED_FACE('',(#1035),#1046,.T.);
#1035 = FACE_BOUND('',#1036,.T.);
#1036 = EDGE_LOOP('',(#1037,#1038,#1039,#1040));
#1037 = ORIENTED_EDGE('',*,*,#952,.F.);
#1038 = ORIENTED_EDGE('',*,*,#380,.T.);
#1039 = ORIENTED_EDGE('',*,*,#1014,.T.);
#1040 = ORIENTED_EDGE('',*,*,#1041,.F.);
#1041 = EDGE_CURVE('',#953,#1015,#1042,.T.);
#1042 = LINE('',#1043,#1044);
#1043 = CARTESIAN_POINT('',(13.975,3.,-8.));
#1044 = VECTOR('',#1045,1.);
#1045 = DIRECTION('',(0.,0.,1.));
#1046 = PLANE('',#1047);
#1047 = AXIS2_PLACEMENT_3D('',#1048,#1049,#1050);
#1048 = CARTESIAN_POINT('',(13.415,3.,-8.));
#1049 = DIRECTION('',(-0.,1.,0.));
#1050 = DIRECTION('',(0.,0.,1.));
#1051 = ADVANCED_FACE('',(#1052),#1070,.T.);
#1052 = FACE_BOUND('',#1053,.T.);
#1053 = EDGE_LOOP('',(#1054,#1055,#1056,#1064));
#1054 = ORIENTED_EDGE('',*,*,#396,.F.);
#1055 = ORIENTED_EDGE('',*,*,#943,.F.);
#1056 = ORIENTED_EDGE('',*,*,#1057,.T.);
#1057 = EDGE_CURVE('',#944,#1058,#1060,.T.);
#1058 = VERTEX_POINT('',#1059);
#1059 = CARTESIAN_POINT('',(12.425,16.5,-4.2));
#1060 = LINE('',#1061,#1062);
#1061 = CARTESIAN_POINT('',(12.425,16.5,-8.));
#1062 = VECTOR('',#1063,1.);
#1063 = DIRECTION('',(0.,0.,1.));
#1064 = ORIENTED_EDGE('',*,*,#1065,.F.);
#1065 = EDGE_CURVE('',#339,#1058,#1066,.T.);
#1066 = LINE('',#1067,#1068);
#1067 = CARTESIAN_POINT('',(6.2125,16.5,-4.2));
#1068 = VECTOR('',#1069,1.);
#1069 = DIRECTION('',(-1.,-0.,0.));
#1070 = PLANE('',#1071);
#1071 = AXIS2_PLACEMENT_3D('',#1072,#1073,#1074);
#1072 = CARTESIAN_POINT('',(12.425,16.5,-8.));
#1073 = DIRECTION('',(-0.,1.,0.));
#1074 = DIRECTION('',(0.,0.,1.));
#1075 = ADVANCED_FACE('',(#1076),#1087,.T.);
#1076 = FACE_BOUND('',#1077,.T.);
#1077 = EDGE_LOOP('',(#1078,#1079,#1080,#1081));
#1078 = ORIENTED_EDGE('',*,*,#430,.F.);
#1079 = ORIENTED_EDGE('',*,*,#481,.T.);
#1080 = ORIENTED_EDGE('',*,*,#464,.T.);
#1081 = ORIENTED_EDGE('',*,*,#1082,.T.);
#1082 = EDGE_CURVE('',#445,#422,#1083,.T.);
#1083 = LINE('',#1084,#1085);
#1084 = CARTESIAN_POINT('',(-7.2125,23.2,-4.2));
#1085 = VECTOR('',#1086,1.);
#1086 = DIRECTION('',(-1.,-0.,0.));
#1087 = PLANE('',#1088);
#1088 = AXIS2_PLACEMENT_3D('',#1089,#1090,#1091);
#1089 = CARTESIAN_POINT('',(-14.425,23.2,2.4));
#1090 = DIRECTION('',(-0.,1.,0.));
#1091 = DIRECTION('',(0.,0.,-1.));
#1092 = ADVANCED_FACE('',(#1093),#1174,.F.);
#1093 = FACE_BOUND('',#1094,.F.);
#1094 = EDGE_LOOP('',(#1095,#1096,#1105,#1113,#1121,#1130,#1138,#1147,
    #1155,#1163,#1170,#1171,#1172,#1173));
#1095 = ORIENTED_EDGE('',*,*,#776,.F.);
#1096 = ORIENTED_EDGE('',*,*,#1097,.T.);
#1097 = EDGE_CURVE('',#762,#1098,#1100,.T.);
#1098 = VERTEX_POINT('',#1099);
#1099 = CARTESIAN_POINT('',(-12.335,17.526596317936,-4.2));
#1100 = CIRCLE('',#1101,5.9);
#1101 = AXIS2_PLACEMENT_3D('',#1102,#1103,#1104);
#1102 = CARTESIAN_POINT('',(-6.525,16.5,-4.2));
#1103 = DIRECTION('',(0.,-0.,-1.));
#1104 = DIRECTION('',(9.032322912205E-16,1.,-0.));
#1105 = ORIENTED_EDGE('',*,*,#1106,.T.);
#1106 = EDGE_CURVE('',#1098,#1107,#1109,.T.);
#1107 = VERTEX_POINT('',#1108);
#1108 = CARTESIAN_POINT('',(-12.335,19.5,-4.2));
#1109 = LINE('',#1110,#1111);
#1110 = CARTESIAN_POINT('',(-12.335,8.75,-4.2));
#1111 = VECTOR('',#1112,1.);
#1112 = DIRECTION('',(-0.,1.,0.));
#1113 = ORIENTED_EDGE('',*,*,#1114,.F.);
#1114 = EDGE_CURVE('',#1115,#1107,#1117,.T.);
#1115 = VERTEX_POINT('',#1116);
#1116 = CARTESIAN_POINT('',(-11.60535431835,19.5,-4.2));
#1117 = LINE('',#1118,#1119);
#1118 = CARTESIAN_POINT('',(-6.1675,19.5,-4.2));
#1119 = VECTOR('',#1120,1.);
#1120 = DIRECTION('',(-1.,-0.,0.));
#1121 = ORIENTED_EDGE('',*,*,#1122,.T.);
#1122 = EDGE_CURVE('',#1115,#1123,#1125,.T.);
#1123 = VERTEX_POINT('',#1124);
#1124 = CARTESIAN_POINT('',(-6.525,22.4,-4.2));
#1125 = CIRCLE('',#1126,5.9);
#1126 = AXIS2_PLACEMENT_3D('',#1127,#1128,#1129);
#1127 = CARTESIAN_POINT('',(-6.525,16.5,-4.2));
#1128 = DIRECTION('',(0.,-0.,-1.));
#1129 = DIRECTION('',(9.032322912205E-16,1.,-0.));
#1130 = ORIENTED_EDGE('',*,*,#1131,.T.);
#1131 = EDGE_CURVE('',#1123,#1132,#1134,.T.);
#1132 = VERTEX_POINT('',#1133);
#1133 = CARTESIAN_POINT('',(6.525,22.4,-4.2));
#1134 = LINE('',#1135,#1136);
#1135 = CARTESIAN_POINT('',(3.2625,22.4,-4.2));
#1136 = VECTOR('',#1137,1.);
#1137 = DIRECTION('',(1.,0.,-0.));
#1138 = ORIENTED_EDGE('',*,*,#1139,.T.);
#1139 = EDGE_CURVE('',#1132,#1140,#1142,.T.);
#1140 = VERTEX_POINT('',#1141);
#1141 = CARTESIAN_POINT('',(11.605354318352,19.5,-4.2));
#1142 = CIRCLE('',#1143,5.9);
#1143 = AXIS2_PLACEMENT_3D('',#1144,#1145,#1146);
#1144 = CARTESIAN_POINT('',(6.525,16.5,-4.2));
#1145 = DIRECTION('',(0.,-0.,-1.));
#1146 = DIRECTION('',(1.,-1.204309721627E-15,0.));
#1147 = ORIENTED_EDGE('',*,*,#1148,.F.);
#1148 = EDGE_CURVE('',#1149,#1140,#1151,.T.);
#1149 = VERTEX_POINT('',#1150);
#1150 = CARTESIAN_POINT('',(12.335,19.5,-4.2));
#1151 = LINE('',#1152,#1153);
#1152 = CARTESIAN_POINT('',(5.625,19.5,-4.2));
#1153 = VECTOR('',#1154,1.);
#1154 = DIRECTION('',(-1.,-0.,0.));
#1155 = ORIENTED_EDGE('',*,*,#1156,.F.);
#1156 = EDGE_CURVE('',#1157,#1149,#1159,.T.);
#1157 = VERTEX_POINT('',#1158);
#1158 = CARTESIAN_POINT('',(12.335,17.526596317936,-4.2));
#1159 = LINE('',#1160,#1161);
#1160 = CARTESIAN_POINT('',(12.335,8.75,-4.2));
#1161 = VECTOR('',#1162,1.);
#1162 = DIRECTION('',(-0.,1.,0.));
#1163 = ORIENTED_EDGE('',*,*,#1164,.T.);
#1164 = EDGE_CURVE('',#1157,#1058,#1165,.T.);
#1165 = CIRCLE('',#1166,5.9);
#1166 = AXIS2_PLACEMENT_3D('',#1167,#1168,#1169);
#1167 = CARTESIAN_POINT('',(6.525,16.5,-4.2));
#1168 = DIRECTION('',(0.,-0.,-1.));
#1169 = DIRECTION('',(1.,-1.204309721627E-15,0.));
#1170 = ORIENTED_EDGE('',*,*,#1065,.F.);
#1171 = ORIENTED_EDGE('',*,*,#444,.T.);
#1172 = ORIENTED_EDGE('',*,*,#1082,.T.);
#1173 = ORIENTED_EDGE('',*,*,#421,.T.);
#1174 = PLANE('',#1175);
#1175 = AXIS2_PLACEMENT_3D('',#1176,#1177,#1178);
#1176 = CARTESIAN_POINT('',(-1.184585074032E-16,3.685375785876E-16,-4.2)
  );
#1177 = DIRECTION('',(0.,0.,1.));
#1178 = DIRECTION('',(1.,0.,-0.));
#1179 = ADVANCED_FACE('',(#1180),#1206,.F.);
#1180 = FACE_BOUND('',#1181,.T.);
#1181 = EDGE_LOOP('',(#1182,#1193,#1199,#1200));
#1182 = ORIENTED_EDGE('',*,*,#1183,.F.);
#1183 = EDGE_CURVE('',#1184,#1186,#1188,.T.);
#1184 = VERTEX_POINT('',#1185);
#1185 = CARTESIAN_POINT('',(6.525,-22.4,-2.6));
#1186 = VERTEX_POINT('',#1187);
#1187 = CARTESIAN_POINT('',(12.425,-16.5,-2.6));
#1188 = CIRCLE('',#1189,5.9);
#1189 = AXIS2_PLACEMENT_3D('',#1190,#1191,#1192);
#1190 = CARTESIAN_POINT('',(6.525,-16.5,-2.6));
#1191 = DIRECTION('',(0.,0.,1.));
#1192 = DIRECTION('',(-9.032322912205E-16,-1.,0.));
#1193 = ORIENTED_EDGE('',*,*,#1194,.T.);
#1194 = EDGE_CURVE('',#1184,#496,#1195,.T.);
#1195 = LINE('',#1196,#1197);
#1196 = CARTESIAN_POINT('',(6.525,-22.4,-2.6));
#1197 = VECTOR('',#1198,1.);
#1198 = DIRECTION('',(0.,0.,1.));
#1199 = ORIENTED_EDGE('',*,*,#495,.T.);
#1200 = ORIENTED_EDGE('',*,*,#1201,.F.);
#1201 = EDGE_CURVE('',#1186,#498,#1202,.T.);
#1202 = LINE('',#1203,#1204);
#1203 = CARTESIAN_POINT('',(12.425,-16.5,-2.6));
#1204 = VECTOR('',#1205,1.);
#1205 = DIRECTION('',(0.,0.,1.));
#1206 = CYLINDRICAL_SURFACE('',#1207,5.9);
#1207 = AXIS2_PLACEMENT_3D('',#1208,#1209,#1210);
#1208 = CARTESIAN_POINT('',(6.525,-16.5,-2.6));
#1209 = DIRECTION('',(-0.,-0.,-1.));
#1210 = DIRECTION('',(-9.032322912205E-16,-1.,0.));
#1211 = ADVANCED_FACE('',(#1212),#1230,.T.);
#1212 = FACE_BOUND('',#1213,.T.);
#1213 = EDGE_LOOP('',(#1214,#1222,#1223,#1224));
#1214 = ORIENTED_EDGE('',*,*,#1215,.F.);
#1215 = EDGE_CURVE('',#1186,#1216,#1218,.T.);
#1216 = VERTEX_POINT('',#1217);
#1217 = CARTESIAN_POINT('',(12.425,16.5,-2.6));
#1218 = LINE('',#1219,#1220);
#1219 = CARTESIAN_POINT('',(12.425,-16.5,-2.6));
#1220 = VECTOR('',#1221,1.);
#1221 = DIRECTION('',(0.,1.,0.));
#1222 = ORIENTED_EDGE('',*,*,#1201,.T.);
#1223 = ORIENTED_EDGE('',*,*,#527,.T.);
#1224 = ORIENTED_EDGE('',*,*,#1225,.F.);
#1225 = EDGE_CURVE('',#1216,#528,#1226,.T.);
#1226 = LINE('',#1227,#1228);
#1227 = CARTESIAN_POINT('',(12.425,16.5,-2.6));
#1228 = VECTOR('',#1229,1.);
#1229 = DIRECTION('',(0.,0.,1.));
#1230 = PLANE('',#1231);
#1231 = AXIS2_PLACEMENT_3D('',#1232,#1233,#1234);
#1232 = CARTESIAN_POINT('',(12.425,-16.5,-2.6));
#1233 = DIRECTION('',(-1.,0.,0.));
#1234 = DIRECTION('',(0.,1.,0.));
#1235 = ADVANCED_FACE('',(#1236),#1255,.F.);
#1236 = FACE_BOUND('',#1237,.T.);
#1237 = EDGE_LOOP('',(#1238,#1247,#1248,#1249));
#1238 = ORIENTED_EDGE('',*,*,#1239,.F.);
#1239 = EDGE_CURVE('',#1216,#1240,#1242,.T.);
#1240 = VERTEX_POINT('',#1241);
#1241 = CARTESIAN_POINT('',(6.525,22.4,-2.6));
#1242 = CIRCLE('',#1243,5.9);
#1243 = AXIS2_PLACEMENT_3D('',#1244,#1245,#1246);
#1244 = CARTESIAN_POINT('',(6.525,16.5,-2.6));
#1245 = DIRECTION('',(0.,0.,1.));
#1246 = DIRECTION('',(1.,-1.204309721627E-15,0.));
#1247 = ORIENTED_EDGE('',*,*,#1225,.T.);
#1248 = ORIENTED_EDGE('',*,*,#551,.T.);
#1249 = ORIENTED_EDGE('',*,*,#1250,.F.);
#1250 = EDGE_CURVE('',#1240,#552,#1251,.T.);
#1251 = LINE('',#1252,#1253);
#1252 = CARTESIAN_POINT('',(6.525,22.4,-2.6));
#1253 = VECTOR('',#1254,1.);
#1254 = DIRECTION('',(0.,0.,1.));
#1255 = CYLINDRICAL_SURFACE('',#1256,5.9);
#1256 = AXIS2_PLACEMENT_3D('',#1257,#1258,#1259);
#1257 = CARTESIAN_POINT('',(6.525,16.5,-2.6));
#1258 = DIRECTION('',(-0.,-0.,-1.));
#1259 = DIRECTION('',(1.,-1.204309721627E-15,0.));
#1260 = ADVANCED_FACE('',(#1261),#1279,.T.);
#1261 = FACE_BOUND('',#1262,.T.);
#1262 = EDGE_LOOP('',(#1263,#1271,#1272,#1273));
#1263 = ORIENTED_EDGE('',*,*,#1264,.F.);
#1264 = EDGE_CURVE('',#1240,#1265,#1267,.T.);
#1265 = VERTEX_POINT('',#1266);
#1266 = CARTESIAN_POINT('',(-6.525,22.4,-2.6));
#1267 = LINE('',#1268,#1269);
#1268 = CARTESIAN_POINT('',(6.525,22.4,-2.6));
#1269 = VECTOR('',#1270,1.);
#1270 = DIRECTION('',(-1.,0.,0.));
#1271 = ORIENTED_EDGE('',*,*,#1250,.T.);
#1272 = ORIENTED_EDGE('',*,*,#576,.T.);
#1273 = ORIENTED_EDGE('',*,*,#1274,.F.);
#1274 = EDGE_CURVE('',#1265,#577,#1275,.T.);
#1275 = LINE('',#1276,#1277);
#1276 = CARTESIAN_POINT('',(-6.525,22.4,-2.6));
#1277 = VECTOR('',#1278,1.);
#1278 = DIRECTION('',(0.,0.,1.));
#1279 = PLANE('',#1280);
#1280 = AXIS2_PLACEMENT_3D('',#1281,#1282,#1283);
#1281 = CARTESIAN_POINT('',(6.525,22.4,-2.6));
#1282 = DIRECTION('',(0.,-1.,0.));
#1283 = DIRECTION('',(-1.,0.,0.));
#1284 = ADVANCED_FACE('',(#1285),#1304,.F.);
#1285 = FACE_BOUND('',#1286,.T.);
#1286 = EDGE_LOOP('',(#1287,#1296,#1297,#1298));
#1287 = ORIENTED_EDGE('',*,*,#1288,.F.);
#1288 = EDGE_CURVE('',#1265,#1289,#1291,.T.);
#1289 = VERTEX_POINT('',#1290);
#1290 = CARTESIAN_POINT('',(-12.425,16.5,-2.6));
#1291 = CIRCLE('',#1292,5.9);
#1292 = AXIS2_PLACEMENT_3D('',#1293,#1294,#1295);
#1293 = CARTESIAN_POINT('',(-6.525,16.5,-2.6));
#1294 = DIRECTION('',(0.,0.,1.));
#1295 = DIRECTION('',(9.032322912205E-16,1.,-0.));
#1296 = ORIENTED_EDGE('',*,*,#1274,.T.);
#1297 = ORIENTED_EDGE('',*,*,#600,.T.);
#1298 = ORIENTED_EDGE('',*,*,#1299,.F.);
#1299 = EDGE_CURVE('',#1289,#601,#1300,.T.);
#1300 = LINE('',#1301,#1302);
#1301 = CARTESIAN_POINT('',(-12.425,16.5,-2.6));
#1302 = VECTOR('',#1303,1.);
#1303 = DIRECTION('',(0.,0.,1.));
#1304 = CYLINDRICAL_SURFACE('',#1305,5.9);
#1305 = AXIS2_PLACEMENT_3D('',#1306,#1307,#1308);
#1306 = CARTESIAN_POINT('',(-6.525,16.5,-2.6));
#1307 = DIRECTION('',(-0.,-0.,-1.));
#1308 = DIRECTION('',(9.032322912205E-16,1.,-0.));
#1309 = ADVANCED_FACE('',(#1310),#1328,.T.);
#1310 = FACE_BOUND('',#1311,.T.);
#1311 = EDGE_LOOP('',(#1312,#1320,#1321,#1322));
#1312 = ORIENTED_EDGE('',*,*,#1313,.F.);
#1313 = EDGE_CURVE('',#1289,#1314,#1316,.T.);
#1314 = VERTEX_POINT('',#1315);
#1315 = CARTESIAN_POINT('',(-12.425,-16.5,-2.6));
#1316 = LINE('',#1317,#1318);
#1317 = CARTESIAN_POINT('',(-12.425,16.5,-2.6));
#1318 = VECTOR('',#1319,1.);
#1319 = DIRECTION('',(0.,-1.,0.));
#1320 = ORIENTED_EDGE('',*,*,#1299,.T.);
#1321 = ORIENTED_EDGE('',*,*,#625,.T.);
#1322 = ORIENTED_EDGE('',*,*,#1323,.F.);
#1323 = EDGE_CURVE('',#1314,#626,#1324,.T.);
#1324 = LINE('',#1325,#1326);
#1325 = CARTESIAN_POINT('',(-12.425,-16.5,-2.6));
#1326 = VECTOR('',#1327,1.);
#1327 = DIRECTION('',(0.,0.,1.));
#1328 = PLANE('',#1329);
#1329 = AXIS2_PLACEMENT_3D('',#1330,#1331,#1332);
#1330 = CARTESIAN_POINT('',(-12.425,16.5,-2.6));
#1331 = DIRECTION('',(1.,0.,-0.));
#1332 = DIRECTION('',(0.,-1.,0.));
#1333 = ADVANCED_FACE('',(#1334),#1353,.F.);
#1334 = FACE_BOUND('',#1335,.T.);
#1335 = EDGE_LOOP('',(#1336,#1345,#1346,#1347));
#1336 = ORIENTED_EDGE('',*,*,#1337,.F.);
#1337 = EDGE_CURVE('',#1314,#1338,#1340,.T.);
#1338 = VERTEX_POINT('',#1339);
#1339 = CARTESIAN_POINT('',(-6.525,-22.4,-2.6));
#1340 = CIRCLE('',#1341,5.9);
#1341 = AXIS2_PLACEMENT_3D('',#1342,#1343,#1344);
#1342 = CARTESIAN_POINT('',(-6.525,-16.5,-2.6));
#1343 = DIRECTION('',(0.,0.,1.));
#1344 = DIRECTION('',(-1.,1.204309721627E-15,0.));
#1345 = ORIENTED_EDGE('',*,*,#1323,.T.);
#1346 = ORIENTED_EDGE('',*,*,#649,.T.);
#1347 = ORIENTED_EDGE('',*,*,#1348,.F.);
#1348 = EDGE_CURVE('',#1338,#650,#1349,.T.);
#1349 = LINE('',#1350,#1351);
#1350 = CARTESIAN_POINT('',(-6.525,-22.4,-2.6));
#1351 = VECTOR('',#1352,1.);
#1352 = DIRECTION('',(0.,0.,1.));
#1353 = CYLINDRICAL_SURFACE('',#1354,5.9);
#1354 = AXIS2_PLACEMENT_3D('',#1355,#1356,#1357);
#1355 = CARTESIAN_POINT('',(-6.525,-16.5,-2.6));
#1356 = DIRECTION('',(-0.,-0.,-1.));
#1357 = DIRECTION('',(-1.,1.204309721627E-15,0.));
#1358 = ADVANCED_FACE('',(#1359),#1370,.T.);
#1359 = FACE_BOUND('',#1360,.T.);
#1360 = EDGE_LOOP('',(#1361,#1367,#1368,#1369));
#1361 = ORIENTED_EDGE('',*,*,#1362,.F.);
#1362 = EDGE_CURVE('',#1338,#1184,#1363,.T.);
#1363 = LINE('',#1364,#1365);
#1364 = CARTESIAN_POINT('',(-6.525,-22.4,-2.6));
#1365 = VECTOR('',#1366,1.);
#1366 = DIRECTION('',(1.,0.,0.));
#1367 = ORIENTED_EDGE('',*,*,#1348,.T.);
#1368 = ORIENTED_EDGE('',*,*,#674,.T.);
#1369 = ORIENTED_EDGE('',*,*,#1194,.F.);
#1370 = PLANE('',#1371);
#1371 = AXIS2_PLACEMENT_3D('',#1372,#1373,#1374);
#1372 = CARTESIAN_POINT('',(-6.525,-22.4,-2.6));
#1373 = DIRECTION('',(0.,1.,0.));
#1374 = DIRECTION('',(1.,0.,0.));
#1375 = ADVANCED_FACE('',(#1376),#1392,.F.);
#1376 = FACE_BOUND('',#1377,.T.);
#1377 = EDGE_LOOP('',(#1378,#1379,#1385,#1386));
#1378 = ORIENTED_EDGE('',*,*,#708,.T.);
#1379 = ORIENTED_EDGE('',*,*,#1380,.T.);
#1380 = EDGE_CURVE('',#711,#1314,#1381,.T.);
#1381 = LINE('',#1382,#1383);
#1382 = CARTESIAN_POINT('',(-12.425,-16.5,-28.));
#1383 = VECTOR('',#1384,1.);
#1384 = DIRECTION('',(0.,0.,1.));
#1385 = ORIENTED_EDGE('',*,*,#1337,.T.);
#1386 = ORIENTED_EDGE('',*,*,#1387,.F.);
#1387 = EDGE_CURVE('',#709,#1338,#1388,.T.);
#1388 = LINE('',#1389,#1390);
#1389 = CARTESIAN_POINT('',(-6.525,-22.4,-28.));
#1390 = VECTOR('',#1391,1.);
#1391 = DIRECTION('',(0.,0.,1.));
#1392 = CYLINDRICAL_SURFACE('',#1393,5.9);
#1393 = AXIS2_PLACEMENT_3D('',#1394,#1395,#1396);
#1394 = CARTESIAN_POINT('',(-6.525,-16.5,-28.));
#1395 = DIRECTION('',(-0.,-0.,-1.));
#1396 = DIRECTION('',(-1.,1.204309721627E-15,0.));
#1397 = ADVANCED_FACE('',(#1398),#1409,.T.);
#1398 = FACE_BOUND('',#1399,.T.);
#1399 = EDGE_LOOP('',(#1400,#1401,#1402,#1408));
#1400 = ORIENTED_EDGE('',*,*,#1387,.T.);
#1401 = ORIENTED_EDGE('',*,*,#1362,.T.);
#1402 = ORIENTED_EDGE('',*,*,#1403,.F.);
#1403 = EDGE_CURVE('',#737,#1184,#1404,.T.);
#1404 = LINE('',#1405,#1406);
#1405 = CARTESIAN_POINT('',(6.525,-22.4,-28.));
#1406 = VECTOR('',#1407,1.);
#1407 = DIRECTION('',(0.,0.,1.));
#1408 = ORIENTED_EDGE('',*,*,#745,.T.);
#1409 = PLANE('',#1410);
#1410 = AXIS2_PLACEMENT_3D('',#1411,#1412,#1413);
#1411 = CARTESIAN_POINT('',(-6.525,-22.4,-28.));
#1412 = DIRECTION('',(0.,1.,0.));
#1413 = DIRECTION('',(1.,0.,0.));
#1414 = ADVANCED_FACE('',(#1415),#1426,.F.);
#1415 = FACE_BOUND('',#1416,.T.);
#1416 = EDGE_LOOP('',(#1417,#1418,#1419,#1425));
#1417 = ORIENTED_EDGE('',*,*,#1403,.T.);
#1418 = ORIENTED_EDGE('',*,*,#1183,.T.);
#1419 = ORIENTED_EDGE('',*,*,#1420,.F.);
#1420 = EDGE_CURVE('',#729,#1186,#1421,.T.);
#1421 = LINE('',#1422,#1423);
#1422 = CARTESIAN_POINT('',(12.425,-16.5,-28.));
#1423 = VECTOR('',#1424,1.);
#1424 = DIRECTION('',(0.,0.,1.));
#1425 = ORIENTED_EDGE('',*,*,#736,.T.);
#1426 = CYLINDRICAL_SURFACE('',#1427,5.9);
#1427 = AXIS2_PLACEMENT_3D('',#1428,#1429,#1430);
#1428 = CARTESIAN_POINT('',(6.525,-16.5,-28.));
#1429 = DIRECTION('',(-0.,-0.,-1.));
#1430 = DIRECTION('',(-9.032322912205E-16,-1.,0.));
#1431 = ADVANCED_FACE('',(#1432),#1443,.T.);
#1432 = FACE_BOUND('',#1433,.T.);
#1433 = EDGE_LOOP('',(#1434,#1435,#1436,#1437));
#1434 = ORIENTED_EDGE('',*,*,#902,.F.);
#1435 = ORIENTED_EDGE('',*,*,#815,.T.);
#1436 = ORIENTED_EDGE('',*,*,#759,.T.);
#1437 = ORIENTED_EDGE('',*,*,#1438,.F.);
#1438 = EDGE_CURVE('',#711,#762,#1439,.T.);
#1439 = LINE('',#1440,#1441);
#1440 = CARTESIAN_POINT('',(-12.425,-8.25,-4.2));
#1441 = VECTOR('',#1442,1.);
#1442 = DIRECTION('',(-0.,1.,0.));
#1443 = PLANE('',#1444);
#1444 = AXIS2_PLACEMENT_3D('',#1445,#1446,#1447);
#1445 = CARTESIAN_POINT('',(-12.425,-16.5,-8.));
#1446 = DIRECTION('',(1.,0.,-0.));
#1447 = DIRECTION('',(0.,0.,1.));
#1448 = ADVANCED_FACE('',(#1449),#1455,.F.);
#1449 = FACE_BOUND('',#1450,.F.);
#1450 = EDGE_LOOP('',(#1451,#1452,#1453,#1454));
#1451 = ORIENTED_EDGE('',*,*,#886,.F.);
#1452 = ORIENTED_EDGE('',*,*,#799,.T.);
#1453 = ORIENTED_EDGE('',*,*,#838,.T.);
#1454 = ORIENTED_EDGE('',*,*,#862,.F.);
#1455 = PLANE('',#1456);
#1456 = AXIS2_PLACEMENT_3D('',#1457,#1458,#1459);
#1457 = CARTESIAN_POINT('',(-13.975,-3.,-8.));
#1458 = DIRECTION('',(1.,0.,-0.));
#1459 = DIRECTION('',(0.,0.,1.));
#1460 = ADVANCED_FACE('',(#1461),#1472,.F.);
#1461 = FACE_BOUND('',#1462,.F.);
#1462 = EDGE_LOOP('',(#1463,#1464,#1465,#1466));
#1463 = ORIENTED_EDGE('',*,*,#928,.F.);
#1464 = ORIENTED_EDGE('',*,*,#976,.T.);
#1465 = ORIENTED_EDGE('',*,*,#1057,.T.);
#1466 = ORIENTED_EDGE('',*,*,#1467,.F.);
#1467 = EDGE_CURVE('',#729,#1058,#1468,.T.);
#1468 = LINE('',#1469,#1470);
#1469 = CARTESIAN_POINT('',(12.425,-8.25,-4.2));
#1470 = VECTOR('',#1471,1.);
#1471 = DIRECTION('',(-0.,1.,0.));
#1472 = PLANE('',#1473);
#1473 = AXIS2_PLACEMENT_3D('',#1474,#1475,#1476);
#1474 = CARTESIAN_POINT('',(12.425,-16.5,-8.));
#1475 = DIRECTION('',(1.,0.,-0.));
#1476 = DIRECTION('',(0.,0.,1.));
#1477 = ADVANCED_FACE('',(#1478),#1484,.T.);
#1478 = FACE_BOUND('',#1479,.T.);
#1479 = EDGE_LOOP('',(#1480,#1481,#1482,#1483));
#1480 = ORIENTED_EDGE('',*,*,#1000,.F.);
#1481 = ORIENTED_EDGE('',*,*,#960,.T.);
#1482 = ORIENTED_EDGE('',*,*,#1041,.T.);
#1483 = ORIENTED_EDGE('',*,*,#1024,.F.);
#1484 = PLANE('',#1485);
#1485 = AXIS2_PLACEMENT_3D('',#1486,#1487,#1488);
#1486 = CARTESIAN_POINT('',(13.975,-3.,-8.));
#1487 = DIRECTION('',(1.,0.,-0.));
#1488 = DIRECTION('',(0.,0.,1.));
#1489 = ADVANCED_FACE('',(#1490),#1530,.F.);
#1490 = FACE_BOUND('',#1491,.T.);
#1491 = EDGE_LOOP('',(#1492,#1493,#1499,#1500,#1506,#1507,#1515,#1524));
#1492 = ORIENTED_EDGE('',*,*,#1164,.T.);
#1493 = ORIENTED_EDGE('',*,*,#1494,.T.);
#1494 = EDGE_CURVE('',#1058,#1216,#1495,.T.);
#1495 = LINE('',#1496,#1497);
#1496 = CARTESIAN_POINT('',(12.425,16.5,-28.));
#1497 = VECTOR('',#1498,1.);
#1498 = DIRECTION('',(0.,0.,1.));
#1499 = ORIENTED_EDGE('',*,*,#1239,.T.);
#1500 = ORIENTED_EDGE('',*,*,#1501,.F.);
#1501 = EDGE_CURVE('',#1132,#1240,#1502,.T.);
#1502 = LINE('',#1503,#1504);
#1503 = CARTESIAN_POINT('',(6.525,22.4,-28.));
#1504 = VECTOR('',#1505,1.);
#1505 = DIRECTION('',(0.,0.,1.));
#1506 = ORIENTED_EDGE('',*,*,#1139,.T.);
#1507 = ORIENTED_EDGE('',*,*,#1508,.T.);
#1508 = EDGE_CURVE('',#1140,#1509,#1511,.T.);
#1509 = VERTEX_POINT('',#1510);
#1510 = CARTESIAN_POINT('',(11.605354318352,19.5,-11.9));
#1511 = LINE('',#1512,#1513);
#1512 = CARTESIAN_POINT('',(11.605354318352,19.5,-28.));
#1513 = VECTOR('',#1514,1.);
#1514 = DIRECTION('',(-0.,-0.,-1.));
#1515 = ORIENTED_EDGE('',*,*,#1516,.T.);
#1516 = EDGE_CURVE('',#1509,#1517,#1519,.T.);
#1517 = VERTEX_POINT('',#1518);
#1518 = CARTESIAN_POINT('',(12.335,17.526596317936,-11.9));
#1519 = CIRCLE('',#1520,5.9);
#1520 = AXIS2_PLACEMENT_3D('',#1521,#1522,#1523);
#1521 = CARTESIAN_POINT('',(6.525,16.5,-11.9));
#1522 = DIRECTION('',(0.,-0.,-1.));
#1523 = DIRECTION('',(1.,-1.204309721627E-15,0.));
#1524 = ORIENTED_EDGE('',*,*,#1525,.F.);
#1525 = EDGE_CURVE('',#1157,#1517,#1526,.T.);
#1526 = LINE('',#1527,#1528);
#1527 = CARTESIAN_POINT('',(12.335,17.526596317936,-28.));
#1528 = VECTOR('',#1529,1.);
#1529 = DIRECTION('',(-0.,-0.,-1.));
#1530 = CYLINDRICAL_SURFACE('',#1531,5.9);
#1531 = AXIS2_PLACEMENT_3D('',#1532,#1533,#1534);
#1532 = CARTESIAN_POINT('',(6.525,16.5,-28.));
#1533 = DIRECTION('',(-0.,-0.,-1.));
#1534 = DIRECTION('',(1.,-1.204309721627E-15,0.));
#1535 = ADVANCED_FACE('',(#1536),#1554,.T.);
#1536 = FACE_BOUND('',#1537,.T.);
#1537 = EDGE_LOOP('',(#1538,#1539,#1547,#1553));
#1538 = ORIENTED_EDGE('',*,*,#1525,.T.);
#1539 = ORIENTED_EDGE('',*,*,#1540,.T.);
#1540 = EDGE_CURVE('',#1517,#1541,#1543,.T.);
#1541 = VERTEX_POINT('',#1542);
#1542 = CARTESIAN_POINT('',(12.335,19.5,-11.9));
#1543 = LINE('',#1544,#1545);
#1544 = CARTESIAN_POINT('',(12.335,17.5,-11.9));
#1545 = VECTOR('',#1546,1.);
#1546 = DIRECTION('',(-0.,1.,0.));
#1547 = ORIENTED_EDGE('',*,*,#1548,.T.);
#1548 = EDGE_CURVE('',#1541,#1149,#1549,.T.);
#1549 = LINE('',#1550,#1551);
#1550 = CARTESIAN_POINT('',(12.335,19.5,-11.9));
#1551 = VECTOR('',#1552,1.);
#1552 = DIRECTION('',(0.,0.,1.));
#1553 = ORIENTED_EDGE('',*,*,#1156,.F.);
#1554 = PLANE('',#1555);
#1555 = AXIS2_PLACEMENT_3D('',#1556,#1557,#1558);
#1556 = CARTESIAN_POINT('',(12.335,17.5,-11.9));
#1557 = DIRECTION('',(1.,0.,-0.));
#1558 = DIRECTION('',(0.,0.,1.));
#1559 = ADVANCED_FACE('',(#1560),#1571,.T.);
#1560 = FACE_BOUND('',#1561,.T.);
#1561 = EDGE_LOOP('',(#1562,#1563,#1569,#1570));
#1562 = ORIENTED_EDGE('',*,*,#1548,.F.);
#1563 = ORIENTED_EDGE('',*,*,#1564,.F.);
#1564 = EDGE_CURVE('',#1509,#1541,#1565,.T.);
#1565 = LINE('',#1566,#1567);
#1566 = CARTESIAN_POINT('',(11.25,19.5,-11.9));
#1567 = VECTOR('',#1568,1.);
#1568 = DIRECTION('',(1.,0.,-0.));
#1569 = ORIENTED_EDGE('',*,*,#1508,.F.);
#1570 = ORIENTED_EDGE('',*,*,#1148,.F.);
#1571 = PLANE('',#1572);
#1572 = AXIS2_PLACEMENT_3D('',#1573,#1574,#1575);
#1573 = CARTESIAN_POINT('',(11.25,19.5,-11.9));
#1574 = DIRECTION('',(-0.,1.,0.));
#1575 = DIRECTION('',(0.,0.,1.));
#1576 = ADVANCED_FACE('',(#1577),#1588,.T.);
#1577 = FACE_BOUND('',#1578,.T.);
#1578 = EDGE_LOOP('',(#1579,#1580,#1581,#1587));
#1579 = ORIENTED_EDGE('',*,*,#1501,.T.);
#1580 = ORIENTED_EDGE('',*,*,#1264,.T.);
#1581 = ORIENTED_EDGE('',*,*,#1582,.F.);
#1582 = EDGE_CURVE('',#1123,#1265,#1583,.T.);
#1583 = LINE('',#1584,#1585);
#1584 = CARTESIAN_POINT('',(-6.525,22.4,-28.));
#1585 = VECTOR('',#1586,1.);
#1586 = DIRECTION('',(0.,0.,1.));
#1587 = ORIENTED_EDGE('',*,*,#1131,.T.);
#1588 = PLANE('',#1589);
#1589 = AXIS2_PLACEMENT_3D('',#1590,#1591,#1592);
#1590 = CARTESIAN_POINT('',(6.525,22.4,-28.));
#1591 = DIRECTION('',(0.,-1.,0.));
#1592 = DIRECTION('',(-1.,0.,0.));
#1593 = ADVANCED_FACE('',(#1594),#1629,.F.);
#1594 = FACE_BOUND('',#1595,.T.);
#1595 = EDGE_LOOP('',(#1596,#1597,#1598,#1604,#1605,#1613,#1622,#1628));
#1596 = ORIENTED_EDGE('',*,*,#1582,.T.);
#1597 = ORIENTED_EDGE('',*,*,#1288,.T.);
#1598 = ORIENTED_EDGE('',*,*,#1599,.F.);
#1599 = EDGE_CURVE('',#762,#1289,#1600,.T.);
#1600 = LINE('',#1601,#1602);
#1601 = CARTESIAN_POINT('',(-12.425,16.5,-28.));
#1602 = VECTOR('',#1603,1.);
#1603 = DIRECTION('',(0.,0.,1.));
#1604 = ORIENTED_EDGE('',*,*,#1097,.T.);
#1605 = ORIENTED_EDGE('',*,*,#1606,.T.);
#1606 = EDGE_CURVE('',#1098,#1607,#1609,.T.);
#1607 = VERTEX_POINT('',#1608);
#1608 = CARTESIAN_POINT('',(-12.335,17.526596317936,-11.9));
#1609 = LINE('',#1610,#1611);
#1610 = CARTESIAN_POINT('',(-12.335,17.526596317936,-28.));
#1611 = VECTOR('',#1612,1.);
#1612 = DIRECTION('',(-0.,-0.,-1.));
#1613 = ORIENTED_EDGE('',*,*,#1614,.T.);
#1614 = EDGE_CURVE('',#1607,#1615,#1617,.T.);
#1615 = VERTEX_POINT('',#1616);
#1616 = CARTESIAN_POINT('',(-11.60535431835,19.5,-11.9));
#1617 = CIRCLE('',#1618,5.9);
#1618 = AXIS2_PLACEMENT_3D('',#1619,#1620,#1621);
#1619 = CARTESIAN_POINT('',(-6.525,16.5,-11.9));
#1620 = DIRECTION('',(0.,-0.,-1.));
#1621 = DIRECTION('',(9.032322912205E-16,1.,-0.));
#1622 = ORIENTED_EDGE('',*,*,#1623,.F.);
#1623 = EDGE_CURVE('',#1115,#1615,#1624,.T.);
#1624 = LINE('',#1625,#1626);
#1625 = CARTESIAN_POINT('',(-11.60535431835,19.5,-28.));
#1626 = VECTOR('',#1627,1.);
#1627 = DIRECTION('',(-0.,-0.,-1.));
#1628 = ORIENTED_EDGE('',*,*,#1122,.T.);
#1629 = CYLINDRICAL_SURFACE('',#1630,5.9);
#1630 = AXIS2_PLACEMENT_3D('',#1631,#1632,#1633);
#1631 = CARTESIAN_POINT('',(-6.525,16.5,-28.));
#1632 = DIRECTION('',(-0.,-0.,-1.));
#1633 = DIRECTION('',(9.032322912205E-16,1.,-0.));
#1634 = ADVANCED_FACE('',(#1635),#1653,.T.);
#1635 = FACE_BOUND('',#1636,.T.);
#1636 = EDGE_LOOP('',(#1637,#1638,#1646,#1652));
#1637 = ORIENTED_EDGE('',*,*,#1623,.T.);
#1638 = ORIENTED_EDGE('',*,*,#1639,.F.);
#1639 = EDGE_CURVE('',#1640,#1615,#1642,.T.);
#1640 = VERTEX_POINT('',#1641);
#1641 = CARTESIAN_POINT('',(-12.335,19.5,-11.9));
#1642 = LINE('',#1643,#1644);
#1643 = CARTESIAN_POINT('',(-12.335,19.5,-11.9));
#1644 = VECTOR('',#1645,1.);
#1645 = DIRECTION('',(1.,0.,-0.));
#1646 = ORIENTED_EDGE('',*,*,#1647,.T.);
#1647 = EDGE_CURVE('',#1640,#1107,#1648,.T.);
#1648 = LINE('',#1649,#1650);
#1649 = CARTESIAN_POINT('',(-12.335,19.5,-11.9));
#1650 = VECTOR('',#1651,1.);
#1651 = DIRECTION('',(0.,0.,1.));
#1652 = ORIENTED_EDGE('',*,*,#1114,.F.);
#1653 = PLANE('',#1654);
#1654 = AXIS2_PLACEMENT_3D('',#1655,#1656,#1657);
#1655 = CARTESIAN_POINT('',(-12.335,19.5,-11.9));
#1656 = DIRECTION('',(-0.,1.,0.));
#1657 = DIRECTION('',(0.,0.,1.));
#1658 = ADVANCED_FACE('',(#1659),#1670,.F.);
#1659 = FACE_BOUND('',#1660,.F.);
#1660 = EDGE_LOOP('',(#1661,#1662,#1668,#1669));
#1661 = ORIENTED_EDGE('',*,*,#1606,.T.);
#1662 = ORIENTED_EDGE('',*,*,#1663,.T.);
#1663 = EDGE_CURVE('',#1607,#1640,#1664,.T.);
#1664 = LINE('',#1665,#1666);
#1665 = CARTESIAN_POINT('',(-12.335,17.5,-11.9));
#1666 = VECTOR('',#1667,1.);
#1667 = DIRECTION('',(-0.,1.,0.));
#1668 = ORIENTED_EDGE('',*,*,#1647,.T.);
#1669 = ORIENTED_EDGE('',*,*,#1106,.F.);
#1670 = PLANE('',#1671);
#1671 = AXIS2_PLACEMENT_3D('',#1672,#1673,#1674);
#1672 = CARTESIAN_POINT('',(-12.335,17.5,-11.9));
#1673 = DIRECTION('',(1.,0.,-0.));
#1674 = DIRECTION('',(0.,0.,1.));
#1675 = ADVANCED_FACE('',(#1676),#1682,.T.);
#1676 = FACE_BOUND('',#1677,.T.);
#1677 = EDGE_LOOP('',(#1678,#1679,#1680,#1681));
#1678 = ORIENTED_EDGE('',*,*,#1467,.F.);
#1679 = ORIENTED_EDGE('',*,*,#1420,.T.);
#1680 = ORIENTED_EDGE('',*,*,#1215,.T.);
#1681 = ORIENTED_EDGE('',*,*,#1494,.F.);
#1682 = PLANE('',#1683);
#1683 = AXIS2_PLACEMENT_3D('',#1684,#1685,#1686);
#1684 = CARTESIAN_POINT('',(12.425,-16.5,-28.));
#1685 = DIRECTION('',(-1.,0.,0.));
#1686 = DIRECTION('',(0.,1.,0.));
#1687 = ADVANCED_FACE('',(#1688),#1694,.T.);
#1688 = FACE_BOUND('',#1689,.T.);
#1689 = EDGE_LOOP('',(#1690,#1691,#1692,#1693));
#1690 = ORIENTED_EDGE('',*,*,#1438,.T.);
#1691 = ORIENTED_EDGE('',*,*,#1599,.T.);
#1692 = ORIENTED_EDGE('',*,*,#1313,.T.);
#1693 = ORIENTED_EDGE('',*,*,#1380,.F.);
#1694 = PLANE('',#1695);
#1695 = AXIS2_PLACEMENT_3D('',#1696,#1697,#1698);
#1696 = CARTESIAN_POINT('',(-12.425,16.5,-28.));
#1697 = DIRECTION('',(1.,0.,-0.));
#1698 = DIRECTION('',(0.,-1.,0.));
#1699 = ADVANCED_FACE('',(#1700),#1705,.F.);
#1700 = FACE_BOUND('',#1701,.F.);
#1701 = EDGE_LOOP('',(#1702,#1703,#1704));
#1702 = ORIENTED_EDGE('',*,*,#1564,.F.);
#1703 = ORIENTED_EDGE('',*,*,#1516,.T.);
#1704 = ORIENTED_EDGE('',*,*,#1540,.T.);
#1705 = PLANE('',#1706);
#1706 = AXIS2_PLACEMENT_3D('',#1707,#1708,#1709);
#1707 = CARTESIAN_POINT('',(11.25,17.5,-11.9));
#1708 = DIRECTION('',(0.,0.,1.));
#1709 = DIRECTION('',(1.,0.,-0.));
#1710 = ADVANCED_FACE('',(#1711),#1716,.F.);
#1711 = FACE_BOUND('',#1712,.F.);
#1712 = EDGE_LOOP('',(#1713,#1714,#1715));
#1713 = ORIENTED_EDGE('',*,*,#1663,.F.);
#1714 = ORIENTED_EDGE('',*,*,#1614,.T.);
#1715 = ORIENTED_EDGE('',*,*,#1639,.F.);
#1716 = PLANE('',#1717);
#1717 = AXIS2_PLACEMENT_3D('',#1718,#1719,#1720);
#1718 = CARTESIAN_POINT('',(-12.335,17.5,-11.9));
#1719 = DIRECTION('',(0.,0.,1.));
#1720 = DIRECTION('',(1.,0.,-0.));
#1721 = ( GEOMETRIC_REPRESENTATION_CONTEXT(3) 
GLOBAL_UNCERTAINTY_ASSIGNED_CONTEXT((#1725)) 
GLOBAL_UNIT_ASSIGNED_CONTEXT((#1722,#1723,#1724)) REPRESENTATION_CONTEXT
('Context #1','3D Context with UNIT and UNCERTAINTY') );
#1722 = ( LENGTH_UNIT() NAMED_UNIT(*) SI_UNIT(.MILLI.,.METRE.) );
#1723 = ( NAMED_UNIT(*) PLANE_ANGLE_UNIT() SI_UNIT($,.RADIAN.) );
#1724 = ( NAMED_UNIT(*) SI_UNIT($,.STERADIAN.) SOLID_ANGLE_UNIT() );
#1725 = UNCERTAINTY_MEASURE_WITH_UNIT(LENGTH_MEASURE(2.E-07),#1722,
  'distance_accuracy_value','confusion accuracy');
#1726 = PRODUCT_RELATED_PRODUCT_CATEGORY('part',$,(#7));
ENDSEC;
END-ISO-10303-21;
