ISO-10303-21;
HEADER;
FILE_DESCRIPTION(('FreeCAD Model'),'2;1');
FILE_NAME('Open CASCADE Shape Model','2026-10-01T03:15:59',('FreeCAD'),(
    'FreeCAD'),'Open CASCADE STEP processor 7.8','FreeCAD','Unknown');
FILE_SCHEMA(('AUTOMOTIVE_DESIGN { 1 0 10303 214 1 1 1 1 }'));
ENDSEC;
DATA;
#1 = APPLICATION_PROTOCOL_DEFINITION('international standard',
  'automotive_design',2000,#2);
#2 = APPLICATION_CONTEXT(
  'core data for automotive mechanical design processes');
#3 = SHAPE_DEFINITION_REPRESENTATION(#4,#10);
#4 = PRODUCT_DEFINITION_SHAPE('','',#5);
#5 = PRODUCT_DEFINITION('design','',#6,#9);
#6 = PRODUCT_DEFINITION_FORMATION('','',#7);
#7 = PRODUCT('Open CASCADE STEP translator 7.8 2',
  'Open CASCADE STEP translator 7.8 2','',(#8));
#8 = PRODUCT_CONTEXT('',#2,'mechanical');
#9 = PRODUCT_DEFINITION_CONTEXT('part definition',#2,'design');
#10 = ADVANCED_BREP_SHAPE_REPRESENTATION('',(#11,#15),#841);
#11 = AXIS2_PLACEMENT_3D('',#12,#13,#14);
#12 = CARTESIAN_POINT('',(0.,0.,0.));
#13 = DIRECTION('',(0.,0.,1.));
#14 = DIRECTION('',(1.,0.,-0.));
#15 = MANIFOLD_SOLID_BREP('',#16);
#16 = CLOSED_SHELL('',(#17,#57,#90,#123,#298,#473,#490,#507,#524,#541,
    #553,#575,#592,#609,#621,#646,#668,#685,#702,#714,#739,#761,#778,
    #795,#807,#824));
#17 = ADVANCED_FACE('',(#18),#52,.F.);
#18 = FACE_BOUND('',#19,.F.);
#19 = EDGE_LOOP('',(#20,#30,#38,#46));
#20 = ORIENTED_EDGE('',*,*,#21,.T.);
#21 = EDGE_CURVE('',#22,#24,#26,.T.);
#22 = VERTEX_POINT('',#23);
#23 = CARTESIAN_POINT('',(-6.525,-23.45,-16.8));
#24 = VERTEX_POINT('',#25);
#25 = CARTESIAN_POINT('',(-6.525,-23.45,-15.3));
#26 = LINE('',#27,#28);
#27 = CARTESIAN_POINT('',(-6.525,-23.45,-16.8));
#28 = VECTOR('',#29,1.);
#29 = DIRECTION('',(0.,0.,1.));
#30 = ORIENTED_EDGE('',*,*,#31,.T.);
#31 = EDGE_CURVE('',#24,#32,#34,.T.);
#32 = VERTEX_POINT('',#33);
#33 = CARTESIAN_POINT('',(6.525,-23.45,-15.3));
#34 = LINE('',#35,#36);
#35 = CARTESIAN_POINT('',(-6.525,-23.45,-15.3));
#36 = VECTOR('',#37,1.);
#37 = DIRECTION('',(1.,0.,0.));
#38 = ORIENTED_EDGE('',*,*,#39,.F.);
#39 = EDGE_CURVE('',#40,#32,#42,.T.);
#40 = VERTEX_POINT('',#41);
#41 = CARTESIAN_POINT('',(6.525,-23.45,-16.8));
#42 = LINE('',#43,#44);
#43 = CARTESIAN_POINT('',(6.525,-23.45,-16.8));
#44 = VECTOR('',#45,1.);
#45 = DIRECTION('',(0.,0.,1.));
#46 = ORIENTED_EDGE('',*,*,#47,.F.);
#47 = EDGE_CURVE('',#22,#40,#48,.T.);
#48 = LINE('',#49,#50);
#49 = CARTESIAN_POINT('',(-6.525,-23.45,-16.8));
#50 = VECTOR('',#51,1.);
#51 = DIRECTION('',(1.,0.,0.));
#52 = PLANE('',#53);
#53 = AXIS2_PLACEMENT_3D('',#54,#55,#56);
#54 = CARTESIAN_POINT('',(-6.525,-23.45,-16.8));
#55 = DIRECTION('',(0.,1.,0.));
#56 = DIRECTION('',(1.,0.,0.));
#57 = ADVANCED_FACE('',(#58),#85,.T.);
#58 = FACE_BOUND('',#59,.F.);
#59 = EDGE_LOOP('',(#60,#70,#77,#78));
#60 = ORIENTED_EDGE('',*,*,#61,.T.);
#61 = EDGE_CURVE('',#62,#64,#66,.T.);
#62 = VERTEX_POINT('',#63);
#63 = CARTESIAN_POINT('',(-13.475,-16.5,-16.8));
#64 = VERTEX_POINT('',#65);
#65 = CARTESIAN_POINT('',(-13.475,-16.5,-15.3));
#66 = LINE('',#67,#68);
#67 = CARTESIAN_POINT('',(-13.475,-16.5,-16.8));
#68 = VECTOR('',#69,1.);
#69 = DIRECTION('',(0.,0.,1.));
#70 = ORIENTED_EDGE('',*,*,#71,.T.);
#71 = EDGE_CURVE('',#64,#24,#72,.T.);
#72 = CIRCLE('',#73,6.95);
#73 = AXIS2_PLACEMENT_3D('',#74,#75,#76);
#74 = CARTESIAN_POINT('',(-6.525,-16.5,-15.3));
#75 = DIRECTION('',(0.,0.,1.));
#76 = DIRECTION('',(-1.,0.,0.));
#77 = ORIENTED_EDGE('',*,*,#21,.F.);
#78 = ORIENTED_EDGE('',*,*,#79,.F.);
#79 = EDGE_CURVE('',#62,#22,#80,.T.);
#80 = CIRCLE('',#81,6.95);
#81 = AXIS2_PLACEMENT_3D('',#82,#83,#84);
#82 = CARTESIAN_POINT('',(-6.525,-16.5,-16.8));
#83 = DIRECTION('',(0.,0.,1.));
#84 = DIRECTION('',(-1.,0.,0.));
#85 = CYLINDRICAL_SURFACE('',#86,6.95);
#86 = AXIS2_PLACEMENT_3D('',#87,#88,#89);
#87 = CARTESIAN_POINT('',(-6.525,-16.5,-16.8));
#88 = DIRECTION('',(-0.,-0.,-1.));
#89 = DIRECTION('',(-1.,0.,0.));
#90 = ADVANCED_FACE('',(#91),#118,.T.);
#91 = FACE_BOUND('',#92,.F.);
#92 = EDGE_LOOP('',(#93,#94,#103,#111));
#93 = ORIENTED_EDGE('',*,*,#39,.T.);
#94 = ORIENTED_EDGE('',*,*,#95,.T.);
#95 = EDGE_CURVE('',#32,#96,#98,.T.);
#96 = VERTEX_POINT('',#97);
#97 = CARTESIAN_POINT('',(13.475,-16.5,-15.3));
#98 = CIRCLE('',#99,6.95);
#99 = AXIS2_PLACEMENT_3D('',#100,#101,#102);
#100 = CARTESIAN_POINT('',(6.525,-16.5,-15.3));
#101 = DIRECTION('',(0.,0.,1.));
#102 = DIRECTION('',(-3.833863682159E-16,-1.,0.));
#103 = ORIENTED_EDGE('',*,*,#104,.F.);
#104 = EDGE_CURVE('',#105,#96,#107,.T.);
#105 = VERTEX_POINT('',#106);
#106 = CARTESIAN_POINT('',(13.475,-16.5,-16.8));
#107 = LINE('',#108,#109);
#108 = CARTESIAN_POINT('',(13.475,-16.5,-16.8));
#109 = VECTOR('',#110,1.);
#110 = DIRECTION('',(0.,0.,1.));
#111 = ORIENTED_EDGE('',*,*,#112,.F.);
#112 = EDGE_CURVE('',#40,#105,#113,.T.);
#113 = CIRCLE('',#114,6.95);
#114 = AXIS2_PLACEMENT_3D('',#115,#116,#117);
#115 = CARTESIAN_POINT('',(6.525,-16.5,-16.8));
#116 = DIRECTION('',(0.,0.,1.));
#117 = DIRECTION('',(-3.833863682159E-16,-1.,0.));
#118 = CYLINDRICAL_SURFACE('',#119,6.95);
#119 = AXIS2_PLACEMENT_3D('',#120,#121,#122);
#120 = CARTESIAN_POINT('',(6.525,-16.5,-16.8));
#121 = DIRECTION('',(-0.,-0.,-1.));
#122 = DIRECTION('',(-3.833863682159E-16,-1.,0.));
#123 = ADVANCED_FACE('',(#124,#169,#203,#214,#248,#259),#293,.F.);
#124 = FACE_BOUND('',#125,.F.);
#125 = EDGE_LOOP('',(#126,#127,#128,#136,#145,#153,#162,#168));
#126 = ORIENTED_EDGE('',*,*,#47,.T.);
#127 = ORIENTED_EDGE('',*,*,#112,.T.);
#128 = ORIENTED_EDGE('',*,*,#129,.T.);
#129 = EDGE_CURVE('',#105,#130,#132,.T.);
#130 = VERTEX_POINT('',#131);
#131 = CARTESIAN_POINT('',(13.475,16.5,-16.8));
#132 = LINE('',#133,#134);
#133 = CARTESIAN_POINT('',(13.475,-16.5,-16.8));
#134 = VECTOR('',#135,1.);
#135 = DIRECTION('',(0.,1.,0.));
#136 = ORIENTED_EDGE('',*,*,#137,.T.);
#137 = EDGE_CURVE('',#130,#138,#140,.T.);
#138 = VERTEX_POINT('',#139);
#139 = CARTESIAN_POINT('',(6.525,23.45,-16.8));
#140 = CIRCLE('',#141,6.95);
#141 = AXIS2_PLACEMENT_3D('',#142,#143,#144);
#142 = CARTESIAN_POINT('',(6.525,16.5,-16.8));
#143 = DIRECTION('',(0.,0.,1.));
#144 = DIRECTION('',(1.,0.,-0.));
#145 = ORIENTED_EDGE('',*,*,#146,.T.);
#146 = EDGE_CURVE('',#138,#147,#149,.T.);
#147 = VERTEX_POINT('',#148);
#148 = CARTESIAN_POINT('',(-6.525,23.45,-16.8));
#149 = LINE('',#150,#151);
#150 = CARTESIAN_POINT('',(6.525,23.45,-16.8));
#151 = VECTOR('',#152,1.);
#152 = DIRECTION('',(-1.,0.,0.));
#153 = ORIENTED_EDGE('',*,*,#154,.T.);
#154 = EDGE_CURVE('',#147,#155,#157,.T.);
#155 = VERTEX_POINT('',#156);
#156 = CARTESIAN_POINT('',(-13.475,16.5,-16.8));
#157 = CIRCLE('',#158,6.95);
#158 = AXIS2_PLACEMENT_3D('',#159,#160,#161);
#159 = CARTESIAN_POINT('',(-6.525,16.5,-16.8));
#160 = DIRECTION('',(0.,0.,1.));
#161 = DIRECTION('',(3.833863682159E-16,1.,-0.));
#162 = ORIENTED_EDGE('',*,*,#163,.T.);
#163 = EDGE_CURVE('',#155,#62,#164,.T.);
#164 = LINE('',#165,#166);
#165 = CARTESIAN_POINT('',(-13.475,16.5,-16.8));
#166 = VECTOR('',#167,1.);
#167 = DIRECTION('',(0.,-1.,0.));
#168 = ORIENTED_EDGE('',*,*,#79,.T.);
#169 = FACE_BOUND('',#170,.F.);
#170 = EDGE_LOOP('',(#171,#181,#189,#197));
#171 = ORIENTED_EDGE('',*,*,#172,.T.);
#172 = EDGE_CURVE('',#173,#175,#177,.T.);
#173 = VERTEX_POINT('',#174);
#174 = CARTESIAN_POINT('',(7.,-20.,-16.8));
#175 = VERTEX_POINT('',#176);
#176 = CARTESIAN_POINT('',(-7.,-20.,-16.8));
#177 = LINE('',#178,#179);
#178 = CARTESIAN_POINT('',(-3.5,-20.,-16.8));
#179 = VECTOR('',#180,1.);
#180 = DIRECTION('',(-1.,-0.,0.));
#181 = ORIENTED_EDGE('',*,*,#182,.T.);
#182 = EDGE_CURVE('',#175,#183,#185,.T.);
#183 = VERTEX_POINT('',#184);
#184 = CARTESIAN_POINT('',(-7.,-6.,-16.8));
#185 = LINE('',#186,#187);
#186 = CARTESIAN_POINT('',(-7.,-10.,-16.8));
#187 = VECTOR('',#188,1.);
#188 = DIRECTION('',(-0.,1.,0.));
#189 = ORIENTED_EDGE('',*,*,#190,.F.);
#190 = EDGE_CURVE('',#191,#183,#193,.T.);
#191 = VERTEX_POINT('',#192);
#192 = CARTESIAN_POINT('',(7.,-6.,-16.8));
#193 = LINE('',#194,#195);
#194 = CARTESIAN_POINT('',(-3.5,-6.,-16.8));
#195 = VECTOR('',#196,1.);
#196 = DIRECTION('',(-1.,-0.,0.));
#197 = ORIENTED_EDGE('',*,*,#198,.F.);
#198 = EDGE_CURVE('',#173,#191,#199,.T.);
#199 = LINE('',#200,#201);
#200 = CARTESIAN_POINT('',(7.,-10.,-16.8));
#201 = VECTOR('',#202,1.);
#202 = DIRECTION('',(-0.,1.,0.));
#203 = FACE_BOUND('',#204,.F.);
#204 = EDGE_LOOP('',(#205));
#205 = ORIENTED_EDGE('',*,*,#206,.F.);
#206 = EDGE_CURVE('',#207,#207,#209,.T.);
#207 = VERTEX_POINT('',#208);
#208 = CARTESIAN_POINT('',(-9.4,1.5,-16.8));
#209 = CIRCLE('',#210,1.1);
#210 = AXIS2_PLACEMENT_3D('',#211,#212,#213);
#211 = CARTESIAN_POINT('',(-10.5,1.5,-16.8));
#212 = DIRECTION('',(0.,0.,1.));
#213 = DIRECTION('',(1.,0.,-0.));
#214 = FACE_BOUND('',#215,.F.);
#215 = EDGE_LOOP('',(#216,#226,#234,#242));
#216 = ORIENTED_EDGE('',*,*,#217,.T.);
#217 = EDGE_CURVE('',#218,#220,#222,.T.);
#218 = VERTEX_POINT('',#219);
#219 = CARTESIAN_POINT('',(6.2,0.7,-16.8));
#220 = VERTEX_POINT('',#221);
#221 = CARTESIAN_POINT('',(-6.2,0.7,-16.8));
#222 = LINE('',#223,#224);
#223 = CARTESIAN_POINT('',(-3.1,0.7,-16.8));
#224 = VECTOR('',#225,1.);
#225 = DIRECTION('',(-1.,-0.,0.));
#226 = ORIENTED_EDGE('',*,*,#227,.T.);
#227 = EDGE_CURVE('',#220,#228,#230,.T.);
#228 = VERTEX_POINT('',#229);
#229 = CARTESIAN_POINT('',(-6.2,2.3,-16.8));
#230 = LINE('',#231,#232);
#231 = CARTESIAN_POINT('',(-6.2,0.35,-16.8));
#232 = VECTOR('',#233,1.);
#233 = DIRECTION('',(-0.,1.,0.));
#234 = ORIENTED_EDGE('',*,*,#235,.F.);
#235 = EDGE_CURVE('',#236,#228,#238,.T.);
#236 = VERTEX_POINT('',#237);
#237 = CARTESIAN_POINT('',(6.2,2.3,-16.8));
#238 = LINE('',#239,#240);
#239 = CARTESIAN_POINT('',(-3.1,2.3,-16.8));
#240 = VECTOR('',#241,1.);
#241 = DIRECTION('',(-1.,-0.,0.));
#242 = ORIENTED_EDGE('',*,*,#243,.F.);
#243 = EDGE_CURVE('',#218,#236,#244,.T.);
#244 = LINE('',#245,#246);
#245 = CARTESIAN_POINT('',(6.2,0.35,-16.8));
#246 = VECTOR('',#247,1.);
#247 = DIRECTION('',(-0.,1.,0.));
#248 = FACE_BOUND('',#249,.F.);
#249 = EDGE_LOOP('',(#250));
#250 = ORIENTED_EDGE('',*,*,#251,.F.);
#251 = EDGE_CURVE('',#252,#252,#254,.T.);
#252 = VERTEX_POINT('',#253);
#253 = CARTESIAN_POINT('',(11.6,1.5,-16.8));
#254 = CIRCLE('',#255,1.1);
#255 = AXIS2_PLACEMENT_3D('',#256,#257,#258);
#256 = CARTESIAN_POINT('',(10.5,1.5,-16.8));
#257 = DIRECTION('',(0.,0.,1.));
#258 = DIRECTION('',(1.,0.,-0.));
#259 = FACE_BOUND('',#260,.F.);
#260 = EDGE_LOOP('',(#261,#271,#279,#287));
#261 = ORIENTED_EDGE('',*,*,#262,.T.);
#262 = EDGE_CURVE('',#263,#265,#267,.T.);
#263 = VERTEX_POINT('',#264);
#264 = CARTESIAN_POINT('',(7.,8.,-16.8));
#265 = VERTEX_POINT('',#266);
#266 = CARTESIAN_POINT('',(-7.,8.,-16.8));
#267 = LINE('',#268,#269);
#268 = CARTESIAN_POINT('',(-3.5,8.,-16.8));
#269 = VECTOR('',#270,1.);
#270 = DIRECTION('',(-1.,-0.,0.));
#271 = ORIENTED_EDGE('',*,*,#272,.T.);
#272 = EDGE_CURVE('',#265,#273,#275,.T.);
#273 = VERTEX_POINT('',#274);
#274 = CARTESIAN_POINT('',(-7.,22.,-16.8));
#275 = LINE('',#276,#277);
#276 = CARTESIAN_POINT('',(-7.,4.,-16.8));
#277 = VECTOR('',#278,1.);
#278 = DIRECTION('',(-0.,1.,0.));
#279 = ORIENTED_EDGE('',*,*,#280,.F.);
#280 = EDGE_CURVE('',#281,#273,#283,.T.);
#281 = VERTEX_POINT('',#282);
#282 = CARTESIAN_POINT('',(7.,22.,-16.8));
#283 = LINE('',#284,#285);
#284 = CARTESIAN_POINT('',(-3.5,22.,-16.8));
#285 = VECTOR('',#286,1.);
#286 = DIRECTION('',(-1.,-0.,0.));
#287 = ORIENTED_EDGE('',*,*,#288,.F.);
#288 = EDGE_CURVE('',#263,#281,#289,.T.);
#289 = LINE('',#290,#291);
#290 = CARTESIAN_POINT('',(7.,4.,-16.8));
#291 = VECTOR('',#292,1.);
#292 = DIRECTION('',(-0.,1.,0.));
#293 = PLANE('',#294);
#294 = AXIS2_PLACEMENT_3D('',#295,#296,#297);
#295 = CARTESIAN_POINT('',(3.020322334816E-16,-5.778007944866E-16,-16.8)
  );
#296 = DIRECTION('',(0.,0.,1.));
#297 = DIRECTION('',(1.,0.,-0.));
#298 = ADVANCED_FACE('',(#299,#344,#378,#389,#423,#434),#468,.T.);
#299 = FACE_BOUND('',#300,.T.);
#300 = EDGE_LOOP('',(#301,#302,#303,#311,#320,#328,#337,#343));
#301 = ORIENTED_EDGE('',*,*,#31,.T.);
#302 = ORIENTED_EDGE('',*,*,#95,.T.);
#303 = ORIENTED_EDGE('',*,*,#304,.T.);
#304 = EDGE_CURVE('',#96,#305,#307,.T.);
#305 = VERTEX_POINT('',#306);
#306 = CARTESIAN_POINT('',(13.475,16.5,-15.3));
#307 = LINE('',#308,#309);
#308 = CARTESIAN_POINT('',(13.475,-16.5,-15.3));
#309 = VECTOR('',#310,1.);
#310 = DIRECTION('',(0.,1.,0.));
#311 = ORIENTED_EDGE('',*,*,#312,.T.);
#312 = EDGE_CURVE('',#305,#313,#315,.T.);
#313 = VERTEX_POINT('',#314);
#314 = CARTESIAN_POINT('',(6.525,23.45,-15.3));
#315 = CIRCLE('',#316,6.95);
#316 = AXIS2_PLACEMENT_3D('',#317,#318,#319);
#317 = CARTESIAN_POINT('',(6.525,16.5,-15.3));
#318 = DIRECTION('',(0.,0.,1.));
#319 = DIRECTION('',(1.,0.,-0.));
#320 = ORIENTED_EDGE('',*,*,#321,.T.);
#321 = EDGE_CURVE('',#313,#322,#324,.T.);
#322 = VERTEX_POINT('',#323);
#323 = CARTESIAN_POINT('',(-6.525,23.45,-15.3));
#324 = LINE('',#325,#326);
#325 = CARTESIAN_POINT('',(6.525,23.45,-15.3));
#326 = VECTOR('',#327,1.);
#327 = DIRECTION('',(-1.,0.,0.));
#328 = ORIENTED_EDGE('',*,*,#329,.T.);
#329 = EDGE_CURVE('',#322,#330,#332,.T.);
#330 = VERTEX_POINT('',#331);
#331 = CARTESIAN_POINT('',(-13.475,16.5,-15.3));
#332 = CIRCLE('',#333,6.95);
#333 = AXIS2_PLACEMENT_3D('',#334,#335,#336);
#334 = CARTESIAN_POINT('',(-6.525,16.5,-15.3));
#335 = DIRECTION('',(0.,0.,1.));
#336 = DIRECTION('',(3.833863682159E-16,1.,-0.));
#337 = ORIENTED_EDGE('',*,*,#338,.T.);
#338 = EDGE_CURVE('',#330,#64,#339,.T.);
#339 = LINE('',#340,#341);
#340 = CARTESIAN_POINT('',(-13.475,16.5,-15.3));
#341 = VECTOR('',#342,1.);
#342 = DIRECTION('',(0.,-1.,0.));
#343 = ORIENTED_EDGE('',*,*,#71,.T.);
#344 = FACE_BOUND('',#345,.T.);
#345 = EDGE_LOOP('',(#346,#356,#364,#372));
#346 = ORIENTED_EDGE('',*,*,#347,.T.);
#347 = EDGE_CURVE('',#348,#350,#352,.T.);
#348 = VERTEX_POINT('',#349);
#349 = CARTESIAN_POINT('',(7.,-20.,-15.3));
#350 = VERTEX_POINT('',#351);
#351 = CARTESIAN_POINT('',(-7.,-20.,-15.3));
#352 = LINE('',#353,#354);
#353 = CARTESIAN_POINT('',(-3.5,-20.,-15.3));
#354 = VECTOR('',#355,1.);
#355 = DIRECTION('',(-1.,-0.,0.));
#356 = ORIENTED_EDGE('',*,*,#357,.T.);
#357 = EDGE_CURVE('',#350,#358,#360,.T.);
#358 = VERTEX_POINT('',#359);
#359 = CARTESIAN_POINT('',(-7.,-6.,-15.3));
#360 = LINE('',#361,#362);
#361 = CARTESIAN_POINT('',(-7.,-10.,-15.3));
#362 = VECTOR('',#363,1.);
#363 = DIRECTION('',(-0.,1.,0.));
#364 = ORIENTED_EDGE('',*,*,#365,.F.);
#365 = EDGE_CURVE('',#366,#358,#368,.T.);
#366 = VERTEX_POINT('',#367);
#367 = CARTESIAN_POINT('',(7.,-6.,-15.3));
#368 = LINE('',#369,#370);
#369 = CARTESIAN_POINT('',(-3.5,-6.,-15.3));
#370 = VECTOR('',#371,1.);
#371 = DIRECTION('',(-1.,-0.,0.));
#372 = ORIENTED_EDGE('',*,*,#373,.F.);
#373 = EDGE_CURVE('',#348,#366,#374,.T.);
#374 = LINE('',#375,#376);
#375 = CARTESIAN_POINT('',(7.,-10.,-15.3));
#376 = VECTOR('',#377,1.);
#377 = DIRECTION('',(-0.,1.,0.));
#378 = FACE_BOUND('',#379,.T.);
#379 = EDGE_LOOP('',(#380));
#380 = ORIENTED_EDGE('',*,*,#381,.F.);
#381 = EDGE_CURVE('',#382,#382,#384,.T.);
#382 = VERTEX_POINT('',#383);
#383 = CARTESIAN_POINT('',(-8.50989010989,1.5,-15.3));
#384 = CIRCLE('',#385,1.99010989011);
#385 = AXIS2_PLACEMENT_3D('',#386,#387,#388);
#386 = CARTESIAN_POINT('',(-10.5,1.5,-15.3));
#387 = DIRECTION('',(0.,0.,1.));
#388 = DIRECTION('',(1.,0.,-0.));
#389 = FACE_BOUND('',#390,.T.);
#390 = EDGE_LOOP('',(#391,#401,#409,#417));
#391 = ORIENTED_EDGE('',*,*,#392,.T.);
#392 = EDGE_CURVE('',#393,#395,#397,.T.);
#393 = VERTEX_POINT('',#394);
#394 = CARTESIAN_POINT('',(6.2,0.7,-15.3));
#395 = VERTEX_POINT('',#396);
#396 = CARTESIAN_POINT('',(-6.2,0.7,-15.3));
#397 = LINE('',#398,#399);
#398 = CARTESIAN_POINT('',(-3.1,0.7,-15.3));
#399 = VECTOR('',#400,1.);
#400 = DIRECTION('',(-1.,-0.,0.));
#401 = ORIENTED_EDGE('',*,*,#402,.T.);
#402 = EDGE_CURVE('',#395,#403,#405,.T.);
#403 = VERTEX_POINT('',#404);
#404 = CARTESIAN_POINT('',(-6.2,2.3,-15.3));
#405 = LINE('',#406,#407);
#406 = CARTESIAN_POINT('',(-6.2,0.35,-15.3));
#407 = VECTOR('',#408,1.);
#408 = DIRECTION('',(-0.,1.,0.));
#409 = ORIENTED_EDGE('',*,*,#410,.F.);
#410 = EDGE_CURVE('',#411,#403,#413,.T.);
#411 = VERTEX_POINT('',#412);
#412 = CARTESIAN_POINT('',(6.2,2.3,-15.3));
#413 = LINE('',#414,#415);
#414 = CARTESIAN_POINT('',(-3.1,2.3,-15.3));
#415 = VECTOR('',#416,1.);
#416 = DIRECTION('',(-1.,-0.,0.));
#417 = ORIENTED_EDGE('',*,*,#418,.F.);
#418 = EDGE_CURVE('',#393,#411,#419,.T.);
#419 = LINE('',#420,#421);
#420 = CARTESIAN_POINT('',(6.2,0.35,-15.3));
#421 = VECTOR('',#422,1.);
#422 = DIRECTION('',(-0.,1.,0.));
#423 = FACE_BOUND('',#424,.T.);
#424 = EDGE_LOOP('',(#425));
#425 = ORIENTED_EDGE('',*,*,#426,.F.);
#426 = EDGE_CURVE('',#427,#427,#429,.T.);
#427 = VERTEX_POINT('',#428);
#428 = CARTESIAN_POINT('',(12.49010989011,1.5,-15.3));
#429 = CIRCLE('',#430,1.99010989011);
#430 = AXIS2_PLACEMENT_3D('',#431,#432,#433);
#431 = CARTESIAN_POINT('',(10.5,1.5,-15.3));
#432 = DIRECTION('',(0.,0.,1.));
#433 = DIRECTION('',(1.,0.,-0.));
#434 = FACE_BOUND('',#435,.T.);
#435 = EDGE_LOOP('',(#436,#446,#454,#462));
#436 = ORIENTED_EDGE('',*,*,#437,.T.);
#437 = EDGE_CURVE('',#438,#440,#442,.T.);
#438 = VERTEX_POINT('',#439);
#439 = CARTESIAN_POINT('',(7.,8.,-15.3));
#440 = VERTEX_POINT('',#441);
#441 = CARTESIAN_POINT('',(-7.,8.,-15.3));
#442 = LINE('',#443,#444);
#443 = CARTESIAN_POINT('',(-3.5,8.,-15.3));
#444 = VECTOR('',#445,1.);
#445 = DIRECTION('',(-1.,-0.,0.));
#446 = ORIENTED_EDGE('',*,*,#447,.T.);
#447 = EDGE_CURVE('',#440,#448,#450,.T.);
#448 = VERTEX_POINT('',#449);
#449 = CARTESIAN_POINT('',(-7.,22.,-15.3));
#450 = LINE('',#451,#452);
#451 = CARTESIAN_POINT('',(-7.,4.,-15.3));
#452 = VECTOR('',#453,1.);
#453 = DIRECTION('',(-0.,1.,0.));
#454 = ORIENTED_EDGE('',*,*,#455,.F.);
#455 = EDGE_CURVE('',#456,#448,#458,.T.);
#456 = VERTEX_POINT('',#457);
#457 = CARTESIAN_POINT('',(7.,22.,-15.3));
#458 = LINE('',#459,#460);
#459 = CARTESIAN_POINT('',(-3.5,22.,-15.3));
#460 = VECTOR('',#461,1.);
#461 = DIRECTION('',(-1.,-0.,0.));
#462 = ORIENTED_EDGE('',*,*,#463,.F.);
#463 = EDGE_CURVE('',#438,#456,#464,.T.);
#464 = LINE('',#465,#466);
#465 = CARTESIAN_POINT('',(7.,4.,-15.3));
#466 = VECTOR('',#467,1.);
#467 = DIRECTION('',(-0.,1.,0.));
#468 = PLANE('',#469);
#469 = AXIS2_PLACEMENT_3D('',#470,#471,#472);
#470 = CARTESIAN_POINT('',(3.020322334816E-16,-5.778007944866E-16,-15.3)
  );
#471 = DIRECTION('',(0.,0.,1.));
#472 = DIRECTION('',(1.,0.,-0.));
#473 = ADVANCED_FACE('',(#474),#485,.F.);
#474 = FACE_BOUND('',#475,.F.);
#475 = EDGE_LOOP('',(#476,#482,#483,#484));
#476 = ORIENTED_EDGE('',*,*,#477,.T.);
#477 = EDGE_CURVE('',#155,#330,#478,.T.);
#478 = LINE('',#479,#480);
#479 = CARTESIAN_POINT('',(-13.475,16.5,-16.8));
#480 = VECTOR('',#481,1.);
#481 = DIRECTION('',(0.,0.,1.));
#482 = ORIENTED_EDGE('',*,*,#338,.T.);
#483 = ORIENTED_EDGE('',*,*,#61,.F.);
#484 = ORIENTED_EDGE('',*,*,#163,.F.);
#485 = PLANE('',#486);
#486 = AXIS2_PLACEMENT_3D('',#487,#488,#489);
#487 = CARTESIAN_POINT('',(-13.475,16.5,-16.8));
#488 = DIRECTION('',(1.,0.,-0.));
#489 = DIRECTION('',(0.,-1.,0.));
#490 = ADVANCED_FACE('',(#491),#502,.F.);
#491 = FACE_BOUND('',#492,.F.);
#492 = EDGE_LOOP('',(#493,#494,#495,#501));
#493 = ORIENTED_EDGE('',*,*,#104,.T.);
#494 = ORIENTED_EDGE('',*,*,#304,.T.);
#495 = ORIENTED_EDGE('',*,*,#496,.F.);
#496 = EDGE_CURVE('',#130,#305,#497,.T.);
#497 = LINE('',#498,#499);
#498 = CARTESIAN_POINT('',(13.475,16.5,-16.8));
#499 = VECTOR('',#500,1.);
#500 = DIRECTION('',(0.,0.,1.));
#501 = ORIENTED_EDGE('',*,*,#129,.F.);
#502 = PLANE('',#503);
#503 = AXIS2_PLACEMENT_3D('',#504,#505,#506);
#504 = CARTESIAN_POINT('',(13.475,-16.5,-16.8));
#505 = DIRECTION('',(-1.,0.,0.));
#506 = DIRECTION('',(0.,1.,0.));
#507 = ADVANCED_FACE('',(#508),#519,.T.);
#508 = FACE_BOUND('',#509,.F.);
#509 = EDGE_LOOP('',(#510,#516,#517,#518));
#510 = ORIENTED_EDGE('',*,*,#511,.T.);
#511 = EDGE_CURVE('',#147,#322,#512,.T.);
#512 = LINE('',#513,#514);
#513 = CARTESIAN_POINT('',(-6.525,23.45,-16.8));
#514 = VECTOR('',#515,1.);
#515 = DIRECTION('',(0.,0.,1.));
#516 = ORIENTED_EDGE('',*,*,#329,.T.);
#517 = ORIENTED_EDGE('',*,*,#477,.F.);
#518 = ORIENTED_EDGE('',*,*,#154,.F.);
#519 = CYLINDRICAL_SURFACE('',#520,6.95);
#520 = AXIS2_PLACEMENT_3D('',#521,#522,#523);
#521 = CARTESIAN_POINT('',(-6.525,16.5,-16.8));
#522 = DIRECTION('',(-0.,-0.,-1.));
#523 = DIRECTION('',(3.833863682159E-16,1.,-0.));
#524 = ADVANCED_FACE('',(#525),#536,.T.);
#525 = FACE_BOUND('',#526,.F.);
#526 = EDGE_LOOP('',(#527,#528,#529,#535));
#527 = ORIENTED_EDGE('',*,*,#496,.T.);
#528 = ORIENTED_EDGE('',*,*,#312,.T.);
#529 = ORIENTED_EDGE('',*,*,#530,.F.);
#530 = EDGE_CURVE('',#138,#313,#531,.T.);
#531 = LINE('',#532,#533);
#532 = CARTESIAN_POINT('',(6.525,23.45,-16.8));
#533 = VECTOR('',#534,1.);
#534 = DIRECTION('',(0.,0.,1.));
#535 = ORIENTED_EDGE('',*,*,#137,.F.);
#536 = CYLINDRICAL_SURFACE('',#537,6.95);
#537 = AXIS2_PLACEMENT_3D('',#538,#539,#540);
#538 = CARTESIAN_POINT('',(6.525,16.5,-16.8));
#539 = DIRECTION('',(-0.,-0.,-1.));
#540 = DIRECTION('',(1.,0.,-0.));
#541 = ADVANCED_FACE('',(#542),#548,.F.);
#542 = FACE_BOUND('',#543,.F.);
#543 = EDGE_LOOP('',(#544,#545,#546,#547));
#544 = ORIENTED_EDGE('',*,*,#530,.T.);
#545 = ORIENTED_EDGE('',*,*,#321,.T.);
#546 = ORIENTED_EDGE('',*,*,#511,.F.);
#547 = ORIENTED_EDGE('',*,*,#146,.F.);
#548 = PLANE('',#549);
#549 = AXIS2_PLACEMENT_3D('',#550,#551,#552);
#550 = CARTESIAN_POINT('',(6.525,23.45,-16.8));
#551 = DIRECTION('',(0.,-1.,0.));
#552 = DIRECTION('',(-1.,0.,0.));
#553 = ADVANCED_FACE('',(#554),#570,.T.);
#554 = FACE_BOUND('',#555,.T.);
#555 = EDGE_LOOP('',(#556,#562,#563,#569));
#556 = ORIENTED_EDGE('',*,*,#557,.F.);
#557 = EDGE_CURVE('',#173,#348,#558,.T.);
#558 = LINE('',#559,#560);
#559 = CARTESIAN_POINT('',(7.,-20.,-16.81));
#560 = VECTOR('',#561,1.);
#561 = DIRECTION('',(0.,0.,1.));
#562 = ORIENTED_EDGE('',*,*,#172,.T.);
#563 = ORIENTED_EDGE('',*,*,#564,.T.);
#564 = EDGE_CURVE('',#175,#350,#565,.T.);
#565 = LINE('',#566,#567);
#566 = CARTESIAN_POINT('',(-7.,-20.,-16.81));
#567 = VECTOR('',#568,1.);
#568 = DIRECTION('',(0.,0.,1.));
#569 = ORIENTED_EDGE('',*,*,#347,.F.);
#570 = PLANE('',#571);
#571 = AXIS2_PLACEMENT_3D('',#572,#573,#574);
#572 = CARTESIAN_POINT('',(-7.,-20.,-16.81));
#573 = DIRECTION('',(-0.,1.,0.));
#574 = DIRECTION('',(0.,0.,1.));
#575 = ADVANCED_FACE('',(#576),#587,.F.);
#576 = FACE_BOUND('',#577,.F.);
#577 = EDGE_LOOP('',(#578,#579,#580,#586));
#578 = ORIENTED_EDGE('',*,*,#557,.F.);
#579 = ORIENTED_EDGE('',*,*,#198,.T.);
#580 = ORIENTED_EDGE('',*,*,#581,.T.);
#581 = EDGE_CURVE('',#191,#366,#582,.T.);
#582 = LINE('',#583,#584);
#583 = CARTESIAN_POINT('',(7.,-6.,-16.81));
#584 = VECTOR('',#585,1.);
#585 = DIRECTION('',(0.,0.,1.));
#586 = ORIENTED_EDGE('',*,*,#373,.F.);
#587 = PLANE('',#588);
#588 = AXIS2_PLACEMENT_3D('',#589,#590,#591);
#589 = CARTESIAN_POINT('',(7.,-20.,-16.81));
#590 = DIRECTION('',(1.,0.,-0.));
#591 = DIRECTION('',(0.,0.,1.));
#592 = ADVANCED_FACE('',(#593),#604,.F.);
#593 = FACE_BOUND('',#594,.F.);
#594 = EDGE_LOOP('',(#595,#596,#597,#603));
#595 = ORIENTED_EDGE('',*,*,#581,.F.);
#596 = ORIENTED_EDGE('',*,*,#190,.T.);
#597 = ORIENTED_EDGE('',*,*,#598,.T.);
#598 = EDGE_CURVE('',#183,#358,#599,.T.);
#599 = LINE('',#600,#601);
#600 = CARTESIAN_POINT('',(-7.,-6.,-16.81));
#601 = VECTOR('',#602,1.);
#602 = DIRECTION('',(0.,0.,1.));
#603 = ORIENTED_EDGE('',*,*,#365,.F.);
#604 = PLANE('',#605);
#605 = AXIS2_PLACEMENT_3D('',#606,#607,#608);
#606 = CARTESIAN_POINT('',(-7.,-6.,-16.81));
#607 = DIRECTION('',(-0.,1.,0.));
#608 = DIRECTION('',(0.,0.,1.));
#609 = ADVANCED_FACE('',(#610),#616,.T.);
#610 = FACE_BOUND('',#611,.T.);
#611 = EDGE_LOOP('',(#612,#613,#614,#615));
#612 = ORIENTED_EDGE('',*,*,#564,.F.);
#613 = ORIENTED_EDGE('',*,*,#182,.T.);
#614 = ORIENTED_EDGE('',*,*,#598,.T.);
#615 = ORIENTED_EDGE('',*,*,#357,.F.);
#616 = PLANE('',#617);
#617 = AXIS2_PLACEMENT_3D('',#618,#619,#620);
#618 = CARTESIAN_POINT('',(-7.,-20.,-16.81));
#619 = DIRECTION('',(1.,0.,-0.));
#620 = DIRECTION('',(0.,0.,1.));
#621 = ADVANCED_FACE('',(#622),#641,.F.);
#622 = FACE_BOUND('',#623,.F.);
#623 = EDGE_LOOP('',(#624,#632,#639,#640));
#624 = ORIENTED_EDGE('',*,*,#625,.T.);
#625 = EDGE_CURVE('',#207,#626,#628,.T.);
#626 = VERTEX_POINT('',#627);
#627 = CARTESIAN_POINT('',(-9.4,1.5,-16.2));
#628 = LINE('',#629,#630);
#629 = CARTESIAN_POINT('',(-9.4,1.5,-16.81));
#630 = VECTOR('',#631,1.);
#631 = DIRECTION('',(0.,0.,1.));
#632 = ORIENTED_EDGE('',*,*,#633,.F.);
#633 = EDGE_CURVE('',#626,#626,#634,.T.);
#634 = CIRCLE('',#635,1.1);
#635 = AXIS2_PLACEMENT_3D('',#636,#637,#638);
#636 = CARTESIAN_POINT('',(-10.5,1.5,-16.2));
#637 = DIRECTION('',(0.,0.,1.));
#638 = DIRECTION('',(1.,0.,-0.));
#639 = ORIENTED_EDGE('',*,*,#625,.F.);
#640 = ORIENTED_EDGE('',*,*,#206,.T.);
#641 = CYLINDRICAL_SURFACE('',#642,1.1);
#642 = AXIS2_PLACEMENT_3D('',#643,#644,#645);
#643 = CARTESIAN_POINT('',(-10.5,1.5,-16.81));
#644 = DIRECTION('',(0.,0.,1.));
#645 = DIRECTION('',(1.,0.,-0.));
#646 = ADVANCED_FACE('',(#647),#663,.T.);
#647 = FACE_BOUND('',#648,.T.);
#648 = EDGE_LOOP('',(#649,#655,#656,#662));
#649 = ORIENTED_EDGE('',*,*,#650,.F.);
#650 = EDGE_CURVE('',#218,#393,#651,.T.);
#651 = LINE('',#652,#653);
#652 = CARTESIAN_POINT('',(6.2,0.7,-16.81));
#653 = VECTOR('',#654,1.);
#654 = DIRECTION('',(0.,0.,1.));
#655 = ORIENTED_EDGE('',*,*,#217,.T.);
#656 = ORIENTED_EDGE('',*,*,#657,.T.);
#657 = EDGE_CURVE('',#220,#395,#658,.T.);
#658 = LINE('',#659,#660);
#659 = CARTESIAN_POINT('',(-6.2,0.7,-16.81));
#660 = VECTOR('',#661,1.);
#661 = DIRECTION('',(0.,0.,1.));
#662 = ORIENTED_EDGE('',*,*,#392,.F.);
#663 = PLANE('',#664);
#664 = AXIS2_PLACEMENT_3D('',#665,#666,#667);
#665 = CARTESIAN_POINT('',(-6.2,0.7,-16.81));
#666 = DIRECTION('',(-0.,1.,0.));
#667 = DIRECTION('',(0.,0.,1.));
#668 = ADVANCED_FACE('',(#669),#680,.F.);
#669 = FACE_BOUND('',#670,.F.);
#670 = EDGE_LOOP('',(#671,#672,#673,#679));
#671 = ORIENTED_EDGE('',*,*,#650,.F.);
#672 = ORIENTED_EDGE('',*,*,#243,.T.);
#673 = ORIENTED_EDGE('',*,*,#674,.T.);
#674 = EDGE_CURVE('',#236,#411,#675,.T.);
#675 = LINE('',#676,#677);
#676 = CARTESIAN_POINT('',(6.2,2.3,-16.81));
#677 = VECTOR('',#678,1.);
#678 = DIRECTION('',(0.,0.,1.));
#679 = ORIENTED_EDGE('',*,*,#418,.F.);
#680 = PLANE('',#681);
#681 = AXIS2_PLACEMENT_3D('',#682,#683,#684);
#682 = CARTESIAN_POINT('',(6.2,0.7,-16.81));
#683 = DIRECTION('',(1.,0.,-0.));
#684 = DIRECTION('',(0.,0.,1.));
#685 = ADVANCED_FACE('',(#686),#697,.F.);
#686 = FACE_BOUND('',#687,.F.);
#687 = EDGE_LOOP('',(#688,#689,#690,#696));
#688 = ORIENTED_EDGE('',*,*,#674,.F.);
#689 = ORIENTED_EDGE('',*,*,#235,.T.);
#690 = ORIENTED_EDGE('',*,*,#691,.T.);
#691 = EDGE_CURVE('',#228,#403,#692,.T.);
#692 = LINE('',#693,#694);
#693 = CARTESIAN_POINT('',(-6.2,2.3,-16.81));
#694 = VECTOR('',#695,1.);
#695 = DIRECTION('',(0.,0.,1.));
#696 = ORIENTED_EDGE('',*,*,#410,.F.);
#697 = PLANE('',#698);
#698 = AXIS2_PLACEMENT_3D('',#699,#700,#701);
#699 = CARTESIAN_POINT('',(-6.2,2.3,-16.81));
#700 = DIRECTION('',(-0.,1.,0.));
#701 = DIRECTION('',(0.,0.,1.));
#702 = ADVANCED_FACE('',(#703),#709,.T.);
#703 = FACE_BOUND('',#704,.T.);
#704 = EDGE_LOOP('',(#705,#706,#707,#708));
#705 = ORIENTED_EDGE('',*,*,#657,.F.);
#706 = ORIENTED_EDGE('',*,*,#227,.T.);
#707 = ORIENTED_EDGE('',*,*,#691,.T.);
#708 = ORIENTED_EDGE('',*,*,#402,.F.);
#709 = PLANE('',#710);
#710 = AXIS2_PLACEMENT_3D('',#711,#712,#713);
#711 = CARTESIAN_POINT('',(-6.2,0.7,-16.81));
#712 = DIRECTION('',(1.,0.,-0.));
#713 = DIRECTION('',(0.,0.,1.));
#714 = ADVANCED_FACE('',(#715),#734,.F.);
#715 = FACE_BOUND('',#716,.F.);
#716 = EDGE_LOOP('',(#717,#725,#732,#733));
#717 = ORIENTED_EDGE('',*,*,#718,.T.);
#718 = EDGE_CURVE('',#252,#719,#721,.T.);
#719 = VERTEX_POINT('',#720);
#720 = CARTESIAN_POINT('',(11.6,1.5,-16.2));
#721 = LINE('',#722,#723);
#722 = CARTESIAN_POINT('',(11.6,1.5,-16.81));
#723 = VECTOR('',#724,1.);
#724 = DIRECTION('',(0.,0.,1.));
#725 = ORIENTED_EDGE('',*,*,#726,.F.);
#726 = EDGE_CURVE('',#719,#719,#727,.T.);
#727 = CIRCLE('',#728,1.1);
#728 = AXIS2_PLACEMENT_3D('',#729,#730,#731);
#729 = CARTESIAN_POINT('',(10.5,1.5,-16.2));
#730 = DIRECTION('',(0.,0.,1.));
#731 = DIRECTION('',(1.,0.,-0.));
#732 = ORIENTED_EDGE('',*,*,#718,.F.);
#733 = ORIENTED_EDGE('',*,*,#251,.T.);
#734 = CYLINDRICAL_SURFACE('',#735,1.1);
#735 = AXIS2_PLACEMENT_3D('',#736,#737,#738);
#736 = CARTESIAN_POINT('',(10.5,1.5,-16.81));
#737 = DIRECTION('',(0.,0.,1.));
#738 = DIRECTION('',(1.,0.,-0.));
#739 = ADVANCED_FACE('',(#740),#756,.T.);
#740 = FACE_BOUND('',#741,.T.);
#741 = EDGE_LOOP('',(#742,#748,#749,#755));
#742 = ORIENTED_EDGE('',*,*,#743,.F.);
#743 = EDGE_CURVE('',#263,#438,#744,.T.);
#744 = LINE('',#745,#746);
#745 = CARTESIAN_POINT('',(7.,8.,-16.81));
#746 = VECTOR('',#747,1.);
#747 = DIRECTION('',(0.,0.,1.));
#748 = ORIENTED_EDGE('',*,*,#262,.T.);
#749 = ORIENTED_EDGE('',*,*,#750,.T.);
#750 = EDGE_CURVE('',#265,#440,#751,.T.);
#751 = LINE('',#752,#753);
#752 = CARTESIAN_POINT('',(-7.,8.,-16.81));
#753 = VECTOR('',#754,1.);
#754 = DIRECTION('',(0.,0.,1.));
#755 = ORIENTED_EDGE('',*,*,#437,.F.);
#756 = PLANE('',#757);
#757 = AXIS2_PLACEMENT_3D('',#758,#759,#760);
#758 = CARTESIAN_POINT('',(-7.,8.,-16.81));
#759 = DIRECTION('',(-0.,1.,0.));
#760 = DIRECTION('',(0.,0.,1.));
#761 = ADVANCED_FACE('',(#762),#773,.F.);
#762 = FACE_BOUND('',#763,.F.);
#763 = EDGE_LOOP('',(#764,#765,#766,#772));
#764 = ORIENTED_EDGE('',*,*,#743,.F.);
#765 = ORIENTED_EDGE('',*,*,#288,.T.);
#766 = ORIENTED_EDGE('',*,*,#767,.T.);
#767 = EDGE_CURVE('',#281,#456,#768,.T.);
#768 = LINE('',#769,#770);
#769 = CARTESIAN_POINT('',(7.,22.,-16.81));
#770 = VECTOR('',#771,1.);
#771 = DIRECTION('',(0.,0.,1.));
#772 = ORIENTED_EDGE('',*,*,#463,.F.);
#773 = PLANE('',#774);
#774 = AXIS2_PLACEMENT_3D('',#775,#776,#777);
#775 = CARTESIAN_POINT('',(7.,8.,-16.81));
#776 = DIRECTION('',(1.,0.,-0.));
#777 = DIRECTION('',(0.,0.,1.));
#778 = ADVANCED_FACE('',(#779),#790,.F.);
#779 = FACE_BOUND('',#780,.F.);
#780 = EDGE_LOOP('',(#781,#782,#783,#789));
#781 = ORIENTED_EDGE('',*,*,#767,.F.);
#782 = ORIENTED_EDGE('',*,*,#280,.T.);
#783 = ORIENTED_EDGE('',*,*,#784,.T.);
#784 = EDGE_CURVE('',#273,#448,#785,.T.);
#785 = LINE('',#786,#787);
#786 = CARTESIAN_POINT('',(-7.,22.,-16.81));
#787 = VECTOR('',#788,1.);
#788 = DIRECTION('',(0.,0.,1.));
#789 = ORIENTED_EDGE('',*,*,#455,.F.);
#790 = PLANE('',#791);
#791 = AXIS2_PLACEMENT_3D('',#792,#793,#794);
#792 = CARTESIAN_POINT('',(-7.,22.,-16.81));
#793 = DIRECTION('',(-0.,1.,0.));
#794 = DIRECTION('',(0.,0.,1.));
#795 = ADVANCED_FACE('',(#796),#802,.T.);
#796 = FACE_BOUND('',#797,.T.);
#797 = EDGE_LOOP('',(#798,#799,#800,#801));
#798 = ORIENTED_EDGE('',*,*,#750,.F.);
#799 = ORIENTED_EDGE('',*,*,#272,.T.);
#800 = ORIENTED_EDGE('',*,*,#784,.T.);
#801 = ORIENTED_EDGE('',*,*,#447,.F.);
#802 = PLANE('',#803);
#803 = AXIS2_PLACEMENT_3D('',#804,#805,#806);
#804 = CARTESIAN_POINT('',(-7.,8.,-16.81));
#805 = DIRECTION('',(1.,0.,-0.));
#806 = DIRECTION('',(0.,0.,1.));
#807 = ADVANCED_FACE('',(#808),#819,.F.);
#808 = FACE_BOUND('',#809,.F.);
#809 = EDGE_LOOP('',(#810,#811,#817,#818));
#810 = ORIENTED_EDGE('',*,*,#381,.F.);
#811 = ORIENTED_EDGE('',*,*,#812,.F.);
#812 = EDGE_CURVE('',#626,#382,#813,.T.);
#813 = LINE('',#814,#815);
#814 = CARTESIAN_POINT('',(-9.4,1.5,-16.2));
#815 = VECTOR('',#816,1.);
#816 = DIRECTION('',(0.703189381858,-1.722317251374E-16,0.711002597212)
  );
#817 = ORIENTED_EDGE('',*,*,#633,.T.);
#818 = ORIENTED_EDGE('',*,*,#812,.T.);
#819 = CONICAL_SURFACE('',#820,1.1,0.779873357732);
#820 = AXIS2_PLACEMENT_3D('',#821,#822,#823);
#821 = CARTESIAN_POINT('',(-10.5,1.5,-16.2));
#822 = DIRECTION('',(0.,0.,1.));
#823 = DIRECTION('',(1.,0.,-0.));
#824 = ADVANCED_FACE('',(#825),#836,.F.);
#825 = FACE_BOUND('',#826,.F.);
#826 = EDGE_LOOP('',(#827,#828,#834,#835));
#827 = ORIENTED_EDGE('',*,*,#426,.F.);
#828 = ORIENTED_EDGE('',*,*,#829,.F.);
#829 = EDGE_CURVE('',#719,#427,#830,.T.);
#830 = LINE('',#831,#832);
#831 = CARTESIAN_POINT('',(11.6,1.5,-16.2));
#832 = VECTOR('',#833,1.);
#833 = DIRECTION('',(0.703189381858,-1.722317251374E-16,0.711002597212)
  );
#834 = ORIENTED_EDGE('',*,*,#726,.T.);
#835 = ORIENTED_EDGE('',*,*,#829,.T.);
#836 = CONICAL_SURFACE('',#837,1.1,0.779873357732);
#837 = AXIS2_PLACEMENT_3D('',#838,#839,#840);
#838 = CARTESIAN_POINT('',(10.5,1.5,-16.2));
#839 = DIRECTION('',(0.,0.,1.));
#840 = DIRECTION('',(1.,0.,-0.));
#841 = ( GEOMETRIC_REPRESENTATION_CONTEXT(3) 
GLOBAL_UNCERTAINTY_ASSIGNED_CONTEXT((#845)) GLOBAL_UNIT_ASSIGNED_CONTEXT
((#842,#843,#844)) REPRESENTATION_CONTEXT('Context #1',
  '3D Context with UNIT and UNCERTAINTY') );
#842 = ( LENGTH_UNIT() NAMED_UNIT(*) SI_UNIT(.MILLI.,.METRE.) );
#843 = ( NAMED_UNIT(*) PLANE_ANGLE_UNIT() SI_UNIT($,.RADIAN.) );
#844 = ( NAMED_UNIT(*) SI_UNIT($,.STERADIAN.) SOLID_ANGLE_UNIT() );
#845 = UNCERTAINTY_MEASURE_WITH_UNIT(LENGTH_MEASURE(1.E-07),#842,
  'distance_accuracy_value','confusion accuracy');
#846 = PRODUCT_RELATED_PRODUCT_CATEGORY('part',$,(#7));
ENDSEC;
END-ISO-10303-21;
